<?xml version="1.0" encoding="utf-8" standalone="no"?>
<!DOCTYPE svg PUBLIC "-//W3C//DTD SVG 1.1//EN"
  "http://www.w3.org/Graphics/SVG/1.1/DTD/svg11.dtd">
<svg xmlns:xlink="http://www.w3.org/1999/xlink" width="921.6pt" height="518.4pt" viewBox="0 0 921.6 518.4" xmlns="http://www.w3.org/2000/svg" version="1.1">
 <metadata>
  <rdf:RDF xmlns:dc="http://purl.org/dc/elements/1.1/" xmlns:cc="http://creativecommons.org/ns#" xmlns:rdf="http://www.w3.org/1999/02/22-rdf-syntax-ns#">
   <cc:Work>
    <dc:type rdf:resource="http://purl.org/dc/dcmitype/StillImage"/>
    <dc:date>2026-06-26T13:15:43.787460</dc:date>
    <dc:format>image/svg+xml</dc:format>
    <dc:creator>
     <cc:Agent>
      <dc:title>Matplotlib v3.10.8, https://matplotlib.org/</dc:title>
     </cc:Agent>
    </dc:creator>
   </cc:Work>
  </rdf:RDF>
 </metadata>
 <defs>
  <style type="text/css">*{stroke-linejoin: round; stroke-linecap: butt}</style>
 </defs>
 <g id="figure_1">
  <g id="patch_1">
   <path d="M 0 518.4 
L 921.6 518.4 
L 921.6 0 
L 0 0 
z
" style="fill: #ffffff"/>
  </g>
  <g id="axes_1">
   <g id="patch_2">
    <path d="M 54.3744 430.272 
L 563.0976 430.272 
Q 576 430.272 576 423.0144 
L 576 116.1216 
Q 576 108.864 563.0976 108.864 
L 54.3744 108.864 
Q 41.472 108.864 41.472 116.1216 
L 41.472 423.0144 
Q 41.472 430.272 54.3744 430.272 
z
" style="fill: #ffffff; stroke: #c9d1d9; stroke-width: 1.2; stroke-linejoin: miter"/>
   </g>
   <g id="patch_3">
    <path d="M 76.4928 180.4032 
L 130.8672 180.4032 
Q 138.24 180.4032 138.24 176.256 
L 138.24 156.5568 
Q 138.24 152.4096 130.8672 152.4096 
L 76.4928 152.4096 
Q 69.12 152.4096 69.12 156.5568 
L 69.12 176.256 
Q 69.12 180.4032 76.4928 180.4032 
z
" style="fill: #fff3e5; stroke: #f06a00; stroke-linejoin: miter"/>
   </g>
   <g id="patch_4">
    <path d="M 76.4928 205.2864 
L 112.4352 205.2864 
Q 119.808 205.2864 119.808 201.1392 
L 119.808 181.44 
Q 119.808 177.2928 112.4352 177.2928 
L 76.4928 177.2928 
Q 69.12 177.2928 69.12 181.44 
L 69.12 201.1392 
Q 69.12 205.2864 76.4928 205.2864 
z
" style="fill: #eaf2ff; stroke: #1f6feb; stroke-linejoin: miter"/>
   </g>
   <g id="patch_5">
    <path d="M 76.4928 285.6384 
L 112.4352 285.6384 
Q 119.808 285.6384 119.808 281.4912 
L 119.808 261.792 
Q 119.808 257.6448 112.4352 257.6448 
L 76.4928 257.6448 
Q 69.12 257.6448 69.12 261.792 
L 69.12 281.4912 
Q 69.12 285.6384 76.4928 285.6384 
z
" style="fill: #eaf2ff; stroke: #1f6feb; stroke-linejoin: miter"/>
   </g>
   <g id="patch_6">
    <path d="M 76.4928 346.8096 
L 112.4352 346.8096 
Q 119.808 346.8096 119.808 342.6624 
L 119.808 322.9632 
Q 119.808 318.816 112.4352 318.816 
L 76.4928 318.816 
Q 69.12 318.816 69.12 322.9632 
L 69.12 342.6624 
Q 69.12 346.8096 76.4928 346.8096 
z
" style="fill: #eaf2ff; stroke: #1f6feb; stroke-linejoin: miter"/>
   </g>
   <g id="patch_7">
    <path d="M 76.4928 427.1616 
L 130.8672 427.1616 
Q 138.24 427.1616 138.24 423.0144 
L 138.24 403.3152 
Q 138.24 399.168 130.8672 399.168 
L 76.4928 399.168 
Q 69.12 399.168 69.12 403.3152 
L 69.12 423.0144 
Q 69.12 427.1616 76.4928 427.1616 
z
" style="fill: #e9f6d7; stroke: #76b900; stroke-linejoin: miter"/>
   </g>
   <g id="patch_8">
    <path d="M 616.5504 202.176 
L 858.0096 202.176 
Q 870.912 202.176 870.912 194.9184 
L 870.912 116.1216 
Q 870.912 108.864 858.0096 108.864 
L 616.5504 108.864 
Q 603.648 108.864 603.648 116.1216 
L 603.648 194.9184 
Q 603.648 202.176 616.5504 202.176 
z
" style="fill: #fff3e5; stroke: #f06a00; stroke-width: 1.5; stroke-linejoin: miter"/>
   </g>
   <g id="patch_9">
    <path d="M 616.5504 321.408 
L 858.0096 321.408 
Q 870.912 321.408 870.912 314.1504 
L 870.912 230.1696 
Q 870.912 222.912 858.0096 222.912 
L 616.5504 222.912 
Q 603.648 222.912 603.648 230.1696 
L 603.648 314.1504 
Q 603.648 321.408 616.5504 321.408 
z
" style="fill: #eaf2ff; stroke: #1f6feb; stroke-width: 1.5; stroke-linejoin: miter"/>
   </g>
   <g id="patch_10">
    <path d="M 616.5504 430.272 
L 858.0096 430.272 
Q 870.912 430.272 870.912 423.0144 
L 870.912 349.4016 
Q 870.912 342.144 858.0096 342.144 
L 616.5504 342.144 
Q 603.648 342.144 603.648 349.4016 
L 603.648 423.0144 
Q 603.648 430.272 616.5504 430.272 
z
" style="fill: #e9f6d7; stroke: #76b900; stroke-width: 1.5; stroke-linejoin: miter"/>
   </g>
   <g id="patch_11">
    <path d="M 778.752 248.832 
L 792.576 248.832 
L 792.576 241.056 
L 778.752 241.056 
z
" clip-path="url(#pd4231197be)" style="fill: #e9f6d7; stroke: #aab2ba; stroke-width: 0.8; stroke-linejoin: miter"/>
   </g>
   <g id="patch_12">
    <path d="M 792.576 248.832 
L 806.4 248.832 
L 806.4 241.056 
L 792.576 241.056 
z
" clip-path="url(#pd4231197be)" style="fill: #e9f6d7; stroke: #aab2ba; stroke-width: 0.8; stroke-linejoin: miter"/>
   </g>
   <g id="patch_13">
    <path d="M 806.4 248.832 
L 820.224 248.832 
L 820.224 241.056 
L 806.4 241.056 
z
" clip-path="url(#pd4231197be)" style="fill: #e9f6d7; stroke: #aab2ba; stroke-width: 0.8; stroke-linejoin: miter"/>
   </g>
   <g id="patch_14">
    <path d="M 820.224 248.832 
L 834.048 248.832 
L 834.048 241.056 
L 820.224 241.056 
z
" clip-path="url(#pd4231197be)" style="fill: #e9f6d7; stroke: #aab2ba; stroke-width: 0.8; stroke-linejoin: miter"/>
   </g>
   <g id="patch_15">
    <path d="M 778.752 256.608 
L 792.576 256.608 
L 792.576 248.832 
L 778.752 248.832 
z
" clip-path="url(#pd4231197be)" style="fill: #f2f4f7; stroke: #aab2ba; stroke-width: 0.8; stroke-linejoin: miter"/>
   </g>
   <g id="patch_16">
    <path d="M 792.576 256.608 
L 806.4 256.608 
L 806.4 248.832 
L 792.576 248.832 
z
" clip-path="url(#pd4231197be)" style="fill: #e9f6d7; stroke: #aab2ba; stroke-width: 0.8; stroke-linejoin: miter"/>
   </g>
   <g id="patch_17">
    <path d="M 806.4 256.608 
L 820.224 256.608 
L 820.224 248.832 
L 806.4 248.832 
z
" clip-path="url(#pd4231197be)" style="fill: #e9f6d7; stroke: #aab2ba; stroke-width: 0.8; stroke-linejoin: miter"/>
   </g>
   <g id="patch_18">
    <path d="M 820.224 256.608 
L 834.048 256.608 
L 834.048 248.832 
L 820.224 248.832 
z
" clip-path="url(#pd4231197be)" style="fill: #e9f6d7; stroke: #aab2ba; stroke-width: 0.8; stroke-linejoin: miter"/>
   </g>
   <g id="patch_19">
    <path d="M 778.752 264.384 
L 792.576 264.384 
L 792.576 256.608 
L 778.752 256.608 
z
" clip-path="url(#pd4231197be)" style="fill: #f2f4f7; stroke: #aab2ba; stroke-width: 0.8; stroke-linejoin: miter"/>
   </g>
   <g id="patch_20">
    <path d="M 792.576 264.384 
L 806.4 264.384 
L 806.4 256.608 
L 792.576 256.608 
z
" clip-path="url(#pd4231197be)" style="fill: #f2f4f7; stroke: #aab2ba; stroke-width: 0.8; stroke-linejoin: miter"/>
   </g>
   <g id="patch_21">
    <path d="M 806.4 264.384 
L 820.224 264.384 
L 820.224 256.608 
L 806.4 256.608 
z
" clip-path="url(#pd4231197be)" style="fill: #e9f6d7; stroke: #aab2ba; stroke-width: 0.8; stroke-linejoin: miter"/>
   </g>
   <g id="patch_22">
    <path d="M 820.224 264.384 
L 834.048 264.384 
L 834.048 256.608 
L 820.224 256.608 
z
" clip-path="url(#pd4231197be)" style="fill: #e9f6d7; stroke: #aab2ba; stroke-width: 0.8; stroke-linejoin: miter"/>
   </g>
   <g id="patch_23">
    <path d="M 778.752 272.16 
L 792.576 272.16 
L 792.576 264.384 
L 778.752 264.384 
z
" clip-path="url(#pd4231197be)" style="fill: #f2f4f7; stroke: #aab2ba; stroke-width: 0.8; stroke-linejoin: miter"/>
   </g>
   <g id="patch_24">
    <path d="M 792.576 272.16 
L 806.4 272.16 
L 806.4 264.384 
L 792.576 264.384 
z
" clip-path="url(#pd4231197be)" style="fill: #f2f4f7; stroke: #aab2ba; stroke-width: 0.8; stroke-linejoin: miter"/>
   </g>
   <g id="patch_25">
    <path d="M 806.4 272.16 
L 820.224 272.16 
L 820.224 264.384 
L 806.4 264.384 
z
" clip-path="url(#pd4231197be)" style="fill: #f2f4f7; stroke: #aab2ba; stroke-width: 0.8; stroke-linejoin: miter"/>
   </g>
   <g id="patch_26">
    <path d="M 820.224 272.16 
L 834.048 272.16 
L 834.048 264.384 
L 820.224 264.384 
z
" clip-path="url(#pd4231197be)" style="fill: #e9f6d7; stroke: #aab2ba; stroke-width: 0.8; stroke-linejoin: miter"/>
   </g>
   <g id="patch_27">
    <path d="M 778.752 241.056 
L 834.048 241.056 
L 834.048 272.16 
L 778.752 241.056 
z
" clip-path="url(#pd4231197be)" style="fill: none; stroke: #76b900; stroke-width: 2; stroke-linejoin: miter"/>
   </g>
   <g id="patch_28">
    <path d="M 52.5312 484.704 
L 859.8528 484.704 
Q 870.912 484.704 870.912 478.4832 
L 870.912 449.4528 
Q 870.912 443.232 859.8528 443.232 
L 52.5312 443.232 
Q 41.472 443.232 41.472 449.4528 
L 41.472 478.4832 
Q 41.472 484.704 52.5312 484.704 
z
" style="fill: #f5f7fa; stroke: #d7dce2; stroke-linejoin: miter"/>
   </g>
   <g id="text_1">
    <text style="font-weight: 700; font-size: 16.5px; font-family: 'PingFang SC', 'Hiragino Sans GB', 'Heiti SC', 'Arial Unicode MS', 'Noto Sans CJK SC', 'Microsoft YaHei', 'SimHei', 'DejaVu Sans', sans-serif; text-anchor: start; fill: #111111" x="76.4928" y="137.376" transform="rotate(-0 76.4928 137.376)">伪代码</text>
   </g>
   <g id="text_2">
    <text style="font-size: 11px; font-family: 'PingFang SC', 'Hiragino Sans GB', 'Heiti SC', 'Arial Unicode MS', 'Noto Sans CJK SC', 'Microsoft YaHei', 'SimHei', 'DejaVu Sans', sans-serif; text-anchor: end; fill: #5a6268" x="516.096" y="137.376" transform="rotate(-0 516.096 137.376)">核心流程</text>
   </g>
   <g id="text_3">
    <text style="font-weight: 700; font-size: 10.2px; font-family: 'PingFang SC', 'Hiragino Sans GB', 'Heiti SC', 'Arial Unicode MS', 'Noto Sans CJK SC', 'Microsoft YaHei', 'SimHei', 'DejaVu Sans', sans-serif; text-anchor: middle; fill: #f06a00" x="103.68" y="169.271962" transform="rotate(-0 103.68 169.271962)">输入</text>
   </g>
   <g id="text_4">
    <text style="font-weight: 700; font-size: 13.5px; font-family: 'PingFang SC', 'Hiragino Sans GB', 'Heiti SC', 'Arial Unicode MS', 'Noto Sans CJK SC', 'Microsoft YaHei', 'SimHei', 'DejaVu Sans', sans-serif; text-anchor: start; fill: #111111" x="142.848" y="170.705306" transform="rotate(-0 142.848 170.705306)">DofCodingInfo, 单元刚度矩阵 Ke</text>
   </g>
   <g id="text_5">
    <text style="font-weight: 700; font-size: 10.2px; font-family: 'PingFang SC', 'Hiragino Sans GB', 'Heiti SC', 'Arial Unicode MS', 'Noto Sans CJK SC', 'Microsoft YaHei', 'SimHei', 'DejaVu Sans', sans-serif; text-anchor: middle; fill: #1f6feb" x="94.464" y="194.155163" transform="rotate(-0 94.464 194.155163)">1</text>
   </g>
   <g id="text_6">
    <text style="font-weight: 700; font-size: 13.5px; font-family: 'PingFang SC', 'Hiragino Sans GB', 'Heiti SC', 'Arial Unicode MS', 'Noto Sans CJK SC', 'Microsoft YaHei', 'SimHei', 'DejaVu Sans', sans-serif; text-anchor: start; fill: #111111" x="142.848" y="195.117061" transform="rotate(-0 142.848 195.117061)">symbolic(info)</text>
   </g>
   <g id="text_7">
    <text style="font-size: 12.2px; font-family: 'PingFang SC', 'Hiragino Sans GB', 'Heiti SC', 'Arial Unicode MS', 'Noto Sans CJK SC', 'Microsoft YaHei', 'SimHei', 'DejaVu Sans', sans-serif; text-anchor: start; fill: #4f565c" x="154.8288" y="217.526637" transform="rotate(-0 154.8288 217.526637)">• 检查节点、自由度编号和输入合法性</text>
   </g>
   <g id="text_8">
    <text style="font-size: 12.2px; font-family: 'PingFang SC', 'Hiragino Sans GB', 'Heiti SC', 'Arial Unicode MS', 'Noto Sans CJK SC', 'Microsoft YaHei', 'SimHei', 'DejaVu Sans', sans-serif; text-anchor: start; fill: #4f565c" x="154.8288" y="236.707438" transform="rotate(-0 154.8288 236.707438)">• 按单元收集整体矩阵会出现的位置</text>
   </g>
   <g id="text_9">
    <text style="font-size: 12.2px; font-family: 'PingFang SC', 'Hiragino Sans GB', 'Heiti SC', 'Arial Unicode MS', 'Noto Sans CJK SC', 'Microsoft YaHei', 'SimHei', 'DejaVu Sans', sans-serif; text-anchor: start; fill: #4f565c" x="154.8288" y="255.888238" transform="rotate(-0 154.8288 255.888238)">• 只保留对称矩阵的上三角位置</text>
   </g>
   <g id="text_10">
    <text style="font-weight: 700; font-size: 10.2px; font-family: 'PingFang SC', 'Hiragino Sans GB', 'Heiti SC', 'Arial Unicode MS', 'Noto Sans CJK SC', 'Microsoft YaHei', 'SimHei', 'DejaVu Sans', sans-serif; text-anchor: middle; fill: #1f6feb" x="94.464" y="274.507163" transform="rotate(-0 94.464 274.507163)">2</text>
   </g>
   <g id="text_11">
    <text style="font-weight: 700; font-size: 13.5px; font-family: 'PingFang SC', 'Hiragino Sans GB', 'Heiti SC', 'Arial Unicode MS', 'Noto Sans CJK SC', 'Microsoft YaHei', 'SimHei', 'DejaVu Sans', sans-serif; text-anchor: start; fill: #111111" x="142.848" y="275.434256" transform="rotate(-0 142.848 275.434256)">生成 CSC3 和 scatter</text>
   </g>
   <g id="text_12">
    <text style="font-size: 12.2px; font-family: 'PingFang SC', 'Hiragino Sans GB', 'Heiti SC', 'Arial Unicode MS', 'Noto Sans CJK SC', 'Microsoft YaHei', 'SimHei', 'DejaVu Sans', sans-serif; text-anchor: start; fill: #4f565c" x="154.8288" y="297.976809" transform="rotate(-0 154.8288 297.976809)">• CSC3 = col_ptr / row_idx / values</text>
   </g>
   <g id="text_13">
    <text style="font-size: 12.2px; font-family: 'PingFang SC', 'Hiragino Sans GB', 'Heiti SC', 'Arial Unicode MS', 'Noto Sans CJK SC', 'Microsoft YaHei', 'SimHei', 'DejaVu Sans', sans-serif; text-anchor: start; fill: #4f565c" x="154.8288" y="317.059438" transform="rotate(-0 154.8288 317.059438)">• scatter: 单元局部项 -&gt; values 下标</text>
   </g>
   <g id="text_14">
    <text style="font-weight: 700; font-size: 10.2px; font-family: 'PingFang SC', 'Hiragino Sans GB', 'Heiti SC', 'Arial Unicode MS', 'Noto Sans CJK SC', 'Microsoft YaHei', 'SimHei', 'DejaVu Sans', sans-serif; text-anchor: middle; fill: #1f6feb" x="94.464" y="335.678362" transform="rotate(-0 94.464 335.678362)">3</text>
   </g>
   <g id="text_15">
    <text style="font-weight: 700; font-size: 13.5px; font-family: 'PingFang SC', 'Hiragino Sans GB', 'Heiti SC', 'Arial Unicode MS', 'Noto Sans CJK SC', 'Microsoft YaHei', 'SimHei', 'DejaVu Sans', sans-serif; text-anchor: start; fill: #111111" x="142.848" y="336.686667" transform="rotate(-0 142.848 336.686667)">add_parallel(Ke, threads)</text>
   </g>
   <g id="text_16">
    <text style="font-size: 12.2px; font-family: 'PingFang SC', 'Hiragino Sans GB', 'Heiti SC', 'Arial Unicode MS', 'Noto Sans CJK SC', 'Microsoft YaHei', 'SimHei', 'DejaVu Sans', sans-serif; text-anchor: start; fill: #4f565c" x="154.8288" y="359.049837" transform="rotate(-0 154.8288 359.049837)">• 并行遍历所有单元</text>
   </g>
   <g id="text_17">
    <text style="font-size: 12.2px; font-family: 'PingFang SC', 'Hiragino Sans GB', 'Heiti SC', 'Arial Unicode MS', 'Noto Sans CJK SC', 'Microsoft YaHei', 'SimHei', 'DejaVu Sans', sans-serif; text-anchor: start; fill: #4f565c" x="154.8288" y="378.700528" transform="rotate(-0 154.8288 378.700528)">• p = scatter[局部项]</text>
   </g>
   <g id="text_18">
    <text style="font-size: 12.2px; font-family: 'PingFang SC', 'Hiragino Sans GB', 'Heiti SC', 'Arial Unicode MS', 'Noto Sans CJK SC', 'Microsoft YaHei', 'SimHei', 'DejaVu Sans', sans-serif; text-anchor: start; fill: #4f565c" x="154.8288" y="397.3695" transform="rotate(-0 154.8288 397.3695)">• atomic  values[p] += Ke[i, j]</text>
   </g>
   <g id="text_19">
    <text style="font-weight: 700; font-size: 10.2px; font-family: 'PingFang SC', 'Hiragino Sans GB', 'Heiti SC', 'Arial Unicode MS', 'Noto Sans CJK SC', 'Microsoft YaHei', 'SimHei', 'DejaVu Sans', sans-serif; text-anchor: middle; fill: #76b900" x="103.68" y="416.030362" transform="rotate(-0 103.68 416.030362)">输出</text>
   </g>
   <g id="text_20">
    <text style="font-weight: 700; font-size: 13.5px; font-family: 'PingFang SC', 'Hiragino Sans GB', 'Heiti SC', 'Arial Unicode MS', 'Noto Sans CJK SC', 'Microsoft YaHei', 'SimHei', 'DejaVu Sans', sans-serif; text-anchor: start; fill: #111111" x="142.848" y="416.957456" transform="rotate(-0 142.848 416.957456)">整体刚度矩阵 K</text>
   </g>
   <g id="text_21">
    <text style="font-weight: 700; font-size: 14.2px; font-family: 'PingFang SC', 'Hiragino Sans GB', 'Heiti SC', 'Arial Unicode MS', 'Noto Sans CJK SC', 'Microsoft YaHei', 'SimHei', 'DejaVu Sans', sans-serif; text-anchor: start; fill: #f06a00" x="631.296" y="136.181312" transform="rotate(-0 631.296 136.181312)">输入信息</text>
   </g>
   <g id="text_22">
    <text style="font-size: 11.8px; font-family: 'PingFang SC', 'Hiragino Sans GB', 'Heiti SC', 'Arial Unicode MS', 'Noto Sans CJK SC', 'Microsoft YaHei', 'SimHei', 'DejaVu Sans', sans-serif; text-anchor: start; fill: #111111" x="631.296" y="159.374063" transform="rotate(-0 631.296 159.374063)">单元连接关系</text>
   </g>
   <g id="text_23">
    <text style="font-size: 11.8px; font-family: 'PingFang SC', 'Hiragino Sans GB', 'Heiti SC', 'Arial Unicode MS', 'Noto Sans CJK SC', 'Microsoft YaHei', 'SimHei', 'DejaVu Sans', sans-serif; text-anchor: start; fill: #111111" x="631.296" y="174.926063" transform="rotate(-0 631.296 174.926063)">节点自由度编号</text>
   </g>
   <g id="text_24">
    <text style="font-weight: 700; font-size: 14.2px; font-family: 'PingFang SC', 'Hiragino Sans GB', 'Heiti SC', 'Arial Unicode MS', 'Noto Sans CJK SC', 'Microsoft YaHei', 'SimHei', 'DejaVu Sans', sans-serif; text-anchor: start; fill: #1f6feb" x="631.296" y="250.229312" transform="rotate(-0 631.296 250.229312)">确定矩阵位置</text>
   </g>
   <g id="text_25">
    <text style="font-size: 11.8px; font-family: 'PingFang SC', 'Hiragino Sans GB', 'Heiti SC', 'Arial Unicode MS', 'Noto Sans CJK SC', 'Microsoft YaHei', 'SimHei', 'DejaVu Sans', sans-serif; text-anchor: start; fill: #111111" x="631.296" y="273.422062" transform="rotate(-0 631.296 273.422062)">生成上三角 CSC3</text>
   </g>
   <g id="text_26">
    <text style="font-size: 11.8px; font-family: 'PingFang SC', 'Hiragino Sans GB', 'Heiti SC', 'Arial Unicode MS', 'Noto Sans CJK SC', 'Microsoft YaHei', 'SimHei', 'DejaVu Sans', sans-serif; text-anchor: start; fill: #111111" x="631.296" y="288.974062" transform="rotate(-0 631.296 288.974062)">生成 scatter 写入地址</text>
   </g>
   <g id="text_27">
    <text style="font-weight: 700; font-size: 14.2px; font-family: 'PingFang SC', 'Hiragino Sans GB', 'Heiti SC', 'Arial Unicode MS', 'Noto Sans CJK SC', 'Microsoft YaHei', 'SimHei', 'DejaVu Sans', sans-serif; text-anchor: start; fill: #76b900" x="631.296" y="369.461313" transform="rotate(-0 631.296 369.461313)">并行填数值</text>
   </g>
   <g id="text_28">
    <text style="font-size: 11.8px; font-family: 'PingFang SC', 'Hiragino Sans GB', 'Heiti SC', 'Arial Unicode MS', 'Noto Sans CJK SC', 'Microsoft YaHei', 'SimHei', 'DejaVu Sans', sans-serif; text-anchor: start; fill: #111111" x="631.296" y="392.654063" transform="rotate(-0 631.296 392.654063)">atomic 写入 values</text>
   </g>
   <g id="text_29">
    <text style="font-size: 11.8px; font-family: 'PingFang SC', 'Hiragino Sans GB', 'Heiti SC', 'Arial Unicode MS', 'Noto Sans CJK SC', 'Microsoft YaHei', 'SimHei', 'DejaVu Sans', sans-serif; text-anchor: start; fill: #111111" x="631.296" y="408.206063" transform="rotate(-0 631.296 408.206063)">得到整体刚度矩阵 K</text>
   </g>
   <g id="patch_29">
    <path d="M 737.28 199.584 
Q 737.28 212.544 737.28 223.715146 
" style="fill: none; stroke: #5a6268; stroke-width: 1.6; stroke-linecap: round"/>
    <path d="M 739.28 219.715146 
L 737.28 223.715146 
L 735.28 219.715146 
z
" style="fill: #5a6268; stroke: #5a6268; stroke-width: 1.6; stroke-linecap: round"/>
   </g>
   <g id="patch_30">
    <path d="M 737.28 318.816 
Q 737.28 331.776 737.28 342.947146 
" style="fill: none; stroke: #5a6268; stroke-width: 1.6; stroke-linecap: round"/>
    <path d="M 739.28 338.947146 
L 737.28 342.947146 
L 735.28 338.947146 
z
" style="fill: #5a6268; stroke: #5a6268; stroke-width: 1.6; stroke-linecap: round"/>
   </g>
   <g id="text_30">
    <text style="font-weight: 700; font-size: 12.5px; font-family: 'PingFang SC', 'Hiragino Sans GB', 'Heiti SC', 'Arial Unicode MS', 'Noto Sans CJK SC', 'Microsoft YaHei', 'SimHei', 'DejaVu Sans', sans-serif; text-anchor: start; fill: #111111" x="70.9632" y="467.479719" transform="rotate(-0 70.9632 467.479719)">验证闭环</text>
   </g>
   <g id="text_31">
    <text style="font-size: 12.2px; font-family: 'PingFang SC', 'Hiragino Sans GB', 'Heiti SC', 'Arial Unicode MS', 'Noto Sans CJK SC', 'Microsoft YaHei', 'SimHei', 'DejaVu Sans', sans-serif; text-anchor: start; fill: #4f565c" x="152.064" y="467.395437" transform="rotate(-0 152.064 467.395437)">手算样例  ·  乱序自由度  ·  高冲突并行  ·  错误输入拦截</text>
   </g>
  </g>
  <g id="text_32">
   <text style="font-weight: 700; font-size: 25px; font-family: 'PingFang SC', 'Hiragino Sans GB', 'Heiti SC', 'Arial Unicode MS', 'Noto Sans CJK SC', 'Microsoft YaHei', 'SimHei', 'DejaVu Sans', sans-serif; text-anchor: start; fill: #111111" x="50.688" y="53.679438" transform="rotate(-0 50.688 53.679438)">C++ Demo 逻辑示意</text>
  </g>
  <g id="text_33">
   <text style="font-size: 16.5px; font-family: 'PingFang SC', 'Hiragino Sans GB', 'Heiti SC', 'Arial Unicode MS', 'Noto Sans CJK SC', 'Microsoft YaHei', 'SimHei', 'DejaVu Sans', sans-serif; text-anchor: start; fill: #4f565c" x="50.688" y="82.395469" transform="rotate(-0 50.688 82.395469)">从网格连接关系和自由度编号出发，先确定矩阵位置，再并行填入单元贡献</text>
  </g>
 </g>
 <defs>
  <clipPath id="pd4231197be">
   <rect x="0" y="0" width="921.6" height="518.4"/>
  </clipPath>
 </defs>
</svg>
