<?xml version="1.0" encoding="utf-8" standalone="no"?>
<!DOCTYPE svg PUBLIC "-//W3C//DTD SVG 1.1//EN"
  "http://www.w3.org/Graphics/SVG/1.1/DTD/svg11.dtd">
<svg xmlns:xlink="http://www.w3.org/1999/xlink" width="949.439376pt" height="523.695156pt" viewBox="0 0 949.439376 523.695156" xmlns="http://www.w3.org/2000/svg" version="1.1">
 <metadata>
  <rdf:RDF xmlns:dc="http://purl.org/dc/elements/1.1/" xmlns:cc="http://creativecommons.org/ns#" xmlns:rdf="http://www.w3.org/1999/02/22-rdf-syntax-ns#">
   <cc:Work>
    <dc:type rdf:resource="http://purl.org/dc/dcmitype/StillImage"/>
    <dc:date>2026-05-14T12:22:48.057940</dc:date>
    <dc:format>image/svg+xml</dc:format>
    <dc:creator>
     <cc:Agent>
      <dc:title>Matplotlib v3.9.4, https://matplotlib.org/</dc:title>
     </cc:Agent>
    </dc:creator>
   </cc:Work>
  </rdf:RDF>
 </metadata>
 <defs>
  <style type="text/css">*{stroke-linejoin: round; stroke-linecap: butt}</style>
 </defs>
 <g id="figure_1">
  <g id="patch_1">
   <path d="M 0 523.695156 
L 949.439376 523.695156 
L 949.439376 0 
L 0 0 
z
" style="fill: #fbfbf8"/>
  </g>
  <g id="axes_1">
   <g id="patch_2">
    <path d="M 46.42 484.54 
L 922.524822 484.54 
L 922.524822 133.5 
L 46.42 133.5 
z
" style="fill: #ffffff"/>
   </g>
   <g id="matplotlib.axis_1">
    <g id="xtick_1">
     <g id="line2d_1">
      <path d="M 147.509018 484.54 
L 147.509018 133.5 
" clip-path="url(#p9e34c1d460)" style="fill: none; stroke: #d6dde8; stroke-opacity: 0.55; stroke-width: 0.8; stroke-linecap: square"/>
     </g>
     <g id="line2d_2">
      <defs>
       <path id="m38934b5bd3" d="M 0 0 
L 0 3.5 
" style="stroke: #111827; stroke-width: 0.8"/>
      </defs>
      <g>
       <use xlink:href="#m38934b5bd3" x="147.509018" y="484.54" style="fill: #111827; stroke: #111827; stroke-width: 0.8"/>
      </g>
     </g>
     <g id="text_1">
      <text style="fill: #111827; font: 11px 'Inter', 'Aptos', 'Helvetica Neue', 'Arial', 'DejaVu Sans', sans-serif; text-anchor: middle" x="147.509018" y="499.394687" transform="rotate(-0 147.509018 499.394687)">2</text>
     </g>
    </g>
    <g id="xtick_2">
     <g id="line2d_3">
      <path d="M 270.041161 484.54 
L 270.041161 133.5 
" clip-path="url(#p9e34c1d460)" style="fill: none; stroke: #d6dde8; stroke-opacity: 0.55; stroke-width: 0.8; stroke-linecap: square"/>
     </g>
     <g id="line2d_4">
      <g>
       <use xlink:href="#m38934b5bd3" x="270.041161" y="484.54" style="fill: #111827; stroke: #111827; stroke-width: 0.8"/>
      </g>
     </g>
     <g id="text_2">
      <text style="fill: #111827; font: 11px 'Inter', 'Aptos', 'Helvetica Neue', 'Arial', 'DejaVu Sans', sans-serif; text-anchor: middle" x="270.041161" y="499.394687" transform="rotate(-0 270.041161 499.394687)">4</text>
     </g>
    </g>
    <g id="xtick_3">
     <g id="line2d_5">
      <path d="M 392.573304 484.54 
L 392.573304 133.5 
" clip-path="url(#p9e34c1d460)" style="fill: none; stroke: #d6dde8; stroke-opacity: 0.55; stroke-width: 0.8; stroke-linecap: square"/>
     </g>
     <g id="line2d_6">
      <g>
       <use xlink:href="#m38934b5bd3" x="392.573304" y="484.54" style="fill: #111827; stroke: #111827; stroke-width: 0.8"/>
      </g>
     </g>
     <g id="text_3">
      <text style="fill: #111827; font: 11px 'Inter', 'Aptos', 'Helvetica Neue', 'Arial', 'DejaVu Sans', sans-serif; text-anchor: middle" x="392.573304" y="499.394687" transform="rotate(-0 392.573304 499.394687)">6</text>
     </g>
    </g>
    <g id="xtick_4">
     <g id="line2d_7">
      <path d="M 515.105447 484.54 
L 515.105447 133.5 
" clip-path="url(#p9e34c1d460)" style="fill: none; stroke: #d6dde8; stroke-opacity: 0.55; stroke-width: 0.8; stroke-linecap: square"/>
     </g>
     <g id="line2d_8">
      <g>
       <use xlink:href="#m38934b5bd3" x="515.105447" y="484.54" style="fill: #111827; stroke: #111827; stroke-width: 0.8"/>
      </g>
     </g>
     <g id="text_4">
      <text style="fill: #111827; font: 11px 'Inter', 'Aptos', 'Helvetica Neue', 'Arial', 'DejaVu Sans', sans-serif; text-anchor: middle" x="515.105447" y="499.394687" transform="rotate(-0 515.105447 499.394687)">8</text>
     </g>
    </g>
    <g id="xtick_5">
     <g id="line2d_9">
      <path d="M 637.63759 484.54 
L 637.63759 133.5 
" clip-path="url(#p9e34c1d460)" style="fill: none; stroke: #d6dde8; stroke-opacity: 0.55; stroke-width: 0.8; stroke-linecap: square"/>
     </g>
     <g id="line2d_10">
      <g>
       <use xlink:href="#m38934b5bd3" x="637.63759" y="484.54" style="fill: #111827; stroke: #111827; stroke-width: 0.8"/>
      </g>
     </g>
     <g id="text_5">
      <text style="fill: #111827; font: 11px 'Inter', 'Aptos', 'Helvetica Neue', 'Arial', 'DejaVu Sans', sans-serif; text-anchor: middle" x="637.63759" y="499.394687" transform="rotate(-0 637.63759 499.394687)">10</text>
     </g>
    </g>
    <g id="xtick_6">
     <g id="line2d_11">
      <path d="M 760.169733 484.54 
L 760.169733 133.5 
" clip-path="url(#p9e34c1d460)" style="fill: none; stroke: #d6dde8; stroke-opacity: 0.55; stroke-width: 0.8; stroke-linecap: square"/>
     </g>
     <g id="line2d_12">
      <g>
       <use xlink:href="#m38934b5bd3" x="760.169733" y="484.54" style="fill: #111827; stroke: #111827; stroke-width: 0.8"/>
      </g>
     </g>
     <g id="text_6">
      <text style="fill: #111827; font: 11px 'Inter', 'Aptos', 'Helvetica Neue', 'Arial', 'DejaVu Sans', sans-serif; text-anchor: middle" x="760.169733" y="499.394687" transform="rotate(-0 760.169733 499.394687)">12</text>
     </g>
    </g>
    <g id="xtick_7">
     <g id="line2d_13">
      <path d="M 882.701876 484.54 
L 882.701876 133.5 
" clip-path="url(#p9e34c1d460)" style="fill: none; stroke: #d6dde8; stroke-opacity: 0.55; stroke-width: 0.8; stroke-linecap: square"/>
     </g>
     <g id="line2d_14">
      <g>
       <use xlink:href="#m38934b5bd3" x="882.701876" y="484.54" style="fill: #111827; stroke: #111827; stroke-width: 0.8"/>
      </g>
     </g>
     <g id="text_7">
      <text style="fill: #111827; font: 11px 'Inter', 'Aptos', 'Helvetica Neue', 'Arial', 'DejaVu Sans', sans-serif; text-anchor: middle" x="882.701876" y="499.394687" transform="rotate(-0 882.701876 499.394687)">14</text>
     </g>
    </g>
    <g id="text_8">
     <text style="fill: #111827; font: 12px 'Inter', 'Aptos', 'Helvetica Neue', 'Arial', 'DejaVu Sans', sans-serif; text-anchor: middle" x="484.472411" y="514.130781" transform="rotate(-0 484.472411 514.130781)">Threads</text>
    </g>
   </g>
   <g id="matplotlib.axis_2">
    <g id="ytick_1">
     <g id="line2d_15">
      <path d="M 46.42 483.912038 
L 922.524822 483.912038 
" clip-path="url(#p9e34c1d460)" style="fill: none; stroke: #d6dde8; stroke-opacity: 0.55; stroke-width: 0.8; stroke-linecap: square"/>
     </g>
     <g id="line2d_16">
      <defs>
       <path id="m5d6c2ebeb7" d="M 0 0 
L -3.5 0 
" style="stroke: #111827; stroke-width: 0.8"/>
      </defs>
      <g>
       <use xlink:href="#m5d6c2ebeb7" x="46.42" y="483.912038" style="fill: #111827; stroke: #111827; stroke-width: 0.8"/>
      </g>
     </g>
     <g id="text_9">
      <!-- $\mathdefault{10^{2}}$ -->
      <g style="fill: #111827" transform="translate(22.48 487.839382)">
       <text>
        <tspan style="font: 11px 'Helvetica Neue'" x="0 6.115997" y="-0.5609375000000014">10</tspan>
        <tspan style="font: 7.7px 'Helvetica Neue'" x="12.331526" y="-4.542187500000001">2</tspan>
       </text>
      </g>
     </g>
    </g>
    <g id="ytick_2">
     <g id="line2d_17">
      <path d="M 46.42 286.399722 
L 922.524822 286.399722 
" clip-path="url(#p9e34c1d460)" style="fill: none; stroke: #d6dde8; stroke-opacity: 0.55; stroke-width: 0.8; stroke-linecap: square"/>
     </g>
     <g id="line2d_18">
      <g>
       <use xlink:href="#m5d6c2ebeb7" x="46.42" y="286.399722" style="fill: #111827; stroke: #111827; stroke-width: 0.8"/>
      </g>
     </g>
     <g id="text_10">
      <!-- $\mathdefault{10^{3}}$ -->
      <g style="fill: #111827" transform="translate(22.48 290.327066)">
       <text>
        <tspan style="font: 11px 'Helvetica Neue'" x="0 6.115997" y="-0.5609375000000014">10</tspan>
        <tspan style="font: 7.7px 'Helvetica Neue'" x="12.331526" y="-4.542187500000001">3</tspan>
       </text>
      </g>
     </g>
    </g>
    <g id="ytick_3">
     <g id="line2d_19">
      <defs>
       <path id="m039771a6a1" d="M 0 0 
L -2 0 
" style="stroke: #111827; stroke-width: 0.6"/>
      </defs>
      <g>
       <use xlink:href="#m039771a6a1" x="46.42" y="424.454907" style="fill: #111827; stroke: #111827; stroke-width: 0.6"/>
      </g>
     </g>
    </g>
    <g id="ytick_4">
     <g id="line2d_20">
      <g>
       <use xlink:href="#m039771a6a1" x="46.42" y="389.674714" style="fill: #111827; stroke: #111827; stroke-width: 0.6"/>
      </g>
     </g>
    </g>
    <g id="ytick_5">
     <g id="line2d_21">
      <g>
       <use xlink:href="#m039771a6a1" x="46.42" y="364.997775" style="fill: #111827; stroke: #111827; stroke-width: 0.6"/>
      </g>
     </g>
    </g>
    <g id="ytick_6">
     <g id="line2d_22">
      <g>
       <use xlink:href="#m039771a6a1" x="46.42" y="345.856854" style="fill: #111827; stroke: #111827; stroke-width: 0.6"/>
      </g>
     </g>
    </g>
    <g id="ytick_7">
     <g id="line2d_23">
      <g>
       <use xlink:href="#m039771a6a1" x="46.42" y="330.217582" style="fill: #111827; stroke: #111827; stroke-width: 0.6"/>
      </g>
     </g>
    </g>
    <g id="ytick_8">
     <g id="line2d_24">
      <g>
       <use xlink:href="#m039771a6a1" x="46.42" y="316.994767" style="fill: #111827; stroke: #111827; stroke-width: 0.6"/>
      </g>
     </g>
    </g>
    <g id="ytick_9">
     <g id="line2d_25">
      <g>
       <use xlink:href="#m039771a6a1" x="46.42" y="305.540643" style="fill: #111827; stroke: #111827; stroke-width: 0.6"/>
      </g>
     </g>
    </g>
    <g id="ytick_10">
     <g id="line2d_26">
      <g>
       <use xlink:href="#m039771a6a1" x="46.42" y="295.43739" style="fill: #111827; stroke: #111827; stroke-width: 0.6"/>
      </g>
     </g>
    </g>
    <g id="ytick_11">
     <g id="line2d_27">
      <g>
       <use xlink:href="#m039771a6a1" x="46.42" y="226.94259" style="fill: #111827; stroke: #111827; stroke-width: 0.6"/>
      </g>
     </g>
    </g>
    <g id="ytick_12">
     <g id="line2d_28">
      <g>
       <use xlink:href="#m039771a6a1" x="46.42" y="192.162398" style="fill: #111827; stroke: #111827; stroke-width: 0.6"/>
      </g>
     </g>
    </g>
    <g id="ytick_13">
     <g id="line2d_29">
      <g>
       <use xlink:href="#m039771a6a1" x="46.42" y="167.485458" style="fill: #111827; stroke: #111827; stroke-width: 0.6"/>
      </g>
     </g>
    </g>
    <g id="ytick_14">
     <g id="line2d_30">
      <g>
       <use xlink:href="#m039771a6a1" x="46.42" y="148.344537" style="fill: #111827; stroke: #111827; stroke-width: 0.6"/>
      </g>
     </g>
    </g>
    <g id="text_11">
     <text style="fill: #111827; font: 12px 'Inter', 'Aptos', 'Helvetica Neue', 'Arial', 'DejaVu Sans', sans-serif; text-anchor: middle" x="15.97125" y="309.02" transform="rotate(-90 15.97125 309.02)">Assembly time (ms, log)</text>
    </g>
   </g>
   <g id="line2d_31">
    <path d="M 86.242946 336.089811 
" clip-path="url(#p9e34c1d460)" style="fill: none; stroke: #475569; stroke-width: 3; stroke-linecap: square"/>
    <defs>
     <path id="mfacab61d58" d="M 0 3.75 
C 0.994512 3.75 1.948425 3.354876 2.65165 2.65165 
C 3.354876 1.948425 3.75 0.994512 3.75 0 
C 3.75 -0.994512 3.354876 -1.948425 2.65165 -2.65165 
C 1.948425 -3.354876 0.994512 -3.75 0 -3.75 
C -0.994512 -3.75 -1.948425 -3.354876 -2.65165 -2.65165 
C -3.354876 -1.948425 -3.75 -0.994512 -3.75 0 
C -3.75 0.994512 -3.354876 1.948425 -2.65165 2.65165 
C -1.948425 3.354876 -0.994512 3.75 0 3.75 
z
" style="stroke: #475569"/>
    </defs>
    <g clip-path="url(#p9e34c1d460)">
     <use xlink:href="#mfacab61d58" x="86.242946" y="336.089811" style="fill: #475569; stroke: #475569"/>
    </g>
   </g>
   <g id="line2d_32">
    <path d="M 86.242946 312.394045 
L 147.509018 365.014749 
L 270.041161 411.655109 
L 515.105447 449.646102 
L 882.701876 466.033398 
" clip-path="url(#p9e34c1d460)" style="fill: none; stroke: #2563eb; stroke-width: 3; stroke-linecap: square"/>
    <defs>
     <path id="m1022e84478" d="M 0 3.75 
C 0.994512 3.75 1.948425 3.354876 2.65165 2.65165 
C 3.354876 1.948425 3.75 0.994512 3.75 0 
C 3.75 -0.994512 3.354876 -1.948425 2.65165 -2.65165 
C 1.948425 -3.354876 0.994512 -3.75 0 -3.75 
C -0.994512 -3.75 -1.948425 -3.354876 -2.65165 -2.65165 
C -3.354876 -1.948425 -3.75 -0.994512 -3.75 0 
C -3.75 0.994512 -3.354876 1.948425 -2.65165 2.65165 
C -1.948425 3.354876 -0.994512 3.75 0 3.75 
z
" style="stroke: #2563eb"/>
    </defs>
    <g clip-path="url(#p9e34c1d460)">
     <use xlink:href="#m1022e84478" x="86.242946" y="312.394045" style="fill: #2563eb; stroke: #2563eb"/>
     <use xlink:href="#m1022e84478" x="147.509018" y="365.014749" style="fill: #2563eb; stroke: #2563eb"/>
     <use xlink:href="#m1022e84478" x="270.041161" y="411.655109" style="fill: #2563eb; stroke: #2563eb"/>
     <use xlink:href="#m1022e84478" x="515.105447" y="449.646102" style="fill: #2563eb; stroke: #2563eb"/>
     <use xlink:href="#m1022e84478" x="882.701876" y="466.033398" style="fill: #2563eb; stroke: #2563eb"/>
    </g>
   </g>
   <g id="line2d_33">
    <path d="M 86.242946 337.062709 
L 147.509018 387.169398 
L 270.041161 435.958847 
L 515.105447 468.583636 
L 882.701876 458.46446 
" clip-path="url(#p9e34c1d460)" style="fill: none; stroke: #0f766e; stroke-width: 3; stroke-linecap: square"/>
    <defs>
     <path id="ma907d5841c" d="M 0 3.75 
C 0.994512 3.75 1.948425 3.354876 2.65165 2.65165 
C 3.354876 1.948425 3.75 0.994512 3.75 0 
C 3.75 -0.994512 3.354876 -1.948425 2.65165 -2.65165 
C 1.948425 -3.354876 0.994512 -3.75 0 -3.75 
C -0.994512 -3.75 -1.948425 -3.354876 -2.65165 -2.65165 
C -3.354876 -1.948425 -3.75 -0.994512 -3.75 0 
C -3.75 0.994512 -3.354876 1.948425 -2.65165 2.65165 
C -1.948425 3.354876 -0.994512 3.75 0 3.75 
z
" style="stroke: #0f766e"/>
    </defs>
    <g clip-path="url(#p9e34c1d460)">
     <use xlink:href="#ma907d5841c" x="86.242946" y="337.062709" style="fill: #0f766e; stroke: #0f766e"/>
     <use xlink:href="#ma907d5841c" x="147.509018" y="387.169398" style="fill: #0f766e; stroke: #0f766e"/>
     <use xlink:href="#ma907d5841c" x="270.041161" y="435.958847" style="fill: #0f766e; stroke: #0f766e"/>
     <use xlink:href="#ma907d5841c" x="515.105447" y="468.583636" style="fill: #0f766e; stroke: #0f766e"/>
     <use xlink:href="#ma907d5841c" x="882.701876" y="458.46446" style="fill: #0f766e; stroke: #0f766e"/>
    </g>
   </g>
   <g id="line2d_34">
    <path d="M 86.242946 149.456364 
L 147.509018 154.0243 
L 270.041161 160.667384 
" clip-path="url(#p9e34c1d460)" style="fill: none; stroke: #f97316; stroke-width: 3; stroke-linecap: square"/>
    <defs>
     <path id="m57ae137347" d="M 0 3.75 
C 0.994512 3.75 1.948425 3.354876 2.65165 2.65165 
C 3.354876 1.948425 3.75 0.994512 3.75 0 
C 3.75 -0.994512 3.354876 -1.948425 2.65165 -2.65165 
C 1.948425 -3.354876 0.994512 -3.75 0 -3.75 
C -0.994512 -3.75 -1.948425 -3.354876 -2.65165 -2.65165 
C -3.354876 -1.948425 -3.75 -0.994512 -3.75 0 
C -3.75 0.994512 -3.354876 1.948425 -2.65165 2.65165 
C -1.948425 3.354876 -0.994512 3.75 0 3.75 
z
" style="stroke: #f97316"/>
    </defs>
    <g clip-path="url(#p9e34c1d460)">
     <use xlink:href="#m57ae137347" x="86.242946" y="149.456364" style="fill: #f97316; stroke: #f97316"/>
     <use xlink:href="#m57ae137347" x="147.509018" y="154.0243" style="fill: #f97316; stroke: #f97316"/>
     <use xlink:href="#m57ae137347" x="270.041161" y="160.667384" style="fill: #f97316; stroke: #f97316"/>
    </g>
   </g>
   <g id="line2d_35">
    <path d="M 86.242946 329.885634 
L 147.509018 381.679235 
L 270.041161 421.007512 
L 515.105447 467.955928 
L 882.701876 466.857545 
" clip-path="url(#p9e34c1d460)" style="fill: none; stroke: #16a34a; stroke-width: 3; stroke-linecap: square"/>
    <defs>
     <path id="mca02fc7bba" d="M 0 3.75 
C 0.994512 3.75 1.948425 3.354876 2.65165 2.65165 
C 3.354876 1.948425 3.75 0.994512 3.75 0 
C 3.75 -0.994512 3.354876 -1.948425 2.65165 -2.65165 
C 1.948425 -3.354876 0.994512 -3.75 0 -3.75 
C -0.994512 -3.75 -1.948425 -3.354876 -2.65165 -2.65165 
C -3.354876 -1.948425 -3.75 -0.994512 -3.75 0 
C -3.75 0.994512 -3.354876 1.948425 -2.65165 2.65165 
C -1.948425 3.354876 -0.994512 3.75 0 3.75 
z
" style="stroke: #16a34a"/>
    </defs>
    <g clip-path="url(#p9e34c1d460)">
     <use xlink:href="#mca02fc7bba" x="86.242946" y="329.885634" style="fill: #16a34a; stroke: #16a34a"/>
     <use xlink:href="#mca02fc7bba" x="147.509018" y="381.679235" style="fill: #16a34a; stroke: #16a34a"/>
     <use xlink:href="#mca02fc7bba" x="270.041161" y="421.007512" style="fill: #16a34a; stroke: #16a34a"/>
     <use xlink:href="#mca02fc7bba" x="515.105447" y="467.955928" style="fill: #16a34a; stroke: #16a34a"/>
     <use xlink:href="#mca02fc7bba" x="882.701876" y="466.857545" style="fill: #16a34a; stroke: #16a34a"/>
    </g>
   </g>
   <g id="line2d_36">
    <path d="M 86.242946 296.840948 
L 147.509018 344.340227 
L 270.041161 392.903751 
L 515.105447 447.101201 
L 882.701876 446.347147 
" clip-path="url(#p9e34c1d460)" style="fill: none; stroke: #7c3aed; stroke-width: 3; stroke-linecap: square"/>
    <defs>
     <path id="m1a8561349b" d="M 0 3.75 
C 0.994512 3.75 1.948425 3.354876 2.65165 2.65165 
C 3.354876 1.948425 3.75 0.994512 3.75 0 
C 3.75 -0.994512 3.354876 -1.948425 2.65165 -2.65165 
C 1.948425 -3.354876 0.994512 -3.75 0 -3.75 
C -0.994512 -3.75 -1.948425 -3.354876 -2.65165 -2.65165 
C -3.354876 -1.948425 -3.75 -0.994512 -3.75 0 
C -3.75 0.994512 -3.354876 1.948425 -2.65165 2.65165 
C -1.948425 3.354876 -0.994512 3.75 0 3.75 
z
" style="stroke: #7c3aed"/>
    </defs>
    <g clip-path="url(#p9e34c1d460)">
     <use xlink:href="#m1a8561349b" x="86.242946" y="296.840948" style="fill: #7c3aed; stroke: #7c3aed"/>
     <use xlink:href="#m1a8561349b" x="147.509018" y="344.340227" style="fill: #7c3aed; stroke: #7c3aed"/>
     <use xlink:href="#m1a8561349b" x="270.041161" y="392.903751" style="fill: #7c3aed; stroke: #7c3aed"/>
     <use xlink:href="#m1a8561349b" x="515.105447" y="447.101201" style="fill: #7c3aed; stroke: #7c3aed"/>
     <use xlink:href="#m1a8561349b" x="882.701876" y="446.347147" style="fill: #7c3aed; stroke: #7c3aed"/>
    </g>
   </g>
   <g id="patch_3">
    <path d="M 46.42 484.54 
L 46.42 133.5 
" style="fill: none; stroke: #cbd5e1; stroke-width: 0.8; stroke-linejoin: miter; stroke-linecap: square"/>
   </g>
   <g id="patch_4">
    <path d="M 46.42 484.54 
L 922.524822 484.54 
" style="fill: none; stroke: #cbd5e1; stroke-width: 0.8; stroke-linejoin: miter; stroke-linecap: square"/>
   </g>
   <g id="text_12">
    <text style="fill: #475569; font: 700 9.5px 'Inter', 'Aptos', 'Helvetica Neue', 'Arial', 'DejaVu Sans', sans-serif; text-anchor: start" x="94.242946" y="338.54571" transform="rotate(-0 94.242946 338.54571)">Serial</text>
   </g>
   <g id="text_13">
    <g id="patch_5">
     <path d="M 50.208493 329.249811 
L 122.2774 329.249811 
Q 124.4374 329.249811 124.4374 327.089811 
L 124.4374 318.889968 
Q 124.4374 316.729968 122.2774 316.729968 
L 50.208493 316.729968 
Q 48.048493 316.729968 48.048493 318.889968 
L 48.048493 327.089811 
Q 48.048493 329.249811 50.208493 329.249811 
z
" style="fill: #ffffff; opacity: 0.94; stroke: #d1d5db; stroke-linejoin: miter"/>
    </g>
    <text style="fill: #475569; font: 700 9px 'Inter', 'Aptos', 'Helvetica Neue', 'Arial', 'DejaVu Sans', sans-serif; text-anchor: middle" x="86.242946" y="325.31653" transform="rotate(-0 86.242946 325.31653)">best 560 ms @ 1T</text>
   </g>
   <g id="text_14">
    <text style="fill: #2563eb; font: 700 9.5px 'Inter', 'Aptos', 'Helvetica Neue', 'Arial', 'DejaVu Sans', sans-serif; text-anchor: start" x="890.701876" y="468.489296" transform="rotate(-0 890.701876 468.489296)">Atomic</text>
   </g>
   <g id="text_15">
    <g id="patch_6">
     <path d="M 844.165704 459.193398 
L 921.238048 459.193398 
Q 923.398048 459.193398 923.398048 457.033398 
L 923.398048 448.833554 
Q 923.398048 446.673554 921.238048 446.673554 
L 844.165704 446.673554 
Q 842.005704 446.673554 842.005704 448.833554 
L 842.005704 457.033398 
Q 842.005704 459.193398 844.165704 459.193398 
z
" style="fill: #ffffff; opacity: 0.94; stroke: #d1d5db; stroke-linejoin: miter"/>
    </g>
    <text style="fill: #2563eb; font: 700 9px 'Inter', 'Aptos', 'Helvetica Neue', 'Arial', 'DejaVu Sans', sans-serif; text-anchor: middle" x="882.701876" y="455.260117" transform="rotate(-0 882.701876 455.260117)">best 123 ms @ 14T</text>
   </g>
   <g id="text_16">
    <text style="fill: #0f766e; font: 700 9.5px 'Inter', 'Aptos', 'Helvetica Neue', 'Arial', 'DejaVu Sans', sans-serif; text-anchor: start" x="890.701876" y="460.920359" transform="rotate(-0 890.701876 460.920359)">Private CSR</text>
   </g>
   <g id="text_17">
    <g id="patch_7">
     <path d="M 479.070994 461.743636 
L 551.1399 461.743636 
Q 553.2999 461.743636 553.2999 459.583636 
L 553.2999 451.383793 
Q 553.2999 449.223793 551.1399 449.223793 
L 479.070994 449.223793 
Q 476.910994 449.223793 476.910994 451.383793 
L 476.910994 459.583636 
Q 476.910994 461.743636 479.070994 461.743636 
z
" style="fill: #ffffff; opacity: 0.94; stroke: #d1d5db; stroke-linejoin: miter"/>
    </g>
    <text style="fill: #0f766e; font: 700 9px 'Inter', 'Aptos', 'Helvetica Neue', 'Arial', 'DejaVu Sans', sans-serif; text-anchor: middle" x="515.105447" y="457.810355" transform="rotate(-0 515.105447 457.810355)">best 120 ms @ 8T</text>
   </g>
   <g id="text_18">
    <text style="fill: #f97316; font: 700 9.5px 'Inter', 'Aptos', 'Helvetica Neue', 'Arial', 'DejaVu Sans', sans-serif; text-anchor: start" x="278.041161" y="163.123282" transform="rotate(-0 278.041161 163.123282)">COO Sort-Reduce</text>
   </g>
   <g id="text_19">
    <g id="patch_8">
     <path d="M 231.504989 153.827384 
L 308.577333 153.827384 
Q 310.737333 153.827384 310.737333 151.667384 
L 310.737333 143.46754 
Q 310.737333 141.30754 308.577333 141.30754 
L 231.504989 141.30754 
Q 229.344989 141.30754 229.344989 143.46754 
L 229.344989 151.667384 
Q 229.344989 153.827384 231.504989 153.827384 
z
" style="fill: #ffffff; opacity: 0.94; stroke: #d1d5db; stroke-linejoin: miter"/>
    </g>
    <text style="fill: #f97316; font: 700 9px 'Inter', 'Aptos', 'Helvetica Neue', 'Arial', 'DejaVu Sans', sans-serif; text-anchor: middle" x="270.041161" y="149.894102" transform="rotate(-0 270.041161 149.894102)">best 4331 ms @ 4T</text>
   </g>
   <g id="text_20">
    <text style="fill: #16a34a; font: 700 9.5px 'Inter', 'Aptos', 'Helvetica Neue', 'Arial', 'DejaVu Sans', sans-serif; text-anchor: start" x="890.701876" y="469.313443" transform="rotate(-0 890.701876 469.313443)">Row Owner</text>
   </g>
   <g id="text_21">
    <g id="patch_9">
     <path d="M 479.070994 461.115928 
L 551.1399 461.115928 
Q 553.2999 461.115928 553.2999 458.955928 
L 553.2999 450.756084 
Q 553.2999 448.596084 551.1399 448.596084 
L 479.070994 448.596084 
Q 476.910994 448.596084 476.910994 450.756084 
L 476.910994 458.955928 
Q 476.910994 461.115928 479.070994 461.115928 
z
" style="fill: #ffffff; opacity: 0.94; stroke: #d1d5db; stroke-linejoin: miter"/>
    </g>
    <text style="fill: #16a34a; font: 700 9px 'Inter', 'Aptos', 'Helvetica Neue', 'Arial', 'DejaVu Sans', sans-serif; text-anchor: middle" x="515.105447" y="457.182647" transform="rotate(-0 515.105447 457.182647)">best 120 ms @ 8T</text>
   </g>
   <g id="text_22">
    <text style="fill: #7c3aed; font: 700 9.5px 'Inter', 'Aptos', 'Helvetica Neue', 'Arial', 'DejaVu Sans', sans-serif; text-anchor: start" x="890.701876" y="448.826053" transform="rotate(-0 890.701876 448.826053)">Coloring</text>
   </g>
   <g id="text_23">
    <g id="patch_10">
     <path d="M 479.070994 440.261201 
L 551.1399 440.261201 
Q 553.2999 440.261201 553.2999 438.101201 
L 553.2999 429.901357 
Q 553.2999 427.741357 551.1399 427.741357 
L 479.070994 427.741357 
Q 476.910994 427.741357 476.910994 429.901357 
L 476.910994 438.101201 
Q 476.910994 440.261201 479.070994 440.261201 
z
" style="fill: #ffffff; opacity: 0.94; stroke: #d1d5db; stroke-linejoin: miter"/>
    </g>
    <text style="fill: #7c3aed; font: 700 9px 'Inter', 'Aptos', 'Helvetica Neue', 'Arial', 'DejaVu Sans', sans-serif; text-anchor: middle" x="515.105447" y="436.327919" transform="rotate(-0 515.105447 436.327919)">best 154 ms @ 8T</text>
   </g>
   <g id="text_24">
    <text style="fill: #111827; font: 700 15px 'Inter', 'Aptos', 'Helvetica Neue', 'Arial', 'DejaVu Sans', sans-serif; text-anchor: start" x="46.42" y="121.5" transform="rotate(-0 46.42 121.5)">Assembly Time</text>
   </g>
  </g>
  <g id="text_25">
   <text style="fill: #111827; font: 700 23px 'Inter', 'Aptos', 'Helvetica Neue', 'Arial', 'DejaVu Sans', sans-serif; text-anchor: start" x="14.39355" y="25.276563" transform="rotate(-0 14.39355 25.276563)">Assembly Time: 3d-WindTurbineHub | kernel=physics_tet4</text>
  </g>
  <g id="text_26">
   <text style="fill: #64748b; font: 12.5px 'Inter', 'Aptos', 'Helvetica Neue', 'Arial', 'DejaVu Sans', sans-serif; text-anchor: start" x="14.39355" y="45.825781" transform="rotate(-0 14.39355 45.825781)">Best points are highlighted; raw values are unchanged.</text>
  </g>
 </g>
 <defs>
  <clipPath id="p9e34c1d460">
   <rect x="46.42" y="133.5" width="876.104822" height="351.04"/>
  </clipPath>
 </defs>
</svg>
