<?xml version="1.0" encoding="utf-8" standalone="no"?>
<!DOCTYPE svg PUBLIC "-//W3C//DTD SVG 1.1//EN"
  "http://www.w3.org/Graphics/SVG/1.1/DTD/svg11.dtd">
<svg xmlns:xlink="http://www.w3.org/1999/xlink" width="950.955351pt" height="523.695156pt" viewBox="0 0 950.955351 523.695156" xmlns="http://www.w3.org/2000/svg" version="1.1">
 <metadata>
  <rdf:RDF xmlns:dc="http://purl.org/dc/elements/1.1/" xmlns:cc="http://creativecommons.org/ns#" xmlns:rdf="http://www.w3.org/1999/02/22-rdf-syntax-ns#">
   <cc:Work>
    <dc:type rdf:resource="http://purl.org/dc/dcmitype/StillImage"/>
    <dc:date>2026-05-14T12:22:52.225000</dc:date>
    <dc:format>image/svg+xml</dc:format>
    <dc:creator>
     <cc:Agent>
      <dc:title>Matplotlib v3.9.4, https://matplotlib.org/</dc:title>
     </cc:Agent>
    </dc:creator>
   </cc:Work>
  </rdf:RDF>
 </metadata>
 <defs>
  <style type="text/css">*{stroke-linejoin: round; stroke-linecap: butt}</style>
 </defs>
 <g id="figure_1">
  <g id="patch_1">
   <path d="M 0 523.695156 
L 950.955351 523.695156 
L 950.955351 0 
L 0 0 
z
" style="fill: #fbfbf8"/>
  </g>
  <g id="axes_1">
   <g id="patch_2">
    <path d="M 44.623906 484.54 
L 896.341179 484.54 
L 896.341179 133.5 
L 44.623906 133.5 
z
" style="fill: #ffffff"/>
   </g>
   <g id="matplotlib.axis_1">
    <g id="xtick_1">
     <g id="line2d_1">
      <path d="M 142.898976 484.54 
L 142.898976 133.5 
" clip-path="url(#p3801013602)" style="fill: none; stroke: #d6dde8; stroke-opacity: 0.55; stroke-width: 0.8; stroke-linecap: square"/>
     </g>
     <g id="line2d_2">
      <defs>
       <path id="mc0642270b5" d="M 0 0 
L 0 3.5 
" style="stroke: #111827; stroke-width: 0.8"/>
      </defs>
      <g>
       <use xlink:href="#mc0642270b5" x="142.898976" y="484.54" style="fill: #111827; stroke: #111827; stroke-width: 0.8"/>
      </g>
     </g>
     <g id="text_1">
      <text style="fill: #111827; font: 11px 'Inter', 'Aptos', 'Helvetica Neue', 'Arial', 'DejaVu Sans', sans-serif; text-anchor: middle" x="142.898976" y="499.394687" transform="rotate(-0 142.898976 499.394687)">2</text>
     </g>
    </g>
    <g id="xtick_2">
     <g id="line2d_3">
      <path d="M 262.020273 484.54 
L 262.020273 133.5 
" clip-path="url(#p3801013602)" style="fill: none; stroke: #d6dde8; stroke-opacity: 0.55; stroke-width: 0.8; stroke-linecap: square"/>
     </g>
     <g id="line2d_4">
      <g>
       <use xlink:href="#mc0642270b5" x="262.020273" y="484.54" style="fill: #111827; stroke: #111827; stroke-width: 0.8"/>
      </g>
     </g>
     <g id="text_2">
      <text style="fill: #111827; font: 11px 'Inter', 'Aptos', 'Helvetica Neue', 'Arial', 'DejaVu Sans', sans-serif; text-anchor: middle" x="262.020273" y="499.394687" transform="rotate(-0 262.020273 499.394687)">4</text>
     </g>
    </g>
    <g id="xtick_3">
     <g id="line2d_5">
      <path d="M 381.14157 484.54 
L 381.14157 133.5 
" clip-path="url(#p3801013602)" style="fill: none; stroke: #d6dde8; stroke-opacity: 0.55; stroke-width: 0.8; stroke-linecap: square"/>
     </g>
     <g id="line2d_6">
      <g>
       <use xlink:href="#mc0642270b5" x="381.14157" y="484.54" style="fill: #111827; stroke: #111827; stroke-width: 0.8"/>
      </g>
     </g>
     <g id="text_3">
      <text style="fill: #111827; font: 11px 'Inter', 'Aptos', 'Helvetica Neue', 'Arial', 'DejaVu Sans', sans-serif; text-anchor: middle" x="381.14157" y="499.394687" transform="rotate(-0 381.14157 499.394687)">6</text>
     </g>
    </g>
    <g id="xtick_4">
     <g id="line2d_7">
      <path d="M 500.262867 484.54 
L 500.262867 133.5 
" clip-path="url(#p3801013602)" style="fill: none; stroke: #d6dde8; stroke-opacity: 0.55; stroke-width: 0.8; stroke-linecap: square"/>
     </g>
     <g id="line2d_8">
      <g>
       <use xlink:href="#mc0642270b5" x="500.262867" y="484.54" style="fill: #111827; stroke: #111827; stroke-width: 0.8"/>
      </g>
     </g>
     <g id="text_4">
      <text style="fill: #111827; font: 11px 'Inter', 'Aptos', 'Helvetica Neue', 'Arial', 'DejaVu Sans', sans-serif; text-anchor: middle" x="500.262867" y="499.394687" transform="rotate(-0 500.262867 499.394687)">8</text>
     </g>
    </g>
    <g id="xtick_5">
     <g id="line2d_9">
      <path d="M 619.384164 484.54 
L 619.384164 133.5 
" clip-path="url(#p3801013602)" style="fill: none; stroke: #d6dde8; stroke-opacity: 0.55; stroke-width: 0.8; stroke-linecap: square"/>
     </g>
     <g id="line2d_10">
      <g>
       <use xlink:href="#mc0642270b5" x="619.384164" y="484.54" style="fill: #111827; stroke: #111827; stroke-width: 0.8"/>
      </g>
     </g>
     <g id="text_5">
      <text style="fill: #111827; font: 11px 'Inter', 'Aptos', 'Helvetica Neue', 'Arial', 'DejaVu Sans', sans-serif; text-anchor: middle" x="619.384164" y="499.394687" transform="rotate(-0 619.384164 499.394687)">10</text>
     </g>
    </g>
    <g id="xtick_6">
     <g id="line2d_11">
      <path d="M 738.505461 484.54 
L 738.505461 133.5 
" clip-path="url(#p3801013602)" style="fill: none; stroke: #d6dde8; stroke-opacity: 0.55; stroke-width: 0.8; stroke-linecap: square"/>
     </g>
     <g id="line2d_12">
      <g>
       <use xlink:href="#mc0642270b5" x="738.505461" y="484.54" style="fill: #111827; stroke: #111827; stroke-width: 0.8"/>
      </g>
     </g>
     <g id="text_6">
      <text style="fill: #111827; font: 11px 'Inter', 'Aptos', 'Helvetica Neue', 'Arial', 'DejaVu Sans', sans-serif; text-anchor: middle" x="738.505461" y="499.394687" transform="rotate(-0 738.505461 499.394687)">12</text>
     </g>
    </g>
    <g id="xtick_7">
     <g id="line2d_13">
      <path d="M 857.626757 484.54 
L 857.626757 133.5 
" clip-path="url(#p3801013602)" style="fill: none; stroke: #d6dde8; stroke-opacity: 0.55; stroke-width: 0.8; stroke-linecap: square"/>
     </g>
     <g id="line2d_14">
      <g>
       <use xlink:href="#mc0642270b5" x="857.626757" y="484.54" style="fill: #111827; stroke: #111827; stroke-width: 0.8"/>
      </g>
     </g>
     <g id="text_7">
      <text style="fill: #111827; font: 11px 'Inter', 'Aptos', 'Helvetica Neue', 'Arial', 'DejaVu Sans', sans-serif; text-anchor: middle" x="857.626757" y="499.394687" transform="rotate(-0 857.626757 499.394687)">14</text>
     </g>
    </g>
    <g id="text_8">
     <text style="fill: #111827; font: 12px 'Inter', 'Aptos', 'Helvetica Neue', 'Arial', 'DejaVu Sans', sans-serif; text-anchor: middle" x="470.482543" y="514.130781" transform="rotate(-0 470.482543 514.130781)">Threads</text>
    </g>
   </g>
   <g id="matplotlib.axis_2">
    <g id="ytick_1">
     <g id="line2d_15">
      <path d="M 44.623906 472.743512 
L 896.341179 472.743512 
" clip-path="url(#p3801013602)" style="fill: none; stroke: #d6dde8; stroke-opacity: 0.55; stroke-width: 0.8; stroke-linecap: square"/>
     </g>
     <g id="line2d_16">
      <defs>
       <path id="m74310c6313" d="M 0 0 
L -3.5 0 
" style="stroke: #111827; stroke-width: 0.8"/>
      </defs>
      <g>
       <use xlink:href="#m74310c6313" x="44.623906" y="472.743512" style="fill: #111827; stroke: #111827; stroke-width: 0.8"/>
      </g>
     </g>
     <g id="text_9">
      <text style="fill: #111827; font: 11px 'Inter', 'Aptos', 'Helvetica Neue', 'Arial', 'DejaVu Sans', sans-serif; text-anchor: end" x="37.623906" y="476.670855" transform="rotate(-0 37.623906 476.670855)">0.0</text>
     </g>
    </g>
    <g id="ytick_2">
     <g id="line2d_17">
      <path d="M 44.623906 431.380102 
L 896.341179 431.380102 
" clip-path="url(#p3801013602)" style="fill: none; stroke: #d6dde8; stroke-opacity: 0.55; stroke-width: 0.8; stroke-linecap: square"/>
     </g>
     <g id="line2d_18">
      <g>
       <use xlink:href="#m74310c6313" x="44.623906" y="431.380102" style="fill: #111827; stroke: #111827; stroke-width: 0.8"/>
      </g>
     </g>
     <g id="text_10">
      <text style="fill: #111827; font: 11px 'Inter', 'Aptos', 'Helvetica Neue', 'Arial', 'DejaVu Sans', sans-serif; text-anchor: end" x="37.623906" y="435.307446" transform="rotate(-0 37.623906 435.307446)">0.5</text>
     </g>
    </g>
    <g id="ytick_3">
     <g id="line2d_19">
      <path d="M 44.623906 390.016693 
L 896.341179 390.016693 
" clip-path="url(#p3801013602)" style="fill: none; stroke: #d6dde8; stroke-opacity: 0.55; stroke-width: 0.8; stroke-linecap: square"/>
     </g>
     <g id="line2d_20">
      <g>
       <use xlink:href="#m74310c6313" x="44.623906" y="390.016693" style="fill: #111827; stroke: #111827; stroke-width: 0.8"/>
      </g>
     </g>
     <g id="text_11">
      <text style="fill: #111827; font: 11px 'Inter', 'Aptos', 'Helvetica Neue', 'Arial', 'DejaVu Sans', sans-serif; text-anchor: end" x="37.623906" y="393.944037" transform="rotate(-0 37.623906 393.944037)">1.0</text>
     </g>
    </g>
    <g id="ytick_4">
     <g id="line2d_21">
      <path d="M 44.623906 348.653284 
L 896.341179 348.653284 
" clip-path="url(#p3801013602)" style="fill: none; stroke: #d6dde8; stroke-opacity: 0.55; stroke-width: 0.8; stroke-linecap: square"/>
     </g>
     <g id="line2d_22">
      <g>
       <use xlink:href="#m74310c6313" x="44.623906" y="348.653284" style="fill: #111827; stroke: #111827; stroke-width: 0.8"/>
      </g>
     </g>
     <g id="text_12">
      <text style="fill: #111827; font: 11px 'Inter', 'Aptos', 'Helvetica Neue', 'Arial', 'DejaVu Sans', sans-serif; text-anchor: end" x="37.623906" y="352.580628" transform="rotate(-0 37.623906 352.580628)">1.5</text>
     </g>
    </g>
    <g id="ytick_5">
     <g id="line2d_23">
      <path d="M 44.623906 307.289875 
L 896.341179 307.289875 
" clip-path="url(#p3801013602)" style="fill: none; stroke: #d6dde8; stroke-opacity: 0.55; stroke-width: 0.8; stroke-linecap: square"/>
     </g>
     <g id="line2d_24">
      <g>
       <use xlink:href="#m74310c6313" x="44.623906" y="307.289875" style="fill: #111827; stroke: #111827; stroke-width: 0.8"/>
      </g>
     </g>
     <g id="text_13">
      <text style="fill: #111827; font: 11px 'Inter', 'Aptos', 'Helvetica Neue', 'Arial', 'DejaVu Sans', sans-serif; text-anchor: end" x="37.623906" y="311.217219" transform="rotate(-0 37.623906 311.217219)">2.0</text>
     </g>
    </g>
    <g id="ytick_6">
     <g id="line2d_25">
      <path d="M 44.623906 265.926466 
L 896.341179 265.926466 
" clip-path="url(#p3801013602)" style="fill: none; stroke: #d6dde8; stroke-opacity: 0.55; stroke-width: 0.8; stroke-linecap: square"/>
     </g>
     <g id="line2d_26">
      <g>
       <use xlink:href="#m74310c6313" x="44.623906" y="265.926466" style="fill: #111827; stroke: #111827; stroke-width: 0.8"/>
      </g>
     </g>
     <g id="text_14">
      <text style="fill: #111827; font: 11px 'Inter', 'Aptos', 'Helvetica Neue', 'Arial', 'DejaVu Sans', sans-serif; text-anchor: end" x="37.623906" y="269.85381" transform="rotate(-0 37.623906 269.85381)">2.5</text>
     </g>
    </g>
    <g id="ytick_7">
     <g id="line2d_27">
      <path d="M 44.623906 224.563057 
L 896.341179 224.563057 
" clip-path="url(#p3801013602)" style="fill: none; stroke: #d6dde8; stroke-opacity: 0.55; stroke-width: 0.8; stroke-linecap: square"/>
     </g>
     <g id="line2d_28">
      <g>
       <use xlink:href="#m74310c6313" x="44.623906" y="224.563057" style="fill: #111827; stroke: #111827; stroke-width: 0.8"/>
      </g>
     </g>
     <g id="text_15">
      <text style="fill: #111827; font: 11px 'Inter', 'Aptos', 'Helvetica Neue', 'Arial', 'DejaVu Sans', sans-serif; text-anchor: end" x="37.623906" y="228.490401" transform="rotate(-0 37.623906 228.490401)">3.0</text>
     </g>
    </g>
    <g id="ytick_8">
     <g id="line2d_29">
      <path d="M 44.623906 183.199648 
L 896.341179 183.199648 
" clip-path="url(#p3801013602)" style="fill: none; stroke: #d6dde8; stroke-opacity: 0.55; stroke-width: 0.8; stroke-linecap: square"/>
     </g>
     <g id="line2d_30">
      <g>
       <use xlink:href="#m74310c6313" x="44.623906" y="183.199648" style="fill: #111827; stroke: #111827; stroke-width: 0.8"/>
      </g>
     </g>
     <g id="text_16">
      <text style="fill: #111827; font: 11px 'Inter', 'Aptos', 'Helvetica Neue', 'Arial', 'DejaVu Sans', sans-serif; text-anchor: end" x="37.623906" y="187.126992" transform="rotate(-0 37.623906 187.126992)">3.5</text>
     </g>
    </g>
    <g id="ytick_9">
     <g id="line2d_31">
      <path d="M 44.623906 141.836239 
L 896.341179 141.836239 
" clip-path="url(#p3801013602)" style="fill: none; stroke: #d6dde8; stroke-opacity: 0.55; stroke-width: 0.8; stroke-linecap: square"/>
     </g>
     <g id="line2d_32">
      <g>
       <use xlink:href="#m74310c6313" x="44.623906" y="141.836239" style="fill: #111827; stroke: #111827; stroke-width: 0.8"/>
      </g>
     </g>
     <g id="text_17">
      <text style="fill: #111827; font: 11px 'Inter', 'Aptos', 'Helvetica Neue', 'Arial', 'DejaVu Sans', sans-serif; text-anchor: end" x="37.623906" y="145.763582" transform="rotate(-0 37.623906 145.763582)">4.0</text>
     </g>
    </g>
    <g id="text_18">
     <text style="fill: #111827; font: 12px 'Inter', 'Aptos', 'Helvetica Neue', 'Arial', 'DejaVu Sans', sans-serif; text-anchor: middle" x="15.97125" y="309.02" transform="rotate(-90 15.97125 309.02)">Speedup vs serial baseline</text>
    </g>
   </g>
   <g id="line2d_33">
    <path d="M 83.338328 390.016693 
" clip-path="url(#p3801013602)" style="fill: none; stroke: #475569; stroke-width: 3; stroke-linecap: square"/>
    <defs>
     <path id="mca502e1f13" d="M 0 3.75 
C 0.994512 3.75 1.948425 3.354876 2.65165 2.65165 
C 3.354876 1.948425 3.75 0.994512 3.75 0 
C 3.75 -0.994512 3.354876 -1.948425 2.65165 -2.65165 
C 1.948425 -3.354876 0.994512 -3.75 0 -3.75 
C -0.994512 -3.75 -1.948425 -3.354876 -2.65165 -2.65165 
C -3.354876 -1.948425 -3.75 -0.994512 -3.75 0 
C -3.75 0.994512 -3.354876 1.948425 -2.65165 2.65165 
C -1.948425 3.354876 -0.994512 3.75 0 3.75 
z
" style="stroke: #475569"/>
    </defs>
    <g clip-path="url(#p3801013602)">
     <use xlink:href="#mca502e1f13" x="83.338328" y="390.016693" style="fill: #475569; stroke: #475569"/>
    </g>
   </g>
   <g id="line2d_34">
    <path d="M 83.338328 402.625476 
L 142.898976 336.725882 
L 202.459625 302.617439 
L 262.020273 355.201284 
L 321.580922 211.072796 
L 381.14157 271.558686 
L 440.702218 261.315526 
L 500.262867 273.241714 
L 559.823515 286.136058 
L 619.384164 237.95348 
L 678.944812 246.827391 
L 738.505461 268.691474 
L 798.066109 275.240932 
L 857.626757 289.665025 
" clip-path="url(#p3801013602)" style="fill: none; stroke: #2563eb; stroke-width: 3; stroke-linecap: square"/>
    <defs>
     <path id="me9b122da52" d="M 0 3.75 
C 0.994512 3.75 1.948425 3.354876 2.65165 2.65165 
C 3.354876 1.948425 3.75 0.994512 3.75 0 
C 3.75 -0.994512 3.354876 -1.948425 2.65165 -2.65165 
C 1.948425 -3.354876 0.994512 -3.75 0 -3.75 
C -0.994512 -3.75 -1.948425 -3.354876 -2.65165 -2.65165 
C -3.354876 -1.948425 -3.75 -0.994512 -3.75 0 
C -3.75 0.994512 -3.354876 1.948425 -2.65165 2.65165 
C -1.948425 3.354876 -0.994512 3.75 0 3.75 
z
" style="stroke: #2563eb"/>
    </defs>
    <g clip-path="url(#p3801013602)">
     <use xlink:href="#me9b122da52" x="83.338328" y="402.625476" style="fill: #2563eb; stroke: #2563eb"/>
     <use xlink:href="#me9b122da52" x="142.898976" y="336.725882" style="fill: #2563eb; stroke: #2563eb"/>
     <use xlink:href="#me9b122da52" x="202.459625" y="302.617439" style="fill: #2563eb; stroke: #2563eb"/>
     <use xlink:href="#me9b122da52" x="262.020273" y="355.201284" style="fill: #2563eb; stroke: #2563eb"/>
     <use xlink:href="#me9b122da52" x="321.580922" y="211.072796" style="fill: #2563eb; stroke: #2563eb"/>
     <use xlink:href="#me9b122da52" x="381.14157" y="271.558686" style="fill: #2563eb; stroke: #2563eb"/>
     <use xlink:href="#me9b122da52" x="440.702218" y="261.315526" style="fill: #2563eb; stroke: #2563eb"/>
     <use xlink:href="#me9b122da52" x="500.262867" y="273.241714" style="fill: #2563eb; stroke: #2563eb"/>
     <use xlink:href="#me9b122da52" x="559.823515" y="286.136058" style="fill: #2563eb; stroke: #2563eb"/>
     <use xlink:href="#me9b122da52" x="619.384164" y="237.95348" style="fill: #2563eb; stroke: #2563eb"/>
     <use xlink:href="#me9b122da52" x="678.944812" y="246.827391" style="fill: #2563eb; stroke: #2563eb"/>
     <use xlink:href="#me9b122da52" x="738.505461" y="268.691474" style="fill: #2563eb; stroke: #2563eb"/>
     <use xlink:href="#me9b122da52" x="798.066109" y="275.240932" style="fill: #2563eb; stroke: #2563eb"/>
     <use xlink:href="#me9b122da52" x="857.626757" y="289.665025" style="fill: #2563eb; stroke: #2563eb"/>
    </g>
   </g>
   <g id="line2d_35">
    <path d="M 83.338328 366.067645 
L 142.898976 305.965881 
L 202.459625 278.817361 
L 262.020273 357.365302 
L 321.580922 201.387322 
L 381.14157 268.030939 
L 440.702218 253.120643 
L 500.262867 307.926464 
L 559.823515 273.62135 
L 619.384164 309.997526 
L 678.944812 313.746107 
L 738.505461 310.163064 
L 798.066109 319.367699 
L 857.626757 329.941489 
" clip-path="url(#p3801013602)" style="fill: none; stroke: #0f766e; stroke-width: 3; stroke-linecap: square"/>
    <defs>
     <path id="maa8e90bdf4" d="M 0 3.75 
C 0.994512 3.75 1.948425 3.354876 2.65165 2.65165 
C 3.354876 1.948425 3.75 0.994512 3.75 0 
C 3.75 -0.994512 3.354876 -1.948425 2.65165 -2.65165 
C 1.948425 -3.354876 0.994512 -3.75 0 -3.75 
C -0.994512 -3.75 -1.948425 -3.354876 -2.65165 -2.65165 
C -3.354876 -1.948425 -3.75 -0.994512 -3.75 0 
C -3.75 0.994512 -3.354876 1.948425 -2.65165 2.65165 
C -1.948425 3.354876 -0.994512 3.75 0 3.75 
z
" style="stroke: #0f766e"/>
    </defs>
    <g clip-path="url(#p3801013602)">
     <use xlink:href="#maa8e90bdf4" x="83.338328" y="366.067645" style="fill: #0f766e; stroke: #0f766e"/>
     <use xlink:href="#maa8e90bdf4" x="142.898976" y="305.965881" style="fill: #0f766e; stroke: #0f766e"/>
     <use xlink:href="#maa8e90bdf4" x="202.459625" y="278.817361" style="fill: #0f766e; stroke: #0f766e"/>
     <use xlink:href="#maa8e90bdf4" x="262.020273" y="357.365302" style="fill: #0f766e; stroke: #0f766e"/>
     <use xlink:href="#maa8e90bdf4" x="321.580922" y="201.387322" style="fill: #0f766e; stroke: #0f766e"/>
     <use xlink:href="#maa8e90bdf4" x="381.14157" y="268.030939" style="fill: #0f766e; stroke: #0f766e"/>
     <use xlink:href="#maa8e90bdf4" x="440.702218" y="253.120643" style="fill: #0f766e; stroke: #0f766e"/>
     <use xlink:href="#maa8e90bdf4" x="500.262867" y="307.926464" style="fill: #0f766e; stroke: #0f766e"/>
     <use xlink:href="#maa8e90bdf4" x="559.823515" y="273.62135" style="fill: #0f766e; stroke: #0f766e"/>
     <use xlink:href="#maa8e90bdf4" x="619.384164" y="309.997526" style="fill: #0f766e; stroke: #0f766e"/>
     <use xlink:href="#maa8e90bdf4" x="678.944812" y="313.746107" style="fill: #0f766e; stroke: #0f766e"/>
     <use xlink:href="#maa8e90bdf4" x="738.505461" y="310.163064" style="fill: #0f766e; stroke: #0f766e"/>
     <use xlink:href="#maa8e90bdf4" x="798.066109" y="319.367699" style="fill: #0f766e; stroke: #0f766e"/>
     <use xlink:href="#maa8e90bdf4" x="857.626757" y="329.941489" style="fill: #0f766e; stroke: #0f766e"/>
    </g>
   </g>
   <g id="line2d_36">
    <path d="M 83.338328 468.583636 
L 142.898976 468.369273 
L 202.459625 468.437869 
L 262.020273 468.085163 
L 321.580922 468.090996 
L 381.14157 468.138574 
L 440.702218 468.235313 
L 500.262867 468.212157 
L 559.823515 468.053683 
L 619.384164 468.126528 
L 678.944812 468.254221 
L 738.505461 468.188396 
L 798.066109 468.098195 
L 857.626757 468.094598 
" clip-path="url(#p3801013602)" style="fill: none; stroke: #f97316; stroke-width: 3; stroke-linecap: square"/>
    <defs>
     <path id="m451dcdb368" d="M 0 3.75 
C 0.994512 3.75 1.948425 3.354876 2.65165 2.65165 
C 3.354876 1.948425 3.75 0.994512 3.75 0 
C 3.75 -0.994512 3.354876 -1.948425 2.65165 -2.65165 
C 1.948425 -3.354876 0.994512 -3.75 0 -3.75 
C -0.994512 -3.75 -1.948425 -3.354876 -2.65165 -2.65165 
C -3.354876 -1.948425 -3.75 -0.994512 -3.75 0 
C -3.75 0.994512 -3.354876 1.948425 -2.65165 2.65165 
C -1.948425 3.354876 -0.994512 3.75 0 3.75 
z
" style="stroke: #f97316"/>
    </defs>
    <g clip-path="url(#p3801013602)">
     <use xlink:href="#m451dcdb368" x="83.338328" y="468.583636" style="fill: #f97316; stroke: #f97316"/>
     <use xlink:href="#m451dcdb368" x="142.898976" y="468.369273" style="fill: #f97316; stroke: #f97316"/>
     <use xlink:href="#m451dcdb368" x="202.459625" y="468.437869" style="fill: #f97316; stroke: #f97316"/>
     <use xlink:href="#m451dcdb368" x="262.020273" y="468.085163" style="fill: #f97316; stroke: #f97316"/>
     <use xlink:href="#m451dcdb368" x="321.580922" y="468.090996" style="fill: #f97316; stroke: #f97316"/>
     <use xlink:href="#m451dcdb368" x="381.14157" y="468.138574" style="fill: #f97316; stroke: #f97316"/>
     <use xlink:href="#m451dcdb368" x="440.702218" y="468.235313" style="fill: #f97316; stroke: #f97316"/>
     <use xlink:href="#m451dcdb368" x="500.262867" y="468.212157" style="fill: #f97316; stroke: #f97316"/>
     <use xlink:href="#m451dcdb368" x="559.823515" y="468.053683" style="fill: #f97316; stroke: #f97316"/>
     <use xlink:href="#m451dcdb368" x="619.384164" y="468.126528" style="fill: #f97316; stroke: #f97316"/>
     <use xlink:href="#m451dcdb368" x="678.944812" y="468.254221" style="fill: #f97316; stroke: #f97316"/>
     <use xlink:href="#m451dcdb368" x="738.505461" y="468.188396" style="fill: #f97316; stroke: #f97316"/>
     <use xlink:href="#m451dcdb368" x="798.066109" y="468.098195" style="fill: #f97316; stroke: #f97316"/>
     <use xlink:href="#m451dcdb368" x="857.626757" y="468.094598" style="fill: #f97316; stroke: #f97316"/>
    </g>
   </g>
   <g id="line2d_37">
    <path d="M 83.338328 402.839874 
L 142.898976 332.677214 
L 202.459625 415.322364 
L 262.020273 275.412542 
L 321.580922 230.917655 
L 381.14157 207.188349 
L 440.702218 175.464591 
L 500.262867 195.636515 
L 559.823515 149.456364 
L 619.384164 195.974897 
L 678.944812 184.261863 
L 738.505461 187.946217 
L 798.066109 201.981198 
L 857.626757 201.034695 
" clip-path="url(#p3801013602)" style="fill: none; stroke: #16a34a; stroke-width: 3; stroke-linecap: square"/>
    <defs>
     <path id="mcfa63462b1" d="M 0 3.75 
C 0.994512 3.75 1.948425 3.354876 2.65165 2.65165 
C 3.354876 1.948425 3.75 0.994512 3.75 0 
C 3.75 -0.994512 3.354876 -1.948425 2.65165 -2.65165 
C 1.948425 -3.354876 0.994512 -3.75 0 -3.75 
C -0.994512 -3.75 -1.948425 -3.354876 -2.65165 -2.65165 
C -3.354876 -1.948425 -3.75 -0.994512 -3.75 0 
C -3.75 0.994512 -3.354876 1.948425 -2.65165 2.65165 
C -1.948425 3.354876 -0.994512 3.75 0 3.75 
z
" style="stroke: #16a34a"/>
    </defs>
    <g clip-path="url(#p3801013602)">
     <use xlink:href="#mcfa63462b1" x="83.338328" y="402.839874" style="fill: #16a34a; stroke: #16a34a"/>
     <use xlink:href="#mcfa63462b1" x="142.898976" y="332.677214" style="fill: #16a34a; stroke: #16a34a"/>
     <use xlink:href="#mcfa63462b1" x="202.459625" y="415.322364" style="fill: #16a34a; stroke: #16a34a"/>
     <use xlink:href="#mcfa63462b1" x="262.020273" y="275.412542" style="fill: #16a34a; stroke: #16a34a"/>
     <use xlink:href="#mcfa63462b1" x="321.580922" y="230.917655" style="fill: #16a34a; stroke: #16a34a"/>
     <use xlink:href="#mcfa63462b1" x="381.14157" y="207.188349" style="fill: #16a34a; stroke: #16a34a"/>
     <use xlink:href="#mcfa63462b1" x="440.702218" y="175.464591" style="fill: #16a34a; stroke: #16a34a"/>
     <use xlink:href="#mcfa63462b1" x="500.262867" y="195.636515" style="fill: #16a34a; stroke: #16a34a"/>
     <use xlink:href="#mcfa63462b1" x="559.823515" y="149.456364" style="fill: #16a34a; stroke: #16a34a"/>
     <use xlink:href="#mcfa63462b1" x="619.384164" y="195.974897" style="fill: #16a34a; stroke: #16a34a"/>
     <use xlink:href="#mcfa63462b1" x="678.944812" y="184.261863" style="fill: #16a34a; stroke: #16a34a"/>
     <use xlink:href="#mcfa63462b1" x="738.505461" y="187.946217" style="fill: #16a34a; stroke: #16a34a"/>
     <use xlink:href="#mcfa63462b1" x="798.066109" y="201.981198" style="fill: #16a34a; stroke: #16a34a"/>
     <use xlink:href="#mcfa63462b1" x="857.626757" y="201.034695" style="fill: #16a34a; stroke: #16a34a"/>
    </g>
   </g>
   <g id="line2d_38">
    <path d="M 83.338328 381.278298 
L 142.898976 417.346874 
L 202.459625 427.398986 
L 262.020273 425.317938 
L 321.580922 427.321763 
L 381.14157 443.331261 
L 440.702218 446.780227 
L 500.262867 447.904616 
L 559.823515 449.632976 
L 619.384164 453.4769 
L 678.944812 455.516442 
L 738.505461 456.279772 
L 798.066109 456.855937 
L 857.626757 459.190139 
" clip-path="url(#p3801013602)" style="fill: none; stroke: #7c3aed; stroke-width: 3; stroke-linecap: square"/>
    <defs>
     <path id="m08d33e226a" d="M 0 3.75 
C 0.994512 3.75 1.948425 3.354876 2.65165 2.65165 
C 3.354876 1.948425 3.75 0.994512 3.75 0 
C 3.75 -0.994512 3.354876 -1.948425 2.65165 -2.65165 
C 1.948425 -3.354876 0.994512 -3.75 0 -3.75 
C -0.994512 -3.75 -1.948425 -3.354876 -2.65165 -2.65165 
C -3.354876 -1.948425 -3.75 -0.994512 -3.75 0 
C -3.75 0.994512 -3.354876 1.948425 -2.65165 2.65165 
C -1.948425 3.354876 -0.994512 3.75 0 3.75 
z
" style="stroke: #7c3aed"/>
    </defs>
    <g clip-path="url(#p3801013602)">
     <use xlink:href="#m08d33e226a" x="83.338328" y="381.278298" style="fill: #7c3aed; stroke: #7c3aed"/>
     <use xlink:href="#m08d33e226a" x="142.898976" y="417.346874" style="fill: #7c3aed; stroke: #7c3aed"/>
     <use xlink:href="#m08d33e226a" x="202.459625" y="427.398986" style="fill: #7c3aed; stroke: #7c3aed"/>
     <use xlink:href="#m08d33e226a" x="262.020273" y="425.317938" style="fill: #7c3aed; stroke: #7c3aed"/>
     <use xlink:href="#m08d33e226a" x="321.580922" y="427.321763" style="fill: #7c3aed; stroke: #7c3aed"/>
     <use xlink:href="#m08d33e226a" x="381.14157" y="443.331261" style="fill: #7c3aed; stroke: #7c3aed"/>
     <use xlink:href="#m08d33e226a" x="440.702218" y="446.780227" style="fill: #7c3aed; stroke: #7c3aed"/>
     <use xlink:href="#m08d33e226a" x="500.262867" y="447.904616" style="fill: #7c3aed; stroke: #7c3aed"/>
     <use xlink:href="#m08d33e226a" x="559.823515" y="449.632976" style="fill: #7c3aed; stroke: #7c3aed"/>
     <use xlink:href="#m08d33e226a" x="619.384164" y="453.4769" style="fill: #7c3aed; stroke: #7c3aed"/>
     <use xlink:href="#m08d33e226a" x="678.944812" y="455.516442" style="fill: #7c3aed; stroke: #7c3aed"/>
     <use xlink:href="#m08d33e226a" x="738.505461" y="456.279772" style="fill: #7c3aed; stroke: #7c3aed"/>
     <use xlink:href="#m08d33e226a" x="798.066109" y="456.855937" style="fill: #7c3aed; stroke: #7c3aed"/>
     <use xlink:href="#m08d33e226a" x="857.626757" y="459.190139" style="fill: #7c3aed; stroke: #7c3aed"/>
    </g>
   </g>
   <g id="line2d_39">
    <path d="M 44.623906 390.016693 
L 896.341179 390.016693 
" clip-path="url(#p3801013602)" style="fill: none; stroke-dasharray: 6.25,5; stroke-dashoffset: 0; stroke: #64748b; stroke-opacity: 0.85; stroke-width: 1.25"/>
   </g>
   <g id="patch_3">
    <path d="M 44.623906 484.54 
L 44.623906 133.5 
" style="fill: none; stroke: #cbd5e1; stroke-width: 0.8; stroke-linejoin: miter; stroke-linecap: square"/>
   </g>
   <g id="patch_4">
    <path d="M 44.623906 484.54 
L 896.341179 484.54 
" style="fill: none; stroke: #cbd5e1; stroke-width: 0.8; stroke-linejoin: miter; stroke-linecap: square"/>
   </g>
   <g id="text_19">
    <text style="fill: #475569; font: 700 9.5px 'Inter', 'Aptos', 'Helvetica Neue', 'Arial', 'DejaVu Sans', sans-serif; text-anchor: start" x="91.338328" y="392.472592" transform="rotate(-0 91.338328 392.472592)">Serial</text>
   </g>
   <g id="text_20">
    <g id="patch_5">
     <path d="M 51.061375 383.176693 
L 115.615281 383.176693 
Q 117.775281 383.176693 117.775281 381.016693 
L 117.775281 372.81685 
Q 117.775281 370.65685 115.615281 370.65685 
L 51.061375 370.65685 
Q 48.901375 370.65685 48.901375 372.81685 
L 48.901375 381.016693 
Q 48.901375 383.176693 51.061375 383.176693 
z
" style="fill: #ffffff; opacity: 0.94; stroke: #d1d5db; stroke-linejoin: miter"/>
    </g>
    <text style="fill: #475569; font: 700 9px 'Inter', 'Aptos', 'Helvetica Neue', 'Arial', 'DejaVu Sans', sans-serif; text-anchor: middle" x="83.338328" y="379.243412" transform="rotate(-0 83.338328 379.243412)">best 1.00x @ 1T</text>
   </g>
   <g id="text_21">
    <text style="fill: #2563eb; font: 700 9.5px 'Inter', 'Aptos', 'Helvetica Neue', 'Arial', 'DejaVu Sans', sans-serif; text-anchor: start" x="865.626757" y="292.120923" transform="rotate(-0 865.626757 292.120923)">Atomic</text>
   </g>
   <g id="text_22">
    <g id="patch_6">
     <path d="M 289.303968 204.232796 
L 353.857875 204.232796 
Q 356.017875 204.232796 356.017875 202.072796 
L 356.017875 193.872952 
Q 356.017875 191.712952 353.857875 191.712952 
L 289.303968 191.712952 
Q 287.143968 191.712952 287.143968 193.872952 
L 287.143968 202.072796 
Q 287.143968 204.232796 289.303968 204.232796 
z
" style="fill: #ffffff; opacity: 0.94; stroke: #d1d5db; stroke-linejoin: miter"/>
    </g>
    <text style="fill: #2563eb; font: 700 9px 'Inter', 'Aptos', 'Helvetica Neue', 'Arial', 'DejaVu Sans', sans-serif; text-anchor: middle" x="321.580922" y="200.299515" transform="rotate(-0 321.580922 200.299515)">best 3.16x @ 5T</text>
   </g>
   <g id="text_23">
    <text style="fill: #0f766e; font: 700 9.5px 'Inter', 'Aptos', 'Helvetica Neue', 'Arial', 'DejaVu Sans', sans-serif; text-anchor: start" x="865.626757" y="332.397388" transform="rotate(-0 865.626757 332.397388)">Private CSR</text>
   </g>
   <g id="text_24">
    <g id="patch_7">
     <path d="M 289.303968 194.547322 
L 353.857875 194.547322 
Q 356.017875 194.547322 356.017875 192.387322 
L 356.017875 184.187478 
Q 356.017875 182.027478 353.857875 182.027478 
L 289.303968 182.027478 
Q 287.143968 182.027478 287.143968 184.187478 
L 287.143968 192.387322 
Q 287.143968 194.547322 289.303968 194.547322 
z
" style="fill: #ffffff; opacity: 0.94; stroke: #d1d5db; stroke-linejoin: miter"/>
    </g>
    <text style="fill: #0f766e; font: 700 9px 'Inter', 'Aptos', 'Helvetica Neue', 'Arial', 'DejaVu Sans', sans-serif; text-anchor: middle" x="321.580922" y="190.61404" transform="rotate(-0 321.580922 190.61404)">best 3.28x @ 5T</text>
   </g>
   <g id="text_25">
    <text style="fill: #f97316; font: 700 9.5px 'Inter', 'Aptos', 'Helvetica Neue', 'Arial', 'DejaVu Sans', sans-serif; text-anchor: start" x="865.626757" y="470.550496" transform="rotate(-0 865.626757 470.550496)">COO Sort-Reduce</text>
   </g>
   <g id="text_26">
    <g id="patch_8">
     <path d="M 527.546562 461.213683 
L 592.100468 461.213683 
Q 594.260468 461.213683 594.260468 459.053683 
L 594.260468 450.853839 
Q 594.260468 448.693839 592.100468 448.693839 
L 527.546562 448.693839 
Q 525.386562 448.693839 525.386562 450.853839 
L 525.386562 459.053683 
Q 525.386562 461.213683 527.546562 461.213683 
z
" style="fill: #ffffff; opacity: 0.94; stroke: #d1d5db; stroke-linejoin: miter"/>
    </g>
    <text style="fill: #f97316; font: 700 9px 'Inter', 'Aptos', 'Helvetica Neue', 'Arial', 'DejaVu Sans', sans-serif; text-anchor: middle" x="559.823515" y="457.280402" transform="rotate(-0 559.823515 457.280402)">best 0.06x @ 9T</text>
   </g>
   <g id="text_27">
    <text style="fill: #16a34a; font: 700 9.5px 'Inter', 'Aptos', 'Helvetica Neue', 'Arial', 'DejaVu Sans', sans-serif; text-anchor: start" x="865.626757" y="203.490593" transform="rotate(-0 865.626757 203.490593)">Row Owner</text>
   </g>
   <g id="text_28">
    <g id="patch_9">
     <path d="M 527.546562 142.616364 
L 592.100468 142.616364 
Q 594.260468 142.616364 594.260468 140.456364 
L 594.260468 132.25652 
Q 594.260468 130.09652 592.100468 130.09652 
L 527.546562 130.09652 
Q 525.386562 130.09652 525.386562 132.25652 
L 525.386562 140.456364 
Q 525.386562 142.616364 527.546562 142.616364 
z
" style="fill: #ffffff; opacity: 0.94; stroke: #d1d5db; stroke-linejoin: miter"/>
    </g>
    <text style="fill: #16a34a; font: 700 9px 'Inter', 'Aptos', 'Helvetica Neue', 'Arial', 'DejaVu Sans', sans-serif; text-anchor: middle" x="559.823515" y="138.683082" transform="rotate(-0 559.823515 138.683082)">best 3.91x @ 9T</text>
   </g>
   <g id="text_29">
    <text style="fill: #7c3aed; font: 700 9.5px 'Inter', 'Aptos', 'Helvetica Neue', 'Arial', 'DejaVu Sans', sans-serif; text-anchor: start" x="865.626757" y="461.669045" transform="rotate(-0 865.626757 461.669045)">Coloring</text>
   </g>
   <g id="text_30">
    <g id="patch_10">
     <path d="M 51.061375 374.438298 
L 115.615281 374.438298 
Q 117.775281 374.438298 117.775281 372.278298 
L 117.775281 364.078454 
Q 117.775281 361.918454 115.615281 361.918454 
L 51.061375 361.918454 
Q 48.901375 361.918454 48.901375 364.078454 
L 48.901375 372.278298 
Q 48.901375 374.438298 51.061375 374.438298 
z
" style="fill: #ffffff; opacity: 0.94; stroke: #d1d5db; stroke-linejoin: miter"/>
    </g>
    <text style="fill: #7c3aed; font: 700 9px 'Inter', 'Aptos', 'Helvetica Neue', 'Arial', 'DejaVu Sans', sans-serif; text-anchor: middle" x="83.338328" y="370.505016" transform="rotate(-0 83.338328 370.505016)">best 1.11x @ 1T</text>
   </g>
   <g id="text_31">
    <text style="fill: #64748b; font: 9px 'Inter', 'Aptos', 'Helvetica Neue', 'Arial', 'DejaVu Sans', sans-serif; text-anchor: end" x="892.082593" y="388.243412" transform="rotate(-0 892.082593 388.243412)">reference</text>
   </g>
   <g id="text_32">
    <text style="fill: #111827; font: 700 15px 'Inter', 'Aptos', 'Helvetica Neue', 'Arial', 'DejaVu Sans', sans-serif; text-anchor: start" x="44.623906" y="121.5" transform="rotate(-0 44.623906 121.5)">Speedup</text>
   </g>
  </g>
  <g id="text_33">
   <text style="fill: #111827; font: 700 23px 'Inter', 'Aptos', 'Helvetica Neue', 'Arial', 'DejaVu Sans', sans-serif; text-anchor: start" x="14.849906" y="25.276563" transform="rotate(-0 14.849906 25.276563)">Speedup: cube_tet4_8x8x8 | kernel=simplified</text>
  </g>
  <g id="text_34">
   <text style="fill: #64748b; font: 12.5px 'Inter', 'Aptos', 'Helvetica Neue', 'Arial', 'DejaVu Sans', sans-serif; text-anchor: start" x="14.849906" y="45.825781" transform="rotate(-0 14.849906 45.825781)">Best points are highlighted; raw values are unchanged.</text>
  </g>
 </g>
 <defs>
  <clipPath id="p3801013602">
   <rect x="44.623906" y="133.5" width="851.717273" height="351.04"/>
  </clipPath>
 </defs>
</svg>
