<?xml version="1.0" encoding="utf-8" standalone="no"?>
<!DOCTYPE svg PUBLIC "-//W3C//DTD SVG 1.1//EN"
  "http://www.w3.org/Graphics/SVG/1.1/DTD/svg11.dtd">
<svg xmlns:xlink="http://www.w3.org/1999/xlink" width="1152pt" height="648pt" viewBox="0 0 1152 648" xmlns="http://www.w3.org/2000/svg" version="1.1">
 <metadata>
  <rdf:RDF xmlns:dc="http://purl.org/dc/elements/1.1/" xmlns:cc="http://creativecommons.org/ns#" xmlns:rdf="http://www.w3.org/1999/02/22-rdf-syntax-ns#">
   <cc:Work>
    <dc:type rdf:resource="http://purl.org/dc/dcmitype/StillImage"/>
    <dc:date>2026-04-27T20:59:58.407204</dc:date>
    <dc:format>image/svg+xml</dc:format>
    <dc:creator>
     <cc:Agent>
      <dc:title>Matplotlib v3.9.4, https://matplotlib.org/</dc:title>
     </cc:Agent>
    </dc:creator>
   </cc:Work>
  </rdf:RDF>
 </metadata>
 <defs>
  <style type="text/css">*{stroke-linejoin: round; stroke-linecap: butt}</style>
 </defs>
 <g id="figure_1">
  <g id="patch_1">
   <path d="M 0 648 
L 1152 648 
L 1152 0 
L 0 0 
z
" style="fill: #f8fafc"/>
  </g>
  <g id="axes_1">
   <g id="patch_2">
    <path d="M 86.4 531.36 
L 547.2 531.36 
L 547.2 168.48 
L 86.4 168.48 
z
" style="fill: #ffffff"/>
   </g>
   <g id="matplotlib.axis_1">
    <g id="xtick_1">
     <g id="line2d_1">
      <path d="M 107.345455 531.36 
L 107.345455 168.48 
" clip-path="url(#p5a87c437d5)" style="fill: none; stroke: #e2e8f0; stroke-linecap: square"/>
     </g>
     <g id="line2d_2">
      <defs>
       <path id="mb053f90e1c" d="M 0 0 
L 0 3.5 
" style="stroke: #334155; stroke-width: 0.8"/>
      </defs>
      <g>
       <use xlink:href="#mb053f90e1c" x="107.345455" y="531.36" style="fill: #334155; stroke: #334155; stroke-width: 0.8"/>
      </g>
     </g>
     <g id="text_1">
      <!-- 1 -->
      <g style="fill: #334155" transform="translate(103.467017 549.7) scale(0.14 -0.14)">
       <defs>
        <path id="STHeitiTC-Medium-31" d="M 2131 384 
L 1587 384 
L 1587 4531 
L 826 4531 
L 1158 5069 
L 2131 5069 
L 2131 384 
z
" transform="scale(0.015625)"/>
       </defs>
       <use xlink:href="#STHeitiTC-Medium-31"/>
      </g>
     </g>
    </g>
    <g id="xtick_2">
     <g id="line2d_3">
      <path d="M 139.569231 531.36 
L 139.569231 168.48 
" clip-path="url(#p5a87c437d5)" style="fill: none; stroke: #e2e8f0; stroke-linecap: square"/>
     </g>
     <g id="line2d_4">
      <g>
       <use xlink:href="#mb053f90e1c" x="139.569231" y="531.36" style="fill: #334155; stroke: #334155; stroke-width: 0.8"/>
      </g>
     </g>
     <g id="text_2">
      <!-- 2 -->
      <g style="fill: #334155" transform="translate(135.690793 549.7) scale(0.14 -0.14)">
       <defs>
        <path id="STHeitiTC-Medium-32" d="M 3360 384 
L 90 384 
L 1914 2355 
Q 2374 2842 2566 3123 
Q 2758 3405 2758 3763 
Q 2758 4122 2480 4390 
Q 2202 4659 1789 4659 
Q 1376 4659 1101 4368 
Q 826 4077 787 3539 
L 256 3539 
Q 288 4294 736 4739 
Q 1184 5184 1821 5184 
Q 2458 5184 2877 4771 
Q 3296 4358 3296 3763 
Q 3296 3328 3065 2950 
Q 2835 2573 2368 2074 
L 1293 915 
L 3360 915 
L 3360 384 
z
" transform="scale(0.015625)"/>
       </defs>
       <use xlink:href="#STHeitiTC-Medium-32"/>
      </g>
     </g>
    </g>
    <g id="xtick_3">
     <g id="line2d_5">
      <path d="M 204.016783 531.36 
L 204.016783 168.48 
" clip-path="url(#p5a87c437d5)" style="fill: none; stroke: #e2e8f0; stroke-linecap: square"/>
     </g>
     <g id="line2d_6">
      <g>
       <use xlink:href="#mb053f90e1c" x="204.016783" y="531.36" style="fill: #334155; stroke: #334155; stroke-width: 0.8"/>
      </g>
     </g>
     <g id="text_3">
      <!-- 4 -->
      <g style="fill: #334155" transform="translate(200.138346 549.7) scale(0.14 -0.14)">
       <defs>
        <path id="STHeitiTC-Medium-34" d="M 3418 1453 
L 2861 1453 
L 2861 384 
L 2317 384 
L 2317 1453 
L 70 1453 
L 2701 5184 
L 2861 5184 
L 2861 1984 
L 3418 1984 
L 3418 1453 
z
M 2317 1984 
L 2317 3712 
L 1094 1984 
L 2317 1984 
z
" transform="scale(0.015625)"/>
       </defs>
       <use xlink:href="#STHeitiTC-Medium-34"/>
      </g>
     </g>
    </g>
    <g id="xtick_4">
     <g id="line2d_7">
      <path d="M 268.464336 531.36 
L 268.464336 168.48 
" clip-path="url(#p5a87c437d5)" style="fill: none; stroke: #e2e8f0; stroke-linecap: square"/>
     </g>
     <g id="line2d_8">
      <g>
       <use xlink:href="#mb053f90e1c" x="268.464336" y="531.36" style="fill: #334155; stroke: #334155; stroke-width: 0.8"/>
      </g>
     </g>
     <g id="text_4">
      <!-- 6 -->
      <g style="fill: #334155" transform="translate(264.585898 549.7) scale(0.14 -0.14)">
       <defs>
        <path id="STHeitiTC-Medium-36" d="M 1594 3098 
Q 1798 3155 1984 3155 
Q 2515 3155 2912 2732 
Q 3309 2310 3309 1708 
Q 3309 1107 2880 688 
Q 2451 269 1830 269 
Q 1210 269 797 691 
Q 384 1114 384 1722 
Q 384 2016 499 2326 
Q 614 2637 915 3085 
L 2336 5203 
L 2797 4915 
L 1594 3098 
z
M 1843 806 
Q 2221 806 2493 1075 
Q 2765 1344 2765 1728 
Q 2765 2112 2496 2381 
Q 2227 2650 1843 2650 
Q 1459 2650 1190 2381 
Q 922 2112 922 1728 
Q 922 1344 1194 1075 
Q 1466 806 1843 806 
z
" transform="scale(0.015625)"/>
       </defs>
       <use xlink:href="#STHeitiTC-Medium-36"/>
      </g>
     </g>
    </g>
    <g id="xtick_5">
     <g id="line2d_9">
      <path d="M 332.911888 531.36 
L 332.911888 168.48 
" clip-path="url(#p5a87c437d5)" style="fill: none; stroke: #e2e8f0; stroke-linecap: square"/>
     </g>
     <g id="line2d_10">
      <g>
       <use xlink:href="#mb053f90e1c" x="332.911888" y="531.36" style="fill: #334155; stroke: #334155; stroke-width: 0.8"/>
      </g>
     </g>
     <g id="text_5">
      <!-- 8 -->
      <g style="fill: #334155" transform="translate(329.033451 549.7) scale(0.14 -0.14)">
       <defs>
        <path id="STHeitiTC-Medium-38" d="M 2547 2950 
Q 3373 2522 3373 1747 
Q 3373 1114 2928 691 
Q 2483 269 1763 269 
Q 1043 269 608 691 
Q 173 1114 173 1709 
Q 173 2515 1018 2950 
Q 390 3315 390 3942 
Q 390 4435 800 4809 
Q 1210 5184 1782 5184 
Q 2355 5184 2758 4819 
Q 3162 4454 3162 3930 
Q 3162 3322 2547 2950 
z
M 1792 3181 
Q 2118 3181 2364 3411 
Q 2611 3642 2611 3939 
Q 2611 4237 2380 4445 
Q 2150 4653 1785 4653 
Q 1421 4653 1184 4445 
Q 947 4237 947 3939 
Q 947 3642 1203 3411 
Q 1459 3181 1792 3181 
z
M 1773 794 
Q 2234 794 2528 1069 
Q 2822 1344 2822 1728 
Q 2822 2112 2518 2393 
Q 2214 2675 1782 2675 
Q 1350 2675 1036 2384 
Q 723 2093 723 1699 
Q 723 1306 1014 1050 
Q 1306 794 1773 794 
z
" transform="scale(0.015625)"/>
       </defs>
       <use xlink:href="#STHeitiTC-Medium-38"/>
      </g>
     </g>
    </g>
    <g id="xtick_6">
     <g id="line2d_11">
      <path d="M 397.359441 531.36 
L 397.359441 168.48 
" clip-path="url(#p5a87c437d5)" style="fill: none; stroke: #e2e8f0; stroke-linecap: square"/>
     </g>
     <g id="line2d_12">
      <g>
       <use xlink:href="#mb053f90e1c" x="397.359441" y="531.36" style="fill: #334155; stroke: #334155; stroke-width: 0.8"/>
      </g>
     </g>
     <g id="text_6">
      <!-- 10 -->
      <g style="fill: #334155" transform="translate(389.602566 549.7) scale(0.14 -0.14)">
       <defs>
        <path id="STHeitiTC-Medium-30" d="M 1747 5184 
Q 2502 5184 2944 4547 
Q 3386 3910 3386 2723 
Q 3386 1536 2938 902 
Q 2490 269 1738 269 
Q 986 269 573 893 
Q 160 1517 160 2729 
Q 160 3942 573 4563 
Q 986 5184 1747 5184 
z
M 1760 774 
Q 2285 774 2576 1283 
Q 2867 1792 2867 2726 
Q 2867 3661 2566 4160 
Q 2266 4659 1757 4659 
Q 1248 4659 966 4160 
Q 685 3661 685 2714 
Q 685 774 1760 774 
z
" transform="scale(0.015625)"/>
       </defs>
       <use xlink:href="#STHeitiTC-Medium-31"/>
       <use xlink:href="#STHeitiTC-Medium-30" x="55.399994"/>
      </g>
     </g>
    </g>
    <g id="xtick_7">
     <g id="line2d_13">
      <path d="M 461.806993 531.36 
L 461.806993 168.48 
" clip-path="url(#p5a87c437d5)" style="fill: none; stroke: #e2e8f0; stroke-linecap: square"/>
     </g>
     <g id="line2d_14">
      <g>
       <use xlink:href="#mb053f90e1c" x="461.806993" y="531.36" style="fill: #334155; stroke: #334155; stroke-width: 0.8"/>
      </g>
     </g>
     <g id="text_7">
      <!-- 12 -->
      <g style="fill: #334155" transform="translate(454.050118 549.7) scale(0.14 -0.14)">
       <use xlink:href="#STHeitiTC-Medium-31"/>
       <use xlink:href="#STHeitiTC-Medium-32" x="55.399994"/>
      </g>
     </g>
    </g>
    <g id="xtick_8">
     <g id="line2d_15">
      <path d="M 526.254545 531.36 
L 526.254545 168.48 
" clip-path="url(#p5a87c437d5)" style="fill: none; stroke: #e2e8f0; stroke-linecap: square"/>
     </g>
     <g id="line2d_16">
      <g>
       <use xlink:href="#mb053f90e1c" x="526.254545" y="531.36" style="fill: #334155; stroke: #334155; stroke-width: 0.8"/>
      </g>
     </g>
     <g id="text_8">
      <!-- 14 -->
      <g style="fill: #334155" transform="translate(518.49767 549.7) scale(0.14 -0.14)">
       <use xlink:href="#STHeitiTC-Medium-31"/>
       <use xlink:href="#STHeitiTC-Medium-34" x="55.399994"/>
      </g>
     </g>
    </g>
    <g id="text_9">
     <!-- Threads -->
     <g transform="translate(286.8575 568.521563) scale(0.16 -0.16)">
      <defs>
       <path id="STHeitiTC-Medium-54" d="M 2669 4531 
L 1645 4531 
L 1645 384 
L 1088 384 
L 1088 4531 
L 58 4531 
L 58 5069 
L 2669 5069 
L 2669 4531 
z
" transform="scale(0.015625)"/>
       <path id="STHeitiTC-Medium-68" d="M 3501 384 
L 2970 384 
L 2970 2048 
Q 2970 2534 2941 2732 
Q 2912 2931 2809 3107 
Q 2707 3283 2531 3376 
Q 2355 3469 2108 3469 
Q 1862 3469 1638 3353 
Q 1414 3238 1254 3033 
Q 1094 2829 1033 2598 
Q 973 2368 973 1677 
L 973 384 
L 442 384 
L 442 5184 
L 973 5184 
L 973 3347 
Q 1491 3962 2202 3962 
Q 2579 3962 2886 3766 
Q 3194 3571 3347 3228 
Q 3501 2886 3501 2176 
L 3501 384 
z
" transform="scale(0.015625)"/>
       <path id="STHeitiTC-Medium-72" d="M 1914 3821 
L 1638 3373 
Q 1530 3430 1427 3430 
Q 1229 3430 1069 3235 
Q 909 3040 829 2723 
Q 749 2406 749 1581 
L 749 384 
L 211 384 
L 211 3872 
L 749 3872 
L 749 3494 
Q 909 3731 1072 3846 
Q 1235 3962 1443 3962 
Q 1651 3962 1914 3821 
z
" transform="scale(0.015625)"/>
       <path id="STHeitiTC-Medium-65" d="M 3878 2035 
L 819 2035 
Q 851 1459 1206 1110 
Q 1562 762 2054 762 
Q 2893 762 3334 1587 
L 3782 1357 
Q 3482 800 3072 534 
Q 2662 269 2093 269 
Q 1306 269 794 809 
Q 282 1350 282 2112 
Q 282 2874 797 3418 
Q 1312 3962 2073 3962 
Q 2835 3962 3347 3446 
Q 3859 2931 3878 2035 
z
M 3290 2502 
Q 3194 2950 2854 3200 
Q 2515 3450 2074 3450 
Q 1178 3450 883 2502 
L 3290 2502 
z
" transform="scale(0.015625)"/>
       <path id="STHeitiTC-Medium-61" d="M 3917 384 
L 3398 384 
L 3398 896 
Q 2829 269 2086 269 
Q 1344 269 816 816 
Q 288 1363 288 2121 
Q 288 2880 819 3421 
Q 1350 3962 2115 3962 
Q 2880 3962 3398 3341 
L 3398 3872 
L 3917 3872 
L 3917 384 
z
M 2125 762 
Q 2656 762 3040 1146 
Q 3424 1530 3424 2102 
Q 3424 2675 3046 3062 
Q 2669 3450 2121 3450 
Q 1574 3450 1196 3050 
Q 819 2650 819 2106 
Q 819 1562 1203 1162 
Q 1587 762 2125 762 
z
" transform="scale(0.015625)"/>
       <path id="STHeitiTC-Medium-64" d="M 3923 384 
L 3405 384 
L 3405 896 
Q 2835 269 2089 269 
Q 1344 269 819 813 
Q 294 1357 294 2118 
Q 294 2880 825 3421 
Q 1357 3962 2121 3962 
Q 2886 3962 3405 3341 
L 3405 5184 
L 3923 5184 
L 3923 384 
z
M 2131 762 
Q 2637 762 3033 1139 
Q 3430 1517 3430 2096 
Q 3430 2675 3062 3062 
Q 2694 3450 2134 3450 
Q 1574 3450 1200 3050 
Q 826 2650 826 2109 
Q 826 1568 1210 1165 
Q 1594 762 2131 762 
z
" transform="scale(0.015625)"/>
       <path id="STHeitiTC-Medium-73" d="M 2259 3462 
L 1920 3110 
Q 1542 3462 1229 3462 
Q 1030 3462 896 3337 
Q 762 3213 762 3030 
Q 762 2848 912 2710 
Q 1062 2573 1446 2371 
Q 1830 2170 2038 1926 
Q 2246 1683 2246 1331 
Q 2246 883 1936 576 
Q 1626 269 1171 269 
Q 538 269 115 806 
L 448 1178 
Q 794 774 1152 774 
Q 1395 774 1568 934 
Q 1741 1094 1741 1308 
Q 1741 1523 1584 1667 
Q 1427 1811 1046 2003 
Q 666 2195 470 2428 
Q 275 2662 275 3043 
Q 275 3424 553 3693 
Q 832 3962 1289 3962 
Q 1747 3962 2259 3462 
z
" transform="scale(0.015625)"/>
      </defs>
      <use xlink:href="#STHeitiTC-Medium-54"/>
      <use xlink:href="#STHeitiTC-Medium-68" x="42.599991"/>
      <use xlink:href="#STHeitiTC-Medium-72" x="103.599976"/>
      <use xlink:href="#STHeitiTC-Medium-65" x="133.699966"/>
      <use xlink:href="#STHeitiTC-Medium-61" x="198.699951"/>
      <use xlink:href="#STHeitiTC-Medium-64" x="266.999939"/>
      <use xlink:href="#STHeitiTC-Medium-73" x="335.499924"/>
     </g>
    </g>
   </g>
   <g id="matplotlib.axis_2">
    <g id="ytick_1">
     <g id="line2d_17">
      <path d="M 86.4 531.36 
L 547.2 531.36 
" clip-path="url(#p5a87c437d5)" style="fill: none; stroke: #e2e8f0; stroke-linecap: square"/>
     </g>
     <g id="line2d_18">
      <defs>
       <path id="m5c2a2e752f" d="M 0 0 
L -3.5 0 
" style="stroke: #334155; stroke-width: 0.8"/>
      </defs>
      <g>
       <use xlink:href="#m5c2a2e752f" x="86.4" y="531.36" style="fill: #334155; stroke: #334155; stroke-width: 0.8"/>
      </g>
     </g>
     <g id="text_10">
      <!-- 0 -->
      <g style="fill: #334155" transform="translate(71.643125 537.03) scale(0.14 -0.14)">
       <use xlink:href="#STHeitiTC-Medium-30"/>
      </g>
     </g>
    </g>
    <g id="ytick_2">
     <g id="line2d_19">
      <path d="M 86.4 481.307586 
L 547.2 481.307586 
" clip-path="url(#p5a87c437d5)" style="fill: none; stroke: #e2e8f0; stroke-linecap: square"/>
     </g>
     <g id="line2d_20">
      <g>
       <use xlink:href="#m5c2a2e752f" x="86.4" y="481.307586" style="fill: #334155; stroke: #334155; stroke-width: 0.8"/>
      </g>
     </g>
     <g id="text_11">
      <!-- 2 -->
      <g style="fill: #334155" transform="translate(71.643125 486.977586) scale(0.14 -0.14)">
       <use xlink:href="#STHeitiTC-Medium-32"/>
      </g>
     </g>
    </g>
    <g id="ytick_3">
     <g id="line2d_21">
      <path d="M 86.4 431.255172 
L 547.2 431.255172 
" clip-path="url(#p5a87c437d5)" style="fill: none; stroke: #e2e8f0; stroke-linecap: square"/>
     </g>
     <g id="line2d_22">
      <g>
       <use xlink:href="#m5c2a2e752f" x="86.4" y="431.255172" style="fill: #334155; stroke: #334155; stroke-width: 0.8"/>
      </g>
     </g>
     <g id="text_12">
      <!-- 4 -->
      <g style="fill: #334155" transform="translate(71.643125 436.925172) scale(0.14 -0.14)">
       <use xlink:href="#STHeitiTC-Medium-34"/>
      </g>
     </g>
    </g>
    <g id="ytick_4">
     <g id="line2d_23">
      <path d="M 86.4 381.202759 
L 547.2 381.202759 
" clip-path="url(#p5a87c437d5)" style="fill: none; stroke: #e2e8f0; stroke-linecap: square"/>
     </g>
     <g id="line2d_24">
      <g>
       <use xlink:href="#m5c2a2e752f" x="86.4" y="381.202759" style="fill: #334155; stroke: #334155; stroke-width: 0.8"/>
      </g>
     </g>
     <g id="text_13">
      <!-- 6 -->
      <g style="fill: #334155" transform="translate(71.643125 386.872759) scale(0.14 -0.14)">
       <use xlink:href="#STHeitiTC-Medium-36"/>
      </g>
     </g>
    </g>
    <g id="ytick_5">
     <g id="line2d_25">
      <path d="M 86.4 331.150345 
L 547.2 331.150345 
" clip-path="url(#p5a87c437d5)" style="fill: none; stroke: #e2e8f0; stroke-linecap: square"/>
     </g>
     <g id="line2d_26">
      <g>
       <use xlink:href="#m5c2a2e752f" x="86.4" y="331.150345" style="fill: #334155; stroke: #334155; stroke-width: 0.8"/>
      </g>
     </g>
     <g id="text_14">
      <!-- 8 -->
      <g style="fill: #334155" transform="translate(71.643125 336.820345) scale(0.14 -0.14)">
       <use xlink:href="#STHeitiTC-Medium-38"/>
      </g>
     </g>
    </g>
    <g id="ytick_6">
     <g id="line2d_27">
      <path d="M 86.4 281.097931 
L 547.2 281.097931 
" clip-path="url(#p5a87c437d5)" style="fill: none; stroke: #e2e8f0; stroke-linecap: square"/>
     </g>
     <g id="line2d_28">
      <g>
       <use xlink:href="#m5c2a2e752f" x="86.4" y="281.097931" style="fill: #334155; stroke: #334155; stroke-width: 0.8"/>
      </g>
     </g>
     <g id="text_15">
      <!-- 10 -->
      <g style="fill: #334155" transform="translate(63.88625 286.767931) scale(0.14 -0.14)">
       <use xlink:href="#STHeitiTC-Medium-31"/>
       <use xlink:href="#STHeitiTC-Medium-30" x="55.399994"/>
      </g>
     </g>
    </g>
    <g id="ytick_7">
     <g id="line2d_29">
      <path d="M 86.4 231.045517 
L 547.2 231.045517 
" clip-path="url(#p5a87c437d5)" style="fill: none; stroke: #e2e8f0; stroke-linecap: square"/>
     </g>
     <g id="line2d_30">
      <g>
       <use xlink:href="#m5c2a2e752f" x="86.4" y="231.045517" style="fill: #334155; stroke: #334155; stroke-width: 0.8"/>
      </g>
     </g>
     <g id="text_16">
      <!-- 12 -->
      <g style="fill: #334155" transform="translate(63.88625 236.715517) scale(0.14 -0.14)">
       <use xlink:href="#STHeitiTC-Medium-31"/>
       <use xlink:href="#STHeitiTC-Medium-32" x="55.399994"/>
      </g>
     </g>
    </g>
    <g id="ytick_8">
     <g id="line2d_31">
      <path d="M 86.4 180.993103 
L 547.2 180.993103 
" clip-path="url(#p5a87c437d5)" style="fill: none; stroke: #e2e8f0; stroke-linecap: square"/>
     </g>
     <g id="line2d_32">
      <g>
       <use xlink:href="#m5c2a2e752f" x="86.4" y="180.993103" style="fill: #334155; stroke: #334155; stroke-width: 0.8"/>
      </g>
     </g>
     <g id="text_17">
      <!-- 14 -->
      <g style="fill: #334155" transform="translate(63.88625 186.663103) scale(0.14 -0.14)">
       <use xlink:href="#STHeitiTC-Medium-31"/>
       <use xlink:href="#STHeitiTC-Medium-34" x="55.399994"/>
      </g>
     </g>
    </g>
    <g id="text_18">
     <!-- Speedup × -->
     <g transform="translate(57.75875 393.3925) rotate(-90) scale(0.16 -0.16)">
      <defs>
       <path id="STHeitiTC-Medium-53" d="M 2317 4038 
Q 2061 4384 1881 4502 
Q 1702 4621 1462 4621 
Q 1222 4621 1059 4467 
Q 896 4314 896 4074 
Q 896 3834 1049 3654 
Q 1203 3475 1756 3068 
Q 2310 2662 2566 2304 
Q 2822 1946 2822 1549 
Q 2822 1030 2422 649 
Q 2022 269 1491 269 
Q 557 269 26 1312 
L 493 1581 
Q 909 806 1427 806 
Q 1760 806 1997 1017 
Q 2234 1229 2234 1510 
Q 2234 1792 2035 2045 
Q 1837 2298 1350 2666 
Q 864 3034 681 3226 
Q 499 3418 416 3635 
Q 333 3853 333 4070 
Q 333 4538 656 4861 
Q 979 5184 1491 5184 
Q 1888 5184 2182 4982 
Q 2477 4781 2758 4384 
L 2317 4038 
z
" transform="scale(0.015625)"/>
       <path id="STHeitiTC-Medium-70" d="M 973 3341 
Q 1491 3962 2252 3962 
Q 3014 3962 3545 3421 
Q 4077 2880 4077 2118 
Q 4077 1357 3552 813 
Q 3027 269 2284 269 
Q 1542 269 973 896 
L 973 -851 
L 448 -851 
L 448 3872 
L 973 3872 
L 973 3341 
z
M 2253 762 
Q 2778 762 3165 1155 
Q 3552 1549 3552 2105 
Q 3552 2662 3171 3056 
Q 2790 3450 2240 3450 
Q 1690 3450 1315 3062 
Q 941 2675 941 2105 
Q 941 1536 1325 1149 
Q 1709 762 2253 762 
z
" transform="scale(0.015625)"/>
       <path id="STHeitiTC-Medium-75" d="M 3450 384 
L 2918 384 
L 2918 909 
Q 2400 294 1690 294 
Q 1312 294 1005 489 
Q 698 685 544 1027 
Q 390 1370 390 2080 
L 390 3872 
L 915 3872 
L 915 2208 
Q 915 1632 969 1424 
Q 1024 1216 1129 1072 
Q 1235 928 1398 857 
Q 1562 787 1795 787 
Q 2029 787 2253 902 
Q 2477 1018 2637 1222 
Q 2797 1427 2857 1657 
Q 2918 1888 2918 2579 
L 2918 3872 
L 3450 3872 
L 3450 384 
z
" transform="scale(0.015625)"/>
       <path id="STHeitiTC-Medium-20" transform="scale(0.015625)"/>
       <path id="STHeitiTC-Medium-d7" d="M 4288 4550 
L 2624 2886 
L 4282 1229 
L 3962 909 
L 2304 2566 
L 646 909 
L 320 1229 
L 1984 2886 
L 320 4550 
L 640 4870 
L 2304 3206 
L 3968 4870 
L 4288 4550 
z
" transform="scale(0.015625)"/>
      </defs>
      <use xlink:href="#STHeitiTC-Medium-53"/>
      <use xlink:href="#STHeitiTC-Medium-70" x="49.799988"/>
      <use xlink:href="#STHeitiTC-Medium-65" x="117.999969"/>
      <use xlink:href="#STHeitiTC-Medium-65" x="182.999954"/>
      <use xlink:href="#STHeitiTC-Medium-64" x="247.999939"/>
      <use xlink:href="#STHeitiTC-Medium-75" x="316.499924"/>
      <use xlink:href="#STHeitiTC-Medium-70" x="377.299911"/>
      <use xlink:href="#STHeitiTC-Medium-20" x="445.499893"/>
      <use xlink:href="#STHeitiTC-Medium-d7" x="470.499878"/>
     </g>
    </g>
   </g>
   <g id="line2d_33">
    <path d="M 107.345455 506.333793 
L 139.569231 481.307586 
L 171.793007 456.281379 
L 204.016783 431.255172 
L 236.240559 406.228966 
L 268.464336 381.202759 
L 300.688112 356.176552 
L 332.911888 331.150345 
L 365.135664 306.124138 
L 397.359441 281.097931 
L 429.583217 256.071724 
L 461.806993 231.045517 
L 494.030769 206.01931 
L 526.254545 180.993103 
" clip-path="url(#p5a87c437d5)" style="fill: none; stroke-dasharray: 7.4,3.2; stroke-dashoffset: 0; stroke: #94a3b8; stroke-width: 2"/>
   </g>
   <g id="line2d_34">
    <path d="M 107.345455 516.840246 
L 139.569231 506.486074 
L 171.793007 499.137931 
L 204.016783 495.699748 
L 236.240559 489.02362 
L 268.464336 482.579033 
L 300.688112 479.008079 
L 332.911888 472.659001 
L 365.135664 471.281699 
L 397.359441 468.072359 
L 429.583217 470.552688 
L 461.806993 469.165664 
L 494.030769 468.313748 
L 526.254545 471.346847 
" clip-path="url(#p5a87c437d5)" style="fill: none; stroke: #2563eb; stroke-width: 2.8; stroke-linecap: square"/>
    <defs>
     <path id="me41e61e6ef" d="M 0 3.25 
C 0.86191 3.25 1.688635 2.907559 2.298097 2.298097 
C 2.907559 1.688635 3.25 0.86191 3.25 0 
C 3.25 -0.86191 2.907559 -1.688635 2.298097 -2.298097 
C 1.688635 -2.907559 0.86191 -3.25 0 -3.25 
C -0.86191 -3.25 -1.688635 -2.907559 -2.298097 -2.298097 
C -2.907559 -1.688635 -3.25 -0.86191 -3.25 0 
C -3.25 0.86191 -2.907559 1.688635 -2.298097 2.298097 
C -1.688635 2.907559 -0.86191 3.25 0 3.25 
z
" style="stroke: #2563eb"/>
    </defs>
    <g clip-path="url(#p5a87c437d5)">
     <use xlink:href="#me41e61e6ef" x="107.345455" y="516.840246" style="fill: #2563eb; stroke: #2563eb"/>
     <use xlink:href="#me41e61e6ef" x="139.569231" y="506.486074" style="fill: #2563eb; stroke: #2563eb"/>
     <use xlink:href="#me41e61e6ef" x="171.793007" y="499.137931" style="fill: #2563eb; stroke: #2563eb"/>
     <use xlink:href="#me41e61e6ef" x="204.016783" y="495.699748" style="fill: #2563eb; stroke: #2563eb"/>
     <use xlink:href="#me41e61e6ef" x="236.240559" y="489.02362" style="fill: #2563eb; stroke: #2563eb"/>
     <use xlink:href="#me41e61e6ef" x="268.464336" y="482.579033" style="fill: #2563eb; stroke: #2563eb"/>
     <use xlink:href="#me41e61e6ef" x="300.688112" y="479.008079" style="fill: #2563eb; stroke: #2563eb"/>
     <use xlink:href="#me41e61e6ef" x="332.911888" y="472.659001" style="fill: #2563eb; stroke: #2563eb"/>
     <use xlink:href="#me41e61e6ef" x="365.135664" y="471.281699" style="fill: #2563eb; stroke: #2563eb"/>
     <use xlink:href="#me41e61e6ef" x="397.359441" y="468.072359" style="fill: #2563eb; stroke: #2563eb"/>
     <use xlink:href="#me41e61e6ef" x="429.583217" y="470.552688" style="fill: #2563eb; stroke: #2563eb"/>
     <use xlink:href="#me41e61e6ef" x="461.806993" y="469.165664" style="fill: #2563eb; stroke: #2563eb"/>
     <use xlink:href="#me41e61e6ef" x="494.030769" y="468.313748" style="fill: #2563eb; stroke: #2563eb"/>
     <use xlink:href="#me41e61e6ef" x="526.254545" y="471.346847" style="fill: #2563eb; stroke: #2563eb"/>
    </g>
   </g>
   <g id="line2d_35">
    <path d="M 107.345455 506.335984 
L 139.569231 492.572147 
L 171.793007 480.554248 
L 204.016783 473.655226 
L 236.240559 466.159227 
L 268.464336 467.529488 
L 300.688112 464.943154 
L 332.911888 459.763502 
L 365.135664 460.92158 
L 397.359441 460.954164 
L 429.583217 461.836678 
L 461.806993 467.495252 
L 494.030769 465.028219 
L 526.254545 468.810478 
" clip-path="url(#p5a87c437d5)" style="fill: none; stroke: #16a34a; stroke-width: 2.8; stroke-linecap: square"/>
    <defs>
     <path id="m674348a8a8" d="M 0 3.25 
C 0.86191 3.25 1.688635 2.907559 2.298097 2.298097 
C 2.907559 1.688635 3.25 0.86191 3.25 0 
C 3.25 -0.86191 2.907559 -1.688635 2.298097 -2.298097 
C 1.688635 -2.907559 0.86191 -3.25 0 -3.25 
C -0.86191 -3.25 -1.688635 -2.907559 -2.298097 -2.298097 
C -2.907559 -1.688635 -3.25 -0.86191 -3.25 0 
C -3.25 0.86191 -2.907559 1.688635 -2.298097 2.298097 
C -1.688635 2.907559 -0.86191 3.25 0 3.25 
z
" style="stroke: #16a34a"/>
    </defs>
    <g clip-path="url(#p5a87c437d5)">
     <use xlink:href="#m674348a8a8" x="107.345455" y="506.335984" style="fill: #16a34a; stroke: #16a34a"/>
     <use xlink:href="#m674348a8a8" x="139.569231" y="492.572147" style="fill: #16a34a; stroke: #16a34a"/>
     <use xlink:href="#m674348a8a8" x="171.793007" y="480.554248" style="fill: #16a34a; stroke: #16a34a"/>
     <use xlink:href="#m674348a8a8" x="204.016783" y="473.655226" style="fill: #16a34a; stroke: #16a34a"/>
     <use xlink:href="#m674348a8a8" x="236.240559" y="466.159227" style="fill: #16a34a; stroke: #16a34a"/>
     <use xlink:href="#m674348a8a8" x="268.464336" y="467.529488" style="fill: #16a34a; stroke: #16a34a"/>
     <use xlink:href="#m674348a8a8" x="300.688112" y="464.943154" style="fill: #16a34a; stroke: #16a34a"/>
     <use xlink:href="#m674348a8a8" x="332.911888" y="459.763502" style="fill: #16a34a; stroke: #16a34a"/>
     <use xlink:href="#m674348a8a8" x="365.135664" y="460.92158" style="fill: #16a34a; stroke: #16a34a"/>
     <use xlink:href="#m674348a8a8" x="397.359441" y="460.954164" style="fill: #16a34a; stroke: #16a34a"/>
     <use xlink:href="#m674348a8a8" x="429.583217" y="461.836678" style="fill: #16a34a; stroke: #16a34a"/>
     <use xlink:href="#m674348a8a8" x="461.806993" y="467.495252" style="fill: #16a34a; stroke: #16a34a"/>
     <use xlink:href="#m674348a8a8" x="494.030769" y="465.028219" style="fill: #16a34a; stroke: #16a34a"/>
     <use xlink:href="#m674348a8a8" x="526.254545" y="468.810478" style="fill: #16a34a; stroke: #16a34a"/>
    </g>
   </g>
   <g id="line2d_36">
    <path d="M 107.345455 530.1749 
L 139.569231 530.200756 
L 171.793007 530.154975 
L 204.016783 530.149926 
L 236.240559 530.251863 
L 268.464336 530.233098 
L 300.688112 530.156761 
L 332.911888 530.180254 
L 365.135664 530.217126 
L 397.359441 530.17915 
L 429.583217 530.209577 
L 461.806993 530.137067 
L 494.030769 530.143857 
L 526.254545 530.19238 
" clip-path="url(#p5a87c437d5)" style="fill: none; stroke: #f97316; stroke-width: 2.8; stroke-linecap: square"/>
    <defs>
     <path id="md7b1cb1574" d="M 0 3.25 
C 0.86191 3.25 1.688635 2.907559 2.298097 2.298097 
C 2.907559 1.688635 3.25 0.86191 3.25 0 
C 3.25 -0.86191 2.907559 -1.688635 2.298097 -2.298097 
C 1.688635 -2.907559 0.86191 -3.25 0 -3.25 
C -0.86191 -3.25 -1.688635 -2.907559 -2.298097 -2.298097 
C -2.907559 -1.688635 -3.25 -0.86191 -3.25 0 
C -3.25 0.86191 -2.907559 1.688635 -2.298097 2.298097 
C -1.688635 2.907559 -0.86191 3.25 0 3.25 
z
" style="stroke: #f97316"/>
    </defs>
    <g clip-path="url(#p5a87c437d5)">
     <use xlink:href="#md7b1cb1574" x="107.345455" y="530.1749" style="fill: #f97316; stroke: #f97316"/>
     <use xlink:href="#md7b1cb1574" x="139.569231" y="530.200756" style="fill: #f97316; stroke: #f97316"/>
     <use xlink:href="#md7b1cb1574" x="171.793007" y="530.154975" style="fill: #f97316; stroke: #f97316"/>
     <use xlink:href="#md7b1cb1574" x="204.016783" y="530.149926" style="fill: #f97316; stroke: #f97316"/>
     <use xlink:href="#md7b1cb1574" x="236.240559" y="530.251863" style="fill: #f97316; stroke: #f97316"/>
     <use xlink:href="#md7b1cb1574" x="268.464336" y="530.233098" style="fill: #f97316; stroke: #f97316"/>
     <use xlink:href="#md7b1cb1574" x="300.688112" y="530.156761" style="fill: #f97316; stroke: #f97316"/>
     <use xlink:href="#md7b1cb1574" x="332.911888" y="530.180254" style="fill: #f97316; stroke: #f97316"/>
     <use xlink:href="#md7b1cb1574" x="365.135664" y="530.217126" style="fill: #f97316; stroke: #f97316"/>
     <use xlink:href="#md7b1cb1574" x="397.359441" y="530.17915" style="fill: #f97316; stroke: #f97316"/>
     <use xlink:href="#md7b1cb1574" x="429.583217" y="530.209577" style="fill: #f97316; stroke: #f97316"/>
     <use xlink:href="#md7b1cb1574" x="461.806993" y="530.137067" style="fill: #f97316; stroke: #f97316"/>
     <use xlink:href="#md7b1cb1574" x="494.030769" y="530.143857" style="fill: #f97316; stroke: #f97316"/>
     <use xlink:href="#md7b1cb1574" x="526.254545" y="530.19238" style="fill: #f97316; stroke: #f97316"/>
    </g>
   </g>
   <g id="line2d_37">
    <path d="M 107.345455 522.166761 
L 139.569231 515.502755 
L 171.793007 508.863058 
L 204.016783 503.283816 
L 236.240559 497.33643 
L 268.464336 492.766277 
L 300.688112 493.281309 
L 332.911888 488.98194 
L 365.135664 486.59472 
L 397.359441 486.059721 
L 429.583217 487.131724 
L 461.806993 484.180646 
L 494.030769 482.528561 
L 526.254545 481.69573 
" clip-path="url(#p5a87c437d5)" style="fill: none; stroke: #8b5cf6; stroke-width: 2.8; stroke-linecap: square"/>
    <defs>
     <path id="mba4897208b" d="M 0 3.25 
C 0.86191 3.25 1.688635 2.907559 2.298097 2.298097 
C 2.907559 1.688635 3.25 0.86191 3.25 0 
C 3.25 -0.86191 2.907559 -1.688635 2.298097 -2.298097 
C 1.688635 -2.907559 0.86191 -3.25 0 -3.25 
C -0.86191 -3.25 -1.688635 -2.907559 -2.298097 -2.298097 
C -2.907559 -1.688635 -3.25 -0.86191 -3.25 0 
C -3.25 0.86191 -2.907559 1.688635 -2.298097 2.298097 
C -1.688635 2.907559 -0.86191 3.25 0 3.25 
z
" style="stroke: #8b5cf6"/>
    </defs>
    <g clip-path="url(#p5a87c437d5)">
     <use xlink:href="#mba4897208b" x="107.345455" y="522.166761" style="fill: #8b5cf6; stroke: #8b5cf6"/>
     <use xlink:href="#mba4897208b" x="139.569231" y="515.502755" style="fill: #8b5cf6; stroke: #8b5cf6"/>
     <use xlink:href="#mba4897208b" x="171.793007" y="508.863058" style="fill: #8b5cf6; stroke: #8b5cf6"/>
     <use xlink:href="#mba4897208b" x="204.016783" y="503.283816" style="fill: #8b5cf6; stroke: #8b5cf6"/>
     <use xlink:href="#mba4897208b" x="236.240559" y="497.33643" style="fill: #8b5cf6; stroke: #8b5cf6"/>
     <use xlink:href="#mba4897208b" x="268.464336" y="492.766277" style="fill: #8b5cf6; stroke: #8b5cf6"/>
     <use xlink:href="#mba4897208b" x="300.688112" y="493.281309" style="fill: #8b5cf6; stroke: #8b5cf6"/>
     <use xlink:href="#mba4897208b" x="332.911888" y="488.98194" style="fill: #8b5cf6; stroke: #8b5cf6"/>
     <use xlink:href="#mba4897208b" x="365.135664" y="486.59472" style="fill: #8b5cf6; stroke: #8b5cf6"/>
     <use xlink:href="#mba4897208b" x="397.359441" y="486.059721" style="fill: #8b5cf6; stroke: #8b5cf6"/>
     <use xlink:href="#mba4897208b" x="429.583217" y="487.131724" style="fill: #8b5cf6; stroke: #8b5cf6"/>
     <use xlink:href="#mba4897208b" x="461.806993" y="484.180646" style="fill: #8b5cf6; stroke: #8b5cf6"/>
     <use xlink:href="#mba4897208b" x="494.030769" y="482.528561" style="fill: #8b5cf6; stroke: #8b5cf6"/>
     <use xlink:href="#mba4897208b" x="526.254545" y="481.69573" style="fill: #8b5cf6; stroke: #8b5cf6"/>
    </g>
   </g>
   <g id="line2d_38">
    <path d="M 107.345455 512.161085 
L 139.569231 499.230286 
L 171.793007 487.144414 
L 204.016783 477.642893 
L 236.240559 471.416759 
L 268.464336 466.876014 
L 300.688112 455.398018 
L 332.911888 451.098171 
L 365.135664 444.351658 
L 397.359441 446.631082 
L 429.583217 445.160287 
L 461.806993 453.639397 
L 494.030769 449.259671 
L 526.254545 438.897797 
" clip-path="url(#p5a87c437d5)" style="fill: none; stroke: #e11d48; stroke-width: 2.8; stroke-linecap: square"/>
    <defs>
     <path id="meb12e080e8" d="M 0 3.25 
C 0.86191 3.25 1.688635 2.907559 2.298097 2.298097 
C 2.907559 1.688635 3.25 0.86191 3.25 0 
C 3.25 -0.86191 2.907559 -1.688635 2.298097 -2.298097 
C 1.688635 -2.907559 0.86191 -3.25 0 -3.25 
C -0.86191 -3.25 -1.688635 -2.907559 -2.298097 -2.298097 
C -2.907559 -1.688635 -3.25 -0.86191 -3.25 0 
C -3.25 0.86191 -2.907559 1.688635 -2.298097 2.298097 
C -1.688635 2.907559 -0.86191 3.25 0 3.25 
z
" style="stroke: #e11d48"/>
    </defs>
    <g clip-path="url(#p5a87c437d5)">
     <use xlink:href="#meb12e080e8" x="107.345455" y="512.161085" style="fill: #e11d48; stroke: #e11d48"/>
     <use xlink:href="#meb12e080e8" x="139.569231" y="499.230286" style="fill: #e11d48; stroke: #e11d48"/>
     <use xlink:href="#meb12e080e8" x="171.793007" y="487.144414" style="fill: #e11d48; stroke: #e11d48"/>
     <use xlink:href="#meb12e080e8" x="204.016783" y="477.642893" style="fill: #e11d48; stroke: #e11d48"/>
     <use xlink:href="#meb12e080e8" x="236.240559" y="471.416759" style="fill: #e11d48; stroke: #e11d48"/>
     <use xlink:href="#meb12e080e8" x="268.464336" y="466.876014" style="fill: #e11d48; stroke: #e11d48"/>
     <use xlink:href="#meb12e080e8" x="300.688112" y="455.398018" style="fill: #e11d48; stroke: #e11d48"/>
     <use xlink:href="#meb12e080e8" x="332.911888" y="451.098171" style="fill: #e11d48; stroke: #e11d48"/>
     <use xlink:href="#meb12e080e8" x="365.135664" y="444.351658" style="fill: #e11d48; stroke: #e11d48"/>
     <use xlink:href="#meb12e080e8" x="397.359441" y="446.631082" style="fill: #e11d48; stroke: #e11d48"/>
     <use xlink:href="#meb12e080e8" x="429.583217" y="445.160287" style="fill: #e11d48; stroke: #e11d48"/>
     <use xlink:href="#meb12e080e8" x="461.806993" y="453.639397" style="fill: #e11d48; stroke: #e11d48"/>
     <use xlink:href="#meb12e080e8" x="494.030769" y="449.259671" style="fill: #e11d48; stroke: #e11d48"/>
     <use xlink:href="#meb12e080e8" x="526.254545" y="438.897797" style="fill: #e11d48; stroke: #e11d48"/>
    </g>
   </g>
   <g id="patch_3">
    <path d="M 86.4 531.36 
L 86.4 168.48 
" style="fill: none; stroke: #cbd5e1; stroke-width: 0.8; stroke-linejoin: miter; stroke-linecap: square"/>
   </g>
   <g id="patch_4">
    <path d="M 547.2 531.36 
L 547.2 168.48 
" style="fill: none; stroke: #cbd5e1; stroke-width: 0.8; stroke-linejoin: miter; stroke-linecap: square"/>
   </g>
   <g id="patch_5">
    <path d="M 86.4 531.36 
L 547.2 531.36 
" style="fill: none; stroke: #cbd5e1; stroke-width: 0.8; stroke-linejoin: miter; stroke-linecap: square"/>
   </g>
   <g id="patch_6">
    <path d="M 86.4 168.48 
L 547.2 168.48 
" style="fill: none; stroke: #cbd5e1; stroke-width: 0.8; stroke-linejoin: miter; stroke-linecap: square"/>
   </g>
   <g id="text_19">
    <!-- Assembly speedup vs serial baseline -->
    <g transform="translate(143.8625 154.48) scale(0.2 -0.2)">
     <defs>
      <path id="STHeitiTC-Medium-41" d="M 4646 384 
L 4064 384 
L 3341 1952 
L 1408 1952 
L 691 384 
L 83 384 
L 2298 5254 
L 2464 5254 
L 4646 384 
z
M 3091 2509 
L 2381 4090 
L 1664 2509 
L 3091 2509 
z
" transform="scale(0.015625)"/>
      <path id="STHeitiTC-Medium-6d" d="M 5613 384 
L 5075 384 
L 5075 2285 
Q 5075 2739 5020 2950 
Q 4966 3162 4784 3306 
Q 4602 3450 4304 3450 
Q 4006 3450 3744 3258 
Q 3482 3066 3379 2736 
Q 3277 2406 3277 1760 
L 3277 384 
L 2758 384 
L 2758 2170 
Q 2758 2694 2704 2924 
Q 2650 3155 2464 3302 
Q 2278 3450 1996 3450 
Q 1715 3450 1462 3274 
Q 1210 3098 1088 2813 
Q 966 2528 966 1869 
L 966 384 
L 442 384 
L 442 3872 
L 966 3872 
L 966 3379 
Q 1414 3962 2086 3962 
Q 2451 3962 2748 3766 
Q 3046 3571 3174 3213 
Q 3392 3578 3718 3770 
Q 4045 3962 4410 3962 
Q 4909 3962 5261 3610 
Q 5613 3258 5613 2285 
L 5613 384 
z
" transform="scale(0.015625)"/>
      <path id="STHeitiTC-Medium-62" d="M 992 3360 
Q 1536 3962 2297 3962 
Q 3059 3962 3580 3421 
Q 4102 2880 4102 2118 
Q 4102 1357 3571 813 
Q 3040 269 2288 269 
Q 1536 269 992 922 
L 992 384 
L 474 384 
L 474 5184 
L 992 5184 
L 992 3360 
z
M 2266 781 
Q 2810 781 3190 1184 
Q 3571 1587 3571 2128 
Q 3571 2669 3200 3072 
Q 2829 3475 2272 3475 
Q 1715 3475 1340 3097 
Q 966 2720 966 2147 
Q 966 1574 1344 1177 
Q 1722 781 2266 781 
z
" transform="scale(0.015625)"/>
      <path id="STHeitiTC-Medium-6c" d="M 902 384 
L 378 384 
L 378 5184 
L 902 5184 
L 902 384 
z
" transform="scale(0.015625)"/>
      <path id="STHeitiTC-Medium-79" d="M 3418 3872 
L 1350 -851 
L 800 -851 
L 1472 685 
L 58 3872 
L 608 3872 
L 1754 1318 
L 2861 3872 
L 3418 3872 
z
" transform="scale(0.015625)"/>
      <path id="STHeitiTC-Medium-76" d="M 3430 3872 
L 1837 269 
L 1709 269 
L 102 3872 
L 659 3872 
L 1766 1350 
L 2874 3872 
L 3430 3872 
z
" transform="scale(0.015625)"/>
      <path id="STHeitiTC-Medium-69" d="M 640 5184 
Q 813 5184 931 5065 
Q 1050 4947 1050 4777 
Q 1050 4608 931 4489 
Q 813 4371 643 4371 
Q 474 4371 355 4492 
Q 237 4614 237 4777 
Q 237 4941 355 5062 
Q 474 5184 640 5184 
z
M 909 384 
L 378 384 
L 378 3872 
L 909 3872 
L 909 384 
z
" transform="scale(0.015625)"/>
      <path id="STHeitiTC-Medium-6e" d="M 3501 384 
L 2976 384 
L 2976 2048 
Q 2976 2624 2921 2832 
Q 2867 3040 2761 3184 
Q 2656 3328 2493 3398 
Q 2330 3469 2096 3469 
Q 1862 3469 1638 3353 
Q 1414 3238 1254 3033 
Q 1094 2829 1033 2598 
Q 973 2368 973 1677 
L 973 384 
L 442 384 
L 442 3872 
L 973 3872 
L 973 3347 
Q 1491 3962 2202 3962 
Q 2579 3962 2886 3766 
Q 3194 3571 3347 3228 
Q 3501 2886 3501 2176 
L 3501 384 
z
" transform="scale(0.015625)"/>
     </defs>
     <use xlink:href="#STHeitiTC-Medium-41"/>
     <use xlink:href="#STHeitiTC-Medium-73" x="73.999985"/>
     <use xlink:href="#STHeitiTC-Medium-73" x="112.799973"/>
     <use xlink:href="#STHeitiTC-Medium-65" x="151.59996"/>
     <use xlink:href="#STHeitiTC-Medium-6d" x="216.599945"/>
     <use xlink:href="#STHeitiTC-Medium-62" x="310.399933"/>
     <use xlink:href="#STHeitiTC-Medium-6c" x="378.599915"/>
     <use xlink:href="#STHeitiTC-Medium-79" x="398.599899"/>
     <use xlink:href="#STHeitiTC-Medium-20" x="452.19989"/>
     <use xlink:href="#STHeitiTC-Medium-73" x="477.199875"/>
     <use xlink:href="#STHeitiTC-Medium-70" x="515.999863"/>
     <use xlink:href="#STHeitiTC-Medium-65" x="584.199844"/>
     <use xlink:href="#STHeitiTC-Medium-65" x="649.199829"/>
     <use xlink:href="#STHeitiTC-Medium-64" x="714.199814"/>
     <use xlink:href="#STHeitiTC-Medium-75" x="782.699799"/>
     <use xlink:href="#STHeitiTC-Medium-70" x="843.499786"/>
     <use xlink:href="#STHeitiTC-Medium-20" x="911.699768"/>
     <use xlink:href="#STHeitiTC-Medium-76" x="936.699753"/>
     <use xlink:href="#STHeitiTC-Medium-73" x="992.099747"/>
     <use xlink:href="#STHeitiTC-Medium-20" x="1030.899734"/>
     <use xlink:href="#STHeitiTC-Medium-73" x="1055.899719"/>
     <use xlink:href="#STHeitiTC-Medium-65" x="1094.699707"/>
     <use xlink:href="#STHeitiTC-Medium-72" x="1159.699692"/>
     <use xlink:href="#STHeitiTC-Medium-69" x="1189.799683"/>
     <use xlink:href="#STHeitiTC-Medium-61" x="1209.799667"/>
     <use xlink:href="#STHeitiTC-Medium-6c" x="1278.099655"/>
     <use xlink:href="#STHeitiTC-Medium-20" x="1298.09964"/>
     <use xlink:href="#STHeitiTC-Medium-62" x="1323.099625"/>
     <use xlink:href="#STHeitiTC-Medium-61" x="1391.299606"/>
     <use xlink:href="#STHeitiTC-Medium-73" x="1459.599594"/>
     <use xlink:href="#STHeitiTC-Medium-65" x="1498.399582"/>
     <use xlink:href="#STHeitiTC-Medium-6c" x="1563.399567"/>
     <use xlink:href="#STHeitiTC-Medium-69" x="1583.399551"/>
     <use xlink:href="#STHeitiTC-Medium-6e" x="1603.399536"/>
     <use xlink:href="#STHeitiTC-Medium-65" x="1664.399521"/>
    </g>
   </g>
  </g>
  <g id="axes_2">
   <g id="patch_7">
    <path d="M 639.36 531.36 
L 1077.12 531.36 
L 1077.12 168.48 
L 639.36 168.48 
z
" style="fill: #ffffff"/>
   </g>
   <g id="matplotlib.axis_3">
    <g id="xtick_9">
     <g id="line2d_39">
      <path d="M 659.258182 531.36 
L 659.258182 168.48 
" clip-path="url(#p8c36e3ee2c)" style="fill: none; stroke: #e2e8f0; stroke-linecap: square"/>
     </g>
     <g id="line2d_40">
      <g>
       <use xlink:href="#mb053f90e1c" x="659.258182" y="531.36" style="fill: #334155; stroke: #334155; stroke-width: 0.8"/>
      </g>
     </g>
     <g id="text_20">
      <!-- 1 -->
      <g style="fill: #334155" transform="translate(655.379744 549.7) scale(0.14 -0.14)">
       <use xlink:href="#STHeitiTC-Medium-31"/>
      </g>
     </g>
    </g>
    <g id="xtick_10">
     <g id="line2d_41">
      <path d="M 689.870769 531.36 
L 689.870769 168.48 
" clip-path="url(#p8c36e3ee2c)" style="fill: none; stroke: #e2e8f0; stroke-linecap: square"/>
     </g>
     <g id="line2d_42">
      <g>
       <use xlink:href="#mb053f90e1c" x="689.870769" y="531.36" style="fill: #334155; stroke: #334155; stroke-width: 0.8"/>
      </g>
     </g>
     <g id="text_21">
      <!-- 2 -->
      <g style="fill: #334155" transform="translate(685.992332 549.7) scale(0.14 -0.14)">
       <use xlink:href="#STHeitiTC-Medium-32"/>
      </g>
     </g>
    </g>
    <g id="xtick_11">
     <g id="line2d_43">
      <path d="M 751.095944 531.36 
L 751.095944 168.48 
" clip-path="url(#p8c36e3ee2c)" style="fill: none; stroke: #e2e8f0; stroke-linecap: square"/>
     </g>
     <g id="line2d_44">
      <g>
       <use xlink:href="#mb053f90e1c" x="751.095944" y="531.36" style="fill: #334155; stroke: #334155; stroke-width: 0.8"/>
      </g>
     </g>
     <g id="text_22">
      <!-- 4 -->
      <g style="fill: #334155" transform="translate(747.217507 549.7) scale(0.14 -0.14)">
       <use xlink:href="#STHeitiTC-Medium-34"/>
      </g>
     </g>
    </g>
    <g id="xtick_12">
     <g id="line2d_45">
      <path d="M 812.321119 531.36 
L 812.321119 168.48 
" clip-path="url(#p8c36e3ee2c)" style="fill: none; stroke: #e2e8f0; stroke-linecap: square"/>
     </g>
     <g id="line2d_46">
      <g>
       <use xlink:href="#mb053f90e1c" x="812.321119" y="531.36" style="fill: #334155; stroke: #334155; stroke-width: 0.8"/>
      </g>
     </g>
     <g id="text_23">
      <!-- 6 -->
      <g style="fill: #334155" transform="translate(808.442681 549.7) scale(0.14 -0.14)">
       <use xlink:href="#STHeitiTC-Medium-36"/>
      </g>
     </g>
    </g>
    <g id="xtick_13">
     <g id="line2d_47">
      <path d="M 873.546294 531.36 
L 873.546294 168.48 
" clip-path="url(#p8c36e3ee2c)" style="fill: none; stroke: #e2e8f0; stroke-linecap: square"/>
     </g>
     <g id="line2d_48">
      <g>
       <use xlink:href="#mb053f90e1c" x="873.546294" y="531.36" style="fill: #334155; stroke: #334155; stroke-width: 0.8"/>
      </g>
     </g>
     <g id="text_24">
      <!-- 8 -->
      <g style="fill: #334155" transform="translate(869.667856 549.7) scale(0.14 -0.14)">
       <use xlink:href="#STHeitiTC-Medium-38"/>
      </g>
     </g>
    </g>
    <g id="xtick_14">
     <g id="line2d_49">
      <path d="M 934.771469 531.36 
L 934.771469 168.48 
" clip-path="url(#p8c36e3ee2c)" style="fill: none; stroke: #e2e8f0; stroke-linecap: square"/>
     </g>
     <g id="line2d_50">
      <g>
       <use xlink:href="#mb053f90e1c" x="934.771469" y="531.36" style="fill: #334155; stroke: #334155; stroke-width: 0.8"/>
      </g>
     </g>
     <g id="text_25">
      <!-- 10 -->
      <g style="fill: #334155" transform="translate(927.014594 549.7) scale(0.14 -0.14)">
       <use xlink:href="#STHeitiTC-Medium-31"/>
       <use xlink:href="#STHeitiTC-Medium-30" x="55.399994"/>
      </g>
     </g>
    </g>
    <g id="xtick_15">
     <g id="line2d_51">
      <path d="M 995.996643 531.36 
L 995.996643 168.48 
" clip-path="url(#p8c36e3ee2c)" style="fill: none; stroke: #e2e8f0; stroke-linecap: square"/>
     </g>
     <g id="line2d_52">
      <g>
       <use xlink:href="#mb053f90e1c" x="995.996643" y="531.36" style="fill: #334155; stroke: #334155; stroke-width: 0.8"/>
      </g>
     </g>
     <g id="text_26">
      <!-- 12 -->
      <g style="fill: #334155" transform="translate(988.239768 549.7) scale(0.14 -0.14)">
       <use xlink:href="#STHeitiTC-Medium-31"/>
       <use xlink:href="#STHeitiTC-Medium-32" x="55.399994"/>
      </g>
     </g>
    </g>
    <g id="xtick_16">
     <g id="line2d_53">
      <path d="M 1057.221818 531.36 
L 1057.221818 168.48 
" clip-path="url(#p8c36e3ee2c)" style="fill: none; stroke: #e2e8f0; stroke-linecap: square"/>
     </g>
     <g id="line2d_54">
      <g>
       <use xlink:href="#mb053f90e1c" x="1057.221818" y="531.36" style="fill: #334155; stroke: #334155; stroke-width: 0.8"/>
      </g>
     </g>
     <g id="text_27">
      <!-- 14 -->
      <g style="fill: #334155" transform="translate(1049.464943 549.7) scale(0.14 -0.14)">
       <use xlink:href="#STHeitiTC-Medium-31"/>
       <use xlink:href="#STHeitiTC-Medium-34" x="55.399994"/>
      </g>
     </g>
    </g>
    <g id="text_28">
     <!-- Threads -->
     <g transform="translate(828.2975 568.521563) scale(0.16 -0.16)">
      <use xlink:href="#STHeitiTC-Medium-54"/>
      <use xlink:href="#STHeitiTC-Medium-68" x="42.599991"/>
      <use xlink:href="#STHeitiTC-Medium-72" x="103.599976"/>
      <use xlink:href="#STHeitiTC-Medium-65" x="133.699966"/>
      <use xlink:href="#STHeitiTC-Medium-61" x="198.699951"/>
      <use xlink:href="#STHeitiTC-Medium-64" x="266.999939"/>
      <use xlink:href="#STHeitiTC-Medium-73" x="335.499924"/>
     </g>
    </g>
   </g>
   <g id="matplotlib.axis_4">
    <g id="ytick_9">
     <g id="line2d_55">
      <path d="M 639.36 531.36 
L 1077.12 531.36 
" clip-path="url(#p8c36e3ee2c)" style="fill: none; stroke: #e2e8f0; stroke-linecap: square"/>
     </g>
     <g id="line2d_56">
      <g>
       <use xlink:href="#m5c2a2e752f" x="639.36" y="531.36" style="fill: #334155; stroke: #334155; stroke-width: 0.8"/>
      </g>
     </g>
     <g id="text_29">
      <!-- 0.0 -->
      <g style="fill: #334155" transform="translate(612.967813 537.03) scale(0.14 -0.14)">
       <defs>
        <path id="STHeitiTC-Medium-2e" d="M 966 1478 
Q 1146 1478 1270 1353 
Q 1395 1229 1395 1046 
Q 1395 864 1270 739 
Q 1146 614 970 614 
Q 794 614 666 742 
Q 538 870 538 1049 
Q 538 1229 666 1353 
Q 794 1478 966 1478 
z
" transform="scale(0.015625)"/>
       </defs>
       <use xlink:href="#STHeitiTC-Medium-30"/>
       <use xlink:href="#STHeitiTC-Medium-2e" x="55.399994"/>
       <use xlink:href="#STHeitiTC-Medium-30" x="83.099991"/>
      </g>
     </g>
    </g>
    <g id="ytick_10">
     <g id="line2d_57">
      <path d="M 639.36 462.24 
L 1077.12 462.24 
" clip-path="url(#p8c36e3ee2c)" style="fill: none; stroke: #e2e8f0; stroke-linecap: square"/>
     </g>
     <g id="line2d_58">
      <g>
       <use xlink:href="#m5c2a2e752f" x="639.36" y="462.24" style="fill: #334155; stroke: #334155; stroke-width: 0.8"/>
      </g>
     </g>
     <g id="text_30">
      <!-- 0.2 -->
      <g style="fill: #334155" transform="translate(612.967813 467.91) scale(0.14 -0.14)">
       <use xlink:href="#STHeitiTC-Medium-30"/>
       <use xlink:href="#STHeitiTC-Medium-2e" x="55.399994"/>
       <use xlink:href="#STHeitiTC-Medium-32" x="83.099991"/>
      </g>
     </g>
    </g>
    <g id="ytick_11">
     <g id="line2d_59">
      <path d="M 639.36 393.12 
L 1077.12 393.12 
" clip-path="url(#p8c36e3ee2c)" style="fill: none; stroke: #e2e8f0; stroke-linecap: square"/>
     </g>
     <g id="line2d_60">
      <g>
       <use xlink:href="#m5c2a2e752f" x="639.36" y="393.12" style="fill: #334155; stroke: #334155; stroke-width: 0.8"/>
      </g>
     </g>
     <g id="text_31">
      <!-- 0.4 -->
      <g style="fill: #334155" transform="translate(612.967813 398.79) scale(0.14 -0.14)">
       <use xlink:href="#STHeitiTC-Medium-30"/>
       <use xlink:href="#STHeitiTC-Medium-2e" x="55.399994"/>
       <use xlink:href="#STHeitiTC-Medium-34" x="83.099991"/>
      </g>
     </g>
    </g>
    <g id="ytick_12">
     <g id="line2d_61">
      <path d="M 639.36 324 
L 1077.12 324 
" clip-path="url(#p8c36e3ee2c)" style="fill: none; stroke: #e2e8f0; stroke-linecap: square"/>
     </g>
     <g id="line2d_62">
      <g>
       <use xlink:href="#m5c2a2e752f" x="639.36" y="324" style="fill: #334155; stroke: #334155; stroke-width: 0.8"/>
      </g>
     </g>
     <g id="text_32">
      <!-- 0.6 -->
      <g style="fill: #334155" transform="translate(612.967813 329.67) scale(0.14 -0.14)">
       <use xlink:href="#STHeitiTC-Medium-30"/>
       <use xlink:href="#STHeitiTC-Medium-2e" x="55.399994"/>
       <use xlink:href="#STHeitiTC-Medium-36" x="83.099991"/>
      </g>
     </g>
    </g>
    <g id="ytick_13">
     <g id="line2d_63">
      <path d="M 639.36 254.88 
L 1077.12 254.88 
" clip-path="url(#p8c36e3ee2c)" style="fill: none; stroke: #e2e8f0; stroke-linecap: square"/>
     </g>
     <g id="line2d_64">
      <g>
       <use xlink:href="#m5c2a2e752f" x="639.36" y="254.88" style="fill: #334155; stroke: #334155; stroke-width: 0.8"/>
      </g>
     </g>
     <g id="text_33">
      <!-- 0.8 -->
      <g style="fill: #334155" transform="translate(612.967813 260.55) scale(0.14 -0.14)">
       <use xlink:href="#STHeitiTC-Medium-30"/>
       <use xlink:href="#STHeitiTC-Medium-2e" x="55.399994"/>
       <use xlink:href="#STHeitiTC-Medium-38" x="83.099991"/>
      </g>
     </g>
    </g>
    <g id="ytick_14">
     <g id="line2d_65">
      <path d="M 639.36 185.76 
L 1077.12 185.76 
" clip-path="url(#p8c36e3ee2c)" style="fill: none; stroke: #e2e8f0; stroke-linecap: square"/>
     </g>
     <g id="line2d_66">
      <g>
       <use xlink:href="#m5c2a2e752f" x="639.36" y="185.76" style="fill: #334155; stroke: #334155; stroke-width: 0.8"/>
      </g>
     </g>
     <g id="text_34">
      <!-- 1.0 -->
      <g style="fill: #334155" transform="translate(612.967813 191.43) scale(0.14 -0.14)">
       <use xlink:href="#STHeitiTC-Medium-31"/>
       <use xlink:href="#STHeitiTC-Medium-2e" x="55.399994"/>
       <use xlink:href="#STHeitiTC-Medium-30" x="83.099991"/>
      </g>
     </g>
    </g>
    <g id="text_35">
     <!-- Efficiency -->
     <g transform="translate(606.840312 387.1525) rotate(-90) scale(0.16 -0.16)">
      <defs>
       <path id="STHeitiTC-Medium-45" d="M 3245 4525 
L 1069 4525 
L 1069 3181 
L 3226 3181 
L 3226 2643 
L 1069 2643 
L 1069 928 
L 3226 928 
L 3226 384 
L 518 384 
L 518 5069 
L 3245 5069 
L 3245 4525 
z
" transform="scale(0.015625)"/>
       <path id="STHeitiTC-Medium-66" d="M 1933 4557 
Q 1626 4685 1453 4685 
Q 1280 4685 1229 4573 
Q 1178 4461 1178 4198 
L 1178 3872 
L 1888 3872 
L 1888 3411 
L 1178 3411 
L 1178 384 
L 646 384 
L 646 3411 
L 205 3411 
L 205 3872 
L 646 3872 
L 646 4269 
Q 646 4742 822 4963 
Q 998 5184 1376 5184 
Q 1581 5184 1933 5088 
L 1933 4557 
z
" transform="scale(0.015625)"/>
       <path id="STHeitiTC-Medium-63" d="M 3853 1094 
Q 3578 691 3133 480 
Q 2688 269 2170 269 
Q 1363 269 822 800 
Q 282 1331 282 2099 
Q 282 2867 826 3414 
Q 1370 3962 2234 3962 
Q 2746 3962 3178 3738 
Q 3610 3514 3853 3110 
L 3437 2848 
Q 2970 3456 2214 3456 
Q 1619 3456 1216 3075 
Q 813 2694 813 2131 
Q 813 1568 1209 1165 
Q 1606 762 2214 762 
Q 2944 762 3443 1376 
L 3853 1094 
z
" transform="scale(0.015625)"/>
      </defs>
      <use xlink:href="#STHeitiTC-Medium-45"/>
      <use xlink:href="#STHeitiTC-Medium-66" x="53.599991"/>
      <use xlink:href="#STHeitiTC-Medium-66" x="84.999985"/>
      <use xlink:href="#STHeitiTC-Medium-69" x="116.399979"/>
      <use xlink:href="#STHeitiTC-Medium-63" x="136.399963"/>
      <use xlink:href="#STHeitiTC-Medium-69" x="201.09996"/>
      <use xlink:href="#STHeitiTC-Medium-65" x="221.099945"/>
      <use xlink:href="#STHeitiTC-Medium-6e" x="286.09993"/>
      <use xlink:href="#STHeitiTC-Medium-63" x="347.099915"/>
      <use xlink:href="#STHeitiTC-Medium-79" x="411.799911"/>
     </g>
    </g>
   </g>
   <g id="line2d_67">
    <path d="M 659.258182 330.849107 
L 689.870769 359.611462 
L 720.483357 383.03619 
L 751.095944 408.247225 
L 781.708531 414.430951 
L 812.321119 419.086345 
L 842.933706 428.0807 
L 873.546294 430.030895 
L 904.158881 439.176364 
L 934.771469 443.962781 
L 965.384056 455.021817 
L 995.996643 459.787153 
L 1026.609231 464.387791 
L 1057.221818 472.163353 
" clip-path="url(#p8c36e3ee2c)" style="fill: none; stroke: #2563eb; stroke-width: 2.8; stroke-linecap: square"/>
    <g clip-path="url(#p8c36e3ee2c)">
     <use xlink:href="#me41e61e6ef" x="659.258182" y="330.849107" style="fill: #2563eb; stroke: #2563eb"/>
     <use xlink:href="#me41e61e6ef" x="689.870769" y="359.611462" style="fill: #2563eb; stroke: #2563eb"/>
     <use xlink:href="#me41e61e6ef" x="720.483357" y="383.03619" style="fill: #2563eb; stroke: #2563eb"/>
     <use xlink:href="#me41e61e6ef" x="751.095944" y="408.247225" style="fill: #2563eb; stroke: #2563eb"/>
     <use xlink:href="#me41e61e6ef" x="781.708531" y="414.430951" style="fill: #2563eb; stroke: #2563eb"/>
     <use xlink:href="#me41e61e6ef" x="812.321119" y="419.086345" style="fill: #2563eb; stroke: #2563eb"/>
     <use xlink:href="#me41e61e6ef" x="842.933706" y="428.0807" style="fill: #2563eb; stroke: #2563eb"/>
     <use xlink:href="#me41e61e6ef" x="873.546294" y="430.030895" style="fill: #2563eb; stroke: #2563eb"/>
     <use xlink:href="#me41e61e6ef" x="904.158881" y="439.176364" style="fill: #2563eb; stroke: #2563eb"/>
     <use xlink:href="#me41e61e6ef" x="934.771469" y="443.962781" style="fill: #2563eb; stroke: #2563eb"/>
     <use xlink:href="#me41e61e6ef" x="965.384056" y="455.021817" style="fill: #2563eb; stroke: #2563eb"/>
     <use xlink:href="#me41e61e6ef" x="995.996643" y="459.787153" style="fill: #2563eb; stroke: #2563eb"/>
     <use xlink:href="#me41e61e6ef" x="1026.609231" y="464.387791" style="fill: #2563eb; stroke: #2563eb"/>
     <use xlink:href="#me41e61e6ef" x="1057.221818" y="472.163353" style="fill: #2563eb; stroke: #2563eb"/>
    </g>
   </g>
   <g id="line2d_68">
    <path d="M 659.258182 185.790249 
L 689.870769 263.539108 
L 720.483357 297.492251 
L 751.095944 332.141136 
L 781.708531 351.281675 
L 812.321119 384.448505 
L 842.933706 400.333569 
L 873.546294 407.770807 
L 904.158881 423.279884 
L 934.771469 434.132894 
L 965.384056 444.079639 
L 995.996643 457.864853 
L 1026.609231 460.897668 
L 1057.221818 469.661492 
" clip-path="url(#p8c36e3ee2c)" style="fill: none; stroke: #16a34a; stroke-width: 2.8; stroke-linecap: square"/>
    <g clip-path="url(#p8c36e3ee2c)">
     <use xlink:href="#m674348a8a8" x="659.258182" y="185.790249" style="fill: #16a34a; stroke: #16a34a"/>
     <use xlink:href="#m674348a8a8" x="689.870769" y="263.539108" style="fill: #16a34a; stroke: #16a34a"/>
     <use xlink:href="#m674348a8a8" x="720.483357" y="297.492251" style="fill: #16a34a; stroke: #16a34a"/>
     <use xlink:href="#m674348a8a8" x="751.095944" y="332.141136" style="fill: #16a34a; stroke: #16a34a"/>
     <use xlink:href="#m674348a8a8" x="781.708531" y="351.281675" style="fill: #16a34a; stroke: #16a34a"/>
     <use xlink:href="#m674348a8a8" x="812.321119" y="384.448505" style="fill: #16a34a; stroke: #16a34a"/>
     <use xlink:href="#m674348a8a8" x="842.933706" y="400.333569" style="fill: #16a34a; stroke: #16a34a"/>
     <use xlink:href="#m674348a8a8" x="873.546294" y="407.770807" style="fill: #16a34a; stroke: #16a34a"/>
     <use xlink:href="#m674348a8a8" x="904.158881" y="423.279884" style="fill: #16a34a; stroke: #16a34a"/>
     <use xlink:href="#m674348a8a8" x="934.771469" y="434.132894" style="fill: #16a34a; stroke: #16a34a"/>
     <use xlink:href="#m674348a8a8" x="965.384056" y="444.079639" style="fill: #16a34a; stroke: #16a34a"/>
     <use xlink:href="#m674348a8a8" x="995.996643" y="457.864853" style="fill: #16a34a; stroke: #16a34a"/>
     <use xlink:href="#m674348a8a8" x="1026.609231" y="460.897668" style="fill: #16a34a; stroke: #16a34a"/>
     <use xlink:href="#m674348a8a8" x="1057.221818" y="469.661492" style="fill: #16a34a; stroke: #16a34a"/>
    </g>
   </g>
   <g id="line2d_69">
    <path d="M 659.258182 514.994336 
L 689.870769 523.355694 
L 720.483357 525.813059 
L 751.095944 527.182363 
L 781.708531 528.299432 
L 812.321119 528.766336 
L 842.933706 528.986264 
L 873.546294 529.323533 
L 904.158881 529.606384 
L 934.771469 529.729303 
L 965.384056 529.915747 
L 995.996643 529.952657 
L 1026.609231 530.068127 
L 1057.221818 530.208266 
" clip-path="url(#p8c36e3ee2c)" style="fill: none; stroke: #f97316; stroke-width: 2.8; stroke-linecap: square"/>
    <g clip-path="url(#p8c36e3ee2c)">
     <use xlink:href="#md7b1cb1574" x="659.258182" y="514.994336" style="fill: #f97316; stroke: #f97316"/>
     <use xlink:href="#md7b1cb1574" x="689.870769" y="523.355694" style="fill: #f97316; stroke: #f97316"/>
     <use xlink:href="#md7b1cb1574" x="720.483357" y="525.813059" style="fill: #f97316; stroke: #f97316"/>
     <use xlink:href="#md7b1cb1574" x="751.095944" y="527.182363" style="fill: #f97316; stroke: #f97316"/>
     <use xlink:href="#md7b1cb1574" x="781.708531" y="528.299432" style="fill: #f97316; stroke: #f97316"/>
     <use xlink:href="#md7b1cb1574" x="812.321119" y="528.766336" style="fill: #f97316; stroke: #f97316"/>
     <use xlink:href="#md7b1cb1574" x="842.933706" y="528.986264" style="fill: #f97316; stroke: #f97316"/>
     <use xlink:href="#md7b1cb1574" x="873.546294" y="529.323533" style="fill: #f97316; stroke: #f97316"/>
     <use xlink:href="#md7b1cb1574" x="904.158881" y="529.606384" style="fill: #f97316; stroke: #f97316"/>
     <use xlink:href="#md7b1cb1574" x="934.771469" y="529.729303" style="fill: #f97316; stroke: #f97316"/>
     <use xlink:href="#md7b1cb1574" x="965.384056" y="529.915747" style="fill: #f97316; stroke: #f97316"/>
     <use xlink:href="#md7b1cb1574" x="995.996643" y="529.952657" style="fill: #f97316; stroke: #f97316"/>
     <use xlink:href="#md7b1cb1574" x="1026.609231" y="530.068127" style="fill: #f97316; stroke: #f97316"/>
     <use xlink:href="#md7b1cb1574" x="1057.221818" y="530.208266" style="fill: #f97316; stroke: #f97316"/>
    </g>
   </g>
   <g id="line2d_70">
    <path d="M 659.258182 404.405748 
L 689.870769 421.869501 
L 720.483357 427.802648 
L 751.095944 434.430319 
L 781.708531 437.39014 
L 812.321119 442.533178 
L 842.933706 456.238773 
L 873.546294 458.207396 
L 904.158881 462.672534 
L 934.771469 468.802472 
L 965.384056 475.835324 
L 995.996643 477.066299 
L 1026.609231 479.487775 
L 1057.221818 482.371435 
" clip-path="url(#p8c36e3ee2c)" style="fill: none; stroke: #8b5cf6; stroke-width: 2.8; stroke-linecap: square"/>
    <g clip-path="url(#p8c36e3ee2c)">
     <use xlink:href="#mba4897208b" x="659.258182" y="404.405748" style="fill: #8b5cf6; stroke: #8b5cf6"/>
     <use xlink:href="#mba4897208b" x="689.870769" y="421.869501" style="fill: #8b5cf6; stroke: #8b5cf6"/>
     <use xlink:href="#mba4897208b" x="720.483357" y="427.802648" style="fill: #8b5cf6; stroke: #8b5cf6"/>
     <use xlink:href="#mba4897208b" x="751.095944" y="434.430319" style="fill: #8b5cf6; stroke: #8b5cf6"/>
     <use xlink:href="#mba4897208b" x="781.708531" y="437.39014" style="fill: #8b5cf6; stroke: #8b5cf6"/>
     <use xlink:href="#mba4897208b" x="812.321119" y="442.533178" style="fill: #8b5cf6; stroke: #8b5cf6"/>
     <use xlink:href="#mba4897208b" x="842.933706" y="456.238773" style="fill: #8b5cf6; stroke: #8b5cf6"/>
     <use xlink:href="#mba4897208b" x="873.546294" y="458.207396" style="fill: #8b5cf6; stroke: #8b5cf6"/>
     <use xlink:href="#mba4897208b" x="904.158881" y="462.672534" style="fill: #8b5cf6; stroke: #8b5cf6"/>
     <use xlink:href="#mba4897208b" x="934.771469" y="468.802472" style="fill: #8b5cf6; stroke: #8b5cf6"/>
     <use xlink:href="#mba4897208b" x="965.384056" y="475.835324" style="fill: #8b5cf6; stroke: #8b5cf6"/>
     <use xlink:href="#mba4897208b" x="995.996643" y="477.066299" style="fill: #8b5cf6; stroke: #8b5cf6"/>
     <use xlink:href="#mba4897208b" x="1026.609231" y="479.487775" style="fill: #8b5cf6; stroke: #8b5cf6"/>
     <use xlink:href="#mba4897208b" x="1057.221818" y="482.371435" style="fill: #8b5cf6; stroke: #8b5cf6"/>
    </g>
   </g>
   <g id="line2d_71">
    <path d="M 659.258182 266.232125 
L 689.870769 309.511975 
L 720.483357 327.827935 
L 751.095944 345.908083 
L 781.708531 365.802477 
L 812.321119 382.944476 
L 842.933706 381.503029 
L 873.546294 392.812796 
L 904.158881 397.855136 
L 934.771469 414.353399 
L 965.384056 423.14391 
L 995.996643 441.919623 
L 1026.609231 444.147196 
L 1057.221818 440.155786 
" clip-path="url(#p8c36e3ee2c)" style="fill: none; stroke: #e11d48; stroke-width: 2.8; stroke-linecap: square"/>
    <g clip-path="url(#p8c36e3ee2c)">
     <use xlink:href="#meb12e080e8" x="659.258182" y="266.232125" style="fill: #e11d48; stroke: #e11d48"/>
     <use xlink:href="#meb12e080e8" x="689.870769" y="309.511975" style="fill: #e11d48; stroke: #e11d48"/>
     <use xlink:href="#meb12e080e8" x="720.483357" y="327.827935" style="fill: #e11d48; stroke: #e11d48"/>
     <use xlink:href="#meb12e080e8" x="751.095944" y="345.908083" style="fill: #e11d48; stroke: #e11d48"/>
     <use xlink:href="#meb12e080e8" x="781.708531" y="365.802477" style="fill: #e11d48; stroke: #e11d48"/>
     <use xlink:href="#meb12e080e8" x="812.321119" y="382.944476" style="fill: #e11d48; stroke: #e11d48"/>
     <use xlink:href="#meb12e080e8" x="842.933706" y="381.503029" style="fill: #e11d48; stroke: #e11d48"/>
     <use xlink:href="#meb12e080e8" x="873.546294" y="392.812796" style="fill: #e11d48; stroke: #e11d48"/>
     <use xlink:href="#meb12e080e8" x="904.158881" y="397.855136" style="fill: #e11d48; stroke: #e11d48"/>
     <use xlink:href="#meb12e080e8" x="934.771469" y="414.353399" style="fill: #e11d48; stroke: #e11d48"/>
     <use xlink:href="#meb12e080e8" x="965.384056" y="423.14391" style="fill: #e11d48; stroke: #e11d48"/>
     <use xlink:href="#meb12e080e8" x="995.996643" y="441.919623" style="fill: #e11d48; stroke: #e11d48"/>
     <use xlink:href="#meb12e080e8" x="1026.609231" y="444.147196" style="fill: #e11d48; stroke: #e11d48"/>
     <use xlink:href="#meb12e080e8" x="1057.221818" y="440.155786" style="fill: #e11d48; stroke: #e11d48"/>
    </g>
   </g>
   <g id="patch_8">
    <path d="M 639.36 531.36 
L 639.36 168.48 
" style="fill: none; stroke: #cbd5e1; stroke-width: 0.8; stroke-linejoin: miter; stroke-linecap: square"/>
   </g>
   <g id="patch_9">
    <path d="M 1077.12 531.36 
L 1077.12 168.48 
" style="fill: none; stroke: #cbd5e1; stroke-width: 0.8; stroke-linejoin: miter; stroke-linecap: square"/>
   </g>
   <g id="patch_10">
    <path d="M 639.36 531.36 
L 1077.12 531.36 
" style="fill: none; stroke: #cbd5e1; stroke-width: 0.8; stroke-linejoin: miter; stroke-linecap: square"/>
   </g>
   <g id="patch_11">
    <path d="M 639.36 168.48 
L 1077.12 168.48 
" style="fill: none; stroke: #cbd5e1; stroke-width: 0.8; stroke-linejoin: miter; stroke-linecap: square"/>
   </g>
   <g id="text_36">
    <!-- Parallel efficiency = speedup / threads -->
    <g transform="translate(672.530625 154.48) scale(0.2 -0.2)">
     <defs>
      <path id="STHeitiTC-Medium-50" d="M 512 5069 
L 1472 5069 
Q 2291 5069 2547 5005 
Q 2803 4941 3017 4774 
Q 3232 4608 3353 4358 
Q 3475 4109 3475 3795 
Q 3475 3482 3356 3232 
Q 3238 2982 3017 2819 
Q 2797 2656 2477 2589 
Q 2157 2522 1344 2522 
L 1062 2522 
L 1062 384 
L 512 384 
L 512 5069 
z
M 1062 3053 
L 1792 3053 
Q 2438 3040 2672 3257 
Q 2906 3475 2906 3802 
Q 2906 4531 1830 4531 
L 1062 4531 
L 1062 3053 
z
" transform="scale(0.015625)"/>
      <path id="STHeitiTC-Medium-3d" d="M 3565 3475 
L 314 3475 
L 314 3994 
L 3565 3994 
L 3565 3475 
z
M 3565 2099 
L 314 2099 
L 314 2618 
L 3565 2618 
L 3565 2099 
z
" transform="scale(0.015625)"/>
      <path id="STHeitiTC-Medium-2f" d="M 2675 5504 
L 736 77 
L 160 77 
L 2099 5504 
L 2675 5504 
z
" transform="scale(0.015625)"/>
      <path id="STHeitiTC-Medium-74" d="M 2048 3411 
L 1357 3411 
L 1357 966 
Q 1357 832 1395 803 
Q 1434 774 1587 774 
L 1894 774 
L 1894 320 
Q 1587 269 1427 269 
Q 1120 269 973 419 
Q 826 570 826 896 
L 826 3411 
L 224 3411 
L 224 3872 
L 826 3872 
L 826 5184 
L 1357 5184 
L 1357 3872 
L 2048 3872 
L 2048 3411 
z
" transform="scale(0.015625)"/>
     </defs>
     <use xlink:href="#STHeitiTC-Medium-50"/>
     <use xlink:href="#STHeitiTC-Medium-61" x="59.199997"/>
     <use xlink:href="#STHeitiTC-Medium-72" x="127.499985"/>
     <use xlink:href="#STHeitiTC-Medium-61" x="157.599976"/>
     <use xlink:href="#STHeitiTC-Medium-6c" x="225.899963"/>
     <use xlink:href="#STHeitiTC-Medium-6c" x="245.899948"/>
     <use xlink:href="#STHeitiTC-Medium-65" x="265.899933"/>
     <use xlink:href="#STHeitiTC-Medium-6c" x="330.899918"/>
     <use xlink:href="#STHeitiTC-Medium-20" x="350.899902"/>
     <use xlink:href="#STHeitiTC-Medium-65" x="375.899887"/>
     <use xlink:href="#STHeitiTC-Medium-66" x="440.899872"/>
     <use xlink:href="#STHeitiTC-Medium-66" x="472.299866"/>
     <use xlink:href="#STHeitiTC-Medium-69" x="503.69986"/>
     <use xlink:href="#STHeitiTC-Medium-63" x="523.699844"/>
     <use xlink:href="#STHeitiTC-Medium-69" x="588.399841"/>
     <use xlink:href="#STHeitiTC-Medium-65" x="608.399826"/>
     <use xlink:href="#STHeitiTC-Medium-6e" x="673.399811"/>
     <use xlink:href="#STHeitiTC-Medium-63" x="734.399796"/>
     <use xlink:href="#STHeitiTC-Medium-79" x="799.099792"/>
     <use xlink:href="#STHeitiTC-Medium-20" x="852.699783"/>
     <use xlink:href="#STHeitiTC-Medium-3d" x="877.699768"/>
     <use xlink:href="#STHeitiTC-Medium-20" x="938.299759"/>
     <use xlink:href="#STHeitiTC-Medium-73" x="963.299744"/>
     <use xlink:href="#STHeitiTC-Medium-70" x="1002.099731"/>
     <use xlink:href="#STHeitiTC-Medium-65" x="1070.299713"/>
     <use xlink:href="#STHeitiTC-Medium-65" x="1135.299698"/>
     <use xlink:href="#STHeitiTC-Medium-64" x="1200.299683"/>
     <use xlink:href="#STHeitiTC-Medium-75" x="1268.799667"/>
     <use xlink:href="#STHeitiTC-Medium-70" x="1329.599655"/>
     <use xlink:href="#STHeitiTC-Medium-20" x="1397.799637"/>
     <use xlink:href="#STHeitiTC-Medium-2f" x="1422.799622"/>
     <use xlink:href="#STHeitiTC-Medium-20" x="1466.499619"/>
     <use xlink:href="#STHeitiTC-Medium-74" x="1491.499603"/>
     <use xlink:href="#STHeitiTC-Medium-68" x="1525.399597"/>
     <use xlink:href="#STHeitiTC-Medium-72" x="1586.399582"/>
     <use xlink:href="#STHeitiTC-Medium-65" x="1616.499573"/>
     <use xlink:href="#STHeitiTC-Medium-61" x="1681.499557"/>
     <use xlink:href="#STHeitiTC-Medium-64" x="1749.799545"/>
     <use xlink:href="#STHeitiTC-Medium-73" x="1818.29953"/>
    </g>
   </g>
  </g>
  <g id="text_37">
   <!-- Efficiency Comparison / 效率对比 -->
   <g style="fill: #0f172a" transform="translate(63.36 38.88) scale(0.3 -0.3)">
    <defs>
     <path id="STHeitiTC-Medium-43" d="M 4909 1242 
Q 4154 269 2835 269 
Q 1722 269 1011 973 
Q 301 1677 301 2752 
Q 301 3418 630 3981 
Q 960 4544 1542 4864 
Q 2125 5184 2800 5184 
Q 3475 5184 4009 4925 
Q 4544 4666 4902 4166 
L 4480 3840 
Q 3814 4646 2835 4646 
Q 2035 4646 1456 4083 
Q 877 3520 877 2704 
Q 877 1888 1443 1341 
Q 2010 794 2912 794 
Q 3814 794 4480 1568 
L 4909 1242 
z
" transform="scale(0.015625)"/>
     <path id="STHeitiTC-Medium-6f" d="M 2099 3962 
Q 2854 3962 3382 3418 
Q 3910 2874 3910 2112 
Q 3910 1350 3388 809 
Q 2867 269 2099 269 
Q 1331 269 806 809 
Q 282 1350 282 2112 
Q 282 2874 810 3418 
Q 1338 3962 2099 3962 
z
M 2099 774 
Q 2630 774 3004 1161 
Q 3379 1549 3379 2096 
Q 3379 2643 2998 3043 
Q 2618 3443 2096 3443 
Q 1574 3443 1196 3043 
Q 819 2643 819 2092 
Q 819 1542 1184 1158 
Q 1549 774 2099 774 
z
" transform="scale(0.015625)"/>
     <path id="STHeitiTC-Medium-6548" d="M 1741 3187 
Q 1869 3155 1722 3066 
Q 1690 3046 1626 2982 
Q 1562 2918 1446 2784 
Q 1331 2650 1148 2426 
Q 966 2202 698 1862 
Q 506 2074 269 2234 
Q 621 2502 880 2822 
Q 1139 3142 1267 3469 
Q 1389 3379 1529 3292 
Q 1670 3206 1741 3187 
z
M 3002 2214 
Q 2912 2336 2787 2477 
Q 2662 2618 2528 2752 
Q 2394 2886 2266 2995 
Q 2138 3104 2042 3162 
L 2451 3469 
Q 2662 3245 2896 3033 
Q 3130 2822 3386 2618 
L 3002 2214 
z
M 3296 3629 
Q 2957 3661 2605 3670 
Q 2253 3680 1869 3680 
Q 1376 3680 1033 3661 
Q 691 3642 454 3622 
L 454 4218 
Q 691 4186 1017 4170 
Q 1344 4154 1882 4154 
Q 2291 4154 2640 4170 
Q 2989 4186 3296 4218 
L 3296 3629 
z
M 1824 4320 
Q 1792 4480 1728 4672 
Q 1664 4864 1574 5088 
L 2176 5242 
Q 2234 5075 2317 4860 
Q 2400 4646 2477 4480 
L 1824 4320 
z
M 1984 1523 
Q 2093 1734 2173 1964 
Q 2253 2195 2291 2387 
Q 2426 2291 2573 2195 
Q 2720 2099 2778 2086 
Q 2829 2074 2822 2045 
Q 2816 2016 2758 1984 
Q 2746 1978 2723 1946 
Q 2701 1914 2662 1843 
Q 2624 1773 2563 1657 
Q 2502 1542 2419 1370 
Q 2400 1331 2377 1289 
Q 2355 1248 2330 1203 
Q 2560 979 2755 774 
Q 2950 570 3078 422 
L 2656 58 
Q 2534 243 2380 428 
Q 2227 614 2061 800 
Q 1459 -45 768 -550 
Q 698 -429 573 -320 
Q 448 -211 288 -141 
Q 474 -51 646 57 
Q 819 166 992 316 
Q 1165 467 1347 665 
Q 1530 864 1728 1133 
Q 1498 1357 1280 1533 
Q 1062 1709 896 1805 
L 1254 2150 
Q 1421 2022 1609 1862 
Q 1798 1702 1984 1523 
z
M 4070 3533 
Q 3974 3328 3888 3158 
Q 3802 2989 3693 2810 
Q 3571 2880 3452 2925 
Q 3334 2970 3206 3002 
Q 3571 3520 3795 4086 
Q 4019 4653 4102 5210 
Q 4250 5158 4432 5110 
Q 4614 5062 4736 5050 
Q 4890 5030 4736 4922 
Q 4704 4902 4675 4864 
Q 4646 4826 4598 4733 
Q 4550 4640 4476 4470 
Q 4403 4301 4282 4026 
Q 4698 4026 4986 4032 
Q 5274 4038 5472 4048 
Q 5670 4058 5792 4067 
Q 5914 4077 6003 4096 
L 6003 3494 
Q 5869 3514 5728 3520 
Q 5587 3526 5414 3533 
Q 5382 2976 5334 2560 
Q 5286 2144 5209 1824 
Q 5133 1504 5030 1254 
Q 4928 1005 4787 787 
Q 5094 499 5456 304 
Q 5818 109 6131 32 
Q 5997 -96 5869 -285 
Q 5741 -474 5690 -621 
Q 5587 -570 5436 -464 
Q 5286 -358 5116 -220 
Q 4947 -83 4784 70 
Q 4621 224 4486 371 
Q 4198 51 3782 -246 
Q 3366 -544 2899 -749 
Q 2822 -634 2716 -518 
Q 2611 -403 2483 -307 
Q 2963 -154 3401 121 
Q 3840 397 4186 781 
Q 3955 1178 3804 1645 
Q 3654 2112 3584 2528 
L 4077 2682 
Q 4083 2547 4121 2352 
Q 4160 2157 4214 1945 
Q 4269 1734 4336 1532 
Q 4403 1331 4480 1178 
Q 4666 1542 4762 2112 
Q 4858 2682 4883 3533 
L 4070 3533 
z
" transform="scale(0.015625)"/>
     <path id="STHeitiTC-Medium-7387" d="M 2138 3002 
Q 2221 3117 2297 3225 
Q 2374 3334 2451 3456 
Q 2528 3578 2611 3725 
Q 2694 3872 2790 4064 
Q 2918 3981 3030 3923 
Q 3142 3866 3226 3840 
Q 3341 3808 3331 3760 
Q 3322 3712 3194 3693 
Q 3130 3680 3046 3606 
Q 2963 3533 2886 3430 
Q 2810 3328 2717 3222 
Q 2624 3117 2534 3027 
L 3322 3078 
Q 3469 3245 3597 3411 
Q 3725 3578 3808 3706 
Q 3923 3584 4044 3501 
Q 4166 3418 4256 3379 
Q 4346 3341 4336 3289 
Q 4326 3238 4198 3226 
Q 4166 3226 4086 3178 
Q 4006 3130 3900 3056 
Q 3795 2982 3680 2883 
Q 3565 2784 3462 2682 
Q 3283 2496 3062 2297 
Q 2842 2099 2611 1914 
L 3757 1971 
Q 3686 2080 3622 2179 
Q 3558 2278 3501 2349 
L 3885 2586 
Q 4032 2342 4198 2076 
Q 4365 1811 4544 1536 
L 4090 1325 
Q 4058 1395 4022 1468 
Q 3987 1542 3949 1619 
L 3405 1587 
L 3405 954 
Q 4179 954 4848 966 
Q 5517 979 5939 1011 
L 5939 454 
Q 5728 467 5453 480 
Q 5178 493 4851 499 
Q 4525 506 4157 509 
Q 3789 512 3405 512 
Q 3405 378 3411 208 
Q 3418 38 3427 -134 
Q 3437 -307 3446 -470 
Q 3456 -634 3469 -755 
L 2835 -755 
Q 2848 -634 2857 -474 
Q 2867 -314 2876 -141 
Q 2886 32 2889 205 
Q 2893 378 2893 512 
Q 2150 512 1507 496 
Q 864 480 454 454 
L 454 1011 
Q 659 998 960 988 
Q 1261 979 1597 969 
Q 1933 960 2272 957 
Q 2611 954 2899 954 
L 2899 1549 
Q 2630 1530 2400 1498 
Q 2170 1466 2016 1427 
Q 1978 1664 1862 1875 
L 2138 1888 
Q 2285 2022 2486 2217 
Q 2688 2413 2995 2726 
Q 2739 2694 2579 2672 
Q 2419 2650 2320 2634 
Q 2221 2618 2163 2605 
Q 2106 2592 2054 2573 
Q 2042 2662 2010 2787 
Q 1978 2912 1939 2989 
L 2138 3002 
z
M 3014 4557 
Q 2970 4704 2922 4835 
Q 2874 4966 2816 5088 
L 3475 5190 
Q 3488 5030 3507 4873 
Q 3526 4717 3565 4557 
Q 4256 4557 4797 4573 
Q 5338 4589 5786 4621 
L 5786 4051 
Q 5536 4070 5273 4080 
Q 5011 4090 4707 4099 
Q 4403 4109 4035 4112 
Q 3667 4115 3206 4115 
Q 2746 4115 2384 4112 
Q 2022 4109 1718 4099 
Q 1414 4090 1152 4080 
Q 890 4070 627 4051 
L 627 4621 
Q 877 4602 1123 4592 
Q 1370 4582 1651 4572 
Q 1933 4563 2265 4560 
Q 2598 4557 3014 4557 
z
M 5658 3411 
Q 5715 3379 5696 3334 
Q 5677 3290 5574 3296 
Q 5517 3302 5443 3280 
Q 5370 3258 5270 3197 
Q 5171 3136 5033 3024 
Q 4896 2912 4704 2739 
Q 4544 2938 4333 3053 
Q 4582 3219 4822 3433 
Q 5062 3648 5197 3834 
Q 5299 3699 5417 3590 
Q 5536 3482 5658 3411 
z
M 1536 2784 
Q 1350 2995 1187 3145 
Q 1024 3296 826 3443 
L 1171 3795 
Q 1363 3603 1523 3468 
Q 1683 3334 1907 3174 
L 1536 2784 
z
M 5363 1421 
Q 5158 1651 4905 1859 
Q 4653 2067 4410 2227 
L 4774 2611 
Q 4986 2426 5248 2230 
Q 5510 2035 5760 1869 
L 5363 1421 
z
M 1952 2106 
Q 1901 2080 1827 2029 
Q 1754 1978 1642 1885 
Q 1530 1792 1366 1645 
Q 1203 1498 973 1286 
Q 838 1581 653 1824 
Q 800 1882 928 1952 
Q 1056 2022 1181 2112 
Q 1306 2202 1443 2320 
Q 1581 2438 1747 2598 
Q 1766 2464 1814 2349 
Q 1862 2234 1952 2106 
z
" transform="scale(0.015625)"/>
     <path id="STHeitiTC-Medium-5bf9" d="M 1971 1139 
Q 1856 934 1718 720 
Q 1581 506 1424 304 
Q 1267 102 1100 -80 
Q 934 -262 774 -403 
Q 582 -154 269 0 
Q 710 326 1043 726 
Q 1376 1126 1645 1683 
Q 1402 2080 1171 2400 
Q 941 2720 755 2893 
L 1184 3174 
Q 1338 2982 1510 2758 
Q 1683 2534 1888 2246 
Q 2029 2624 2125 3024 
Q 2221 3424 2285 3904 
L 1216 3904 
Q 998 3904 835 3897 
Q 672 3891 474 3878 
L 474 4403 
Q 634 4390 765 4380 
Q 896 4371 1030 4368 
Q 1165 4365 1325 4365 
Q 1485 4365 1715 4365 
Q 1946 4365 2102 4365 
Q 2259 4365 2390 4371 
Q 2522 4378 2650 4384 
Q 2778 4390 2944 4403 
Q 2893 4026 2829 3686 
Q 2765 3347 2678 3020 
Q 2592 2694 2486 2374 
Q 2381 2054 2246 1728 
Q 2515 1338 2726 966 
Q 2938 595 3046 326 
L 2515 32 
Q 2426 275 2288 553 
Q 2150 832 1971 1139 
z
M 3763 2605 
Q 3898 2355 4035 2016 
Q 4173 1677 4269 1363 
L 3763 1165 
Q 3731 1299 3680 1459 
Q 3629 1619 3565 1788 
Q 3501 1958 3430 2118 
Q 3360 2278 3290 2406 
L 3763 2605 
z
M 5344 3782 
Q 5491 3782 5600 3782 
Q 5709 3782 5798 3788 
Q 5888 3795 5968 3804 
Q 6048 3814 6131 3827 
L 6131 3277 
Q 5971 3290 5798 3302 
Q 5626 3315 5344 3315 
L 5344 -26 
Q 5344 -173 5289 -285 
Q 5235 -397 5107 -473 
Q 4979 -550 4768 -598 
Q 4557 -646 4243 -666 
Q 4211 -525 4150 -371 
Q 4090 -218 3987 -38 
Q 4250 -58 4410 -48 
Q 4570 -38 4656 -6 
Q 4742 26 4768 80 
Q 4794 134 4794 211 
L 4794 3315 
L 3885 3315 
Q 3565 3315 3385 3305 
Q 3206 3296 3046 3283 
L 3046 3827 
Q 3130 3814 3210 3804 
Q 3290 3795 3386 3792 
Q 3482 3789 3600 3785 
Q 3718 3782 3885 3782 
L 4794 3782 
Q 4794 4365 4787 4707 
Q 4781 5050 4768 5190 
Q 4928 5158 5101 5139 
Q 5274 5120 5402 5126 
Q 5504 5133 5520 5094 
Q 5536 5056 5466 5011 
Q 5389 4960 5366 4921 
Q 5344 4883 5344 4813 
L 5344 3782 
z
" transform="scale(0.015625)"/>
     <path id="STHeitiTC-Medium-6bd4" d="M 1370 3245 
Q 1850 3245 2205 3254 
Q 2560 3264 2874 3283 
L 2874 2726 
Q 2554 2746 2208 2758 
Q 1862 2771 1370 2771 
L 1370 288 
L 2848 947 
Q 2854 806 2880 662 
Q 2906 518 2938 461 
L 1325 -262 
Q 1126 -352 963 -457 
Q 800 -563 710 -653 
Q 634 -467 534 -310 
Q 435 -154 346 -70 
Q 608 -13 851 70 
L 851 4230 
Q 851 4442 841 4624 
Q 832 4806 800 4954 
Q 928 4922 1085 4909 
Q 1242 4896 1331 4902 
Q 1472 4915 1491 4880 
Q 1510 4845 1440 4781 
Q 1370 4723 1370 4602 
L 1370 3245 
z
M 3904 403 
Q 3904 294 3923 233 
Q 3942 173 4009 141 
Q 4077 109 4214 99 
Q 4352 90 4589 90 
Q 4813 90 4944 109 
Q 5075 128 5161 221 
Q 5248 314 5312 506 
Q 5376 698 5459 1043 
Q 5581 902 5731 800 
Q 5882 698 6048 653 
Q 5926 282 5811 64 
Q 5696 -154 5526 -269 
Q 5357 -384 5101 -419 
Q 4845 -454 4442 -454 
Q 4070 -454 3856 -422 
Q 3642 -390 3533 -300 
Q 3424 -211 3395 -41 
Q 3366 128 3366 397 
L 3366 4237 
Q 3366 4448 3366 4589 
Q 3366 4730 3360 4832 
Q 3354 4934 3347 5008 
Q 3341 5082 3328 5158 
Q 3488 5126 3673 5116 
Q 3859 5107 3981 5120 
Q 4064 5126 4073 5100 
Q 4083 5075 4019 4986 
Q 3955 4896 3929 4787 
Q 3904 4678 3904 4435 
L 3904 2778 
Q 4115 2912 4326 3059 
Q 4538 3206 4723 3350 
Q 4909 3494 5062 3628 
Q 5216 3763 5325 3872 
Q 5421 3725 5542 3593 
Q 5664 3462 5792 3379 
Q 5914 3302 5728 3258 
Q 5677 3245 5510 3158 
Q 5344 3072 5097 2934 
Q 4851 2797 4540 2614 
Q 4230 2432 3904 2227 
L 3904 403 
z
" transform="scale(0.015625)"/>
    </defs>
    <use xlink:href="#STHeitiTC-Medium-45"/>
    <use xlink:href="#STHeitiTC-Medium-66" x="53.599991"/>
    <use xlink:href="#STHeitiTC-Medium-66" x="84.999985"/>
    <use xlink:href="#STHeitiTC-Medium-69" x="116.399979"/>
    <use xlink:href="#STHeitiTC-Medium-63" x="136.399963"/>
    <use xlink:href="#STHeitiTC-Medium-69" x="201.09996"/>
    <use xlink:href="#STHeitiTC-Medium-65" x="221.099945"/>
    <use xlink:href="#STHeitiTC-Medium-6e" x="286.09993"/>
    <use xlink:href="#STHeitiTC-Medium-63" x="347.099915"/>
    <use xlink:href="#STHeitiTC-Medium-79" x="411.799911"/>
    <use xlink:href="#STHeitiTC-Medium-20" x="465.399902"/>
    <use xlink:href="#STHeitiTC-Medium-43" x="490.399887"/>
    <use xlink:href="#STHeitiTC-Medium-6f" x="571.699875"/>
    <use xlink:href="#STHeitiTC-Medium-6d" x="637.19986"/>
    <use xlink:href="#STHeitiTC-Medium-70" x="730.999847"/>
    <use xlink:href="#STHeitiTC-Medium-61" x="799.199829"/>
    <use xlink:href="#STHeitiTC-Medium-72" x="867.499817"/>
    <use xlink:href="#STHeitiTC-Medium-69" x="897.599808"/>
    <use xlink:href="#STHeitiTC-Medium-73" x="917.599792"/>
    <use xlink:href="#STHeitiTC-Medium-6f" x="956.39978"/>
    <use xlink:href="#STHeitiTC-Medium-6e" x="1021.899765"/>
    <use xlink:href="#STHeitiTC-Medium-20" x="1082.89975"/>
    <use xlink:href="#STHeitiTC-Medium-2f" x="1107.899734"/>
    <use xlink:href="#STHeitiTC-Medium-20" x="1151.599731"/>
    <use xlink:href="#STHeitiTC-Medium-6548" x="1176.599716"/>
    <use xlink:href="#STHeitiTC-Medium-7387" x="1276.599701"/>
    <use xlink:href="#STHeitiTC-Medium-5bf9" x="1376.599686"/>
    <use xlink:href="#STHeitiTC-Medium-6bd4" x="1476.59967"/>
   </g>
  </g>
  <g id="text_38">
   <!-- Assembly speedup and parallel efficiency over 1–14 CPU threads -->
   <g style="fill: #475569" transform="translate(63.36 66.096) scale(0.15 -0.15)">
    <defs>
     <path id="STHeitiTC-Medium-2013" d="M 3200 2144 
L 0 2144 
L 0 2624 
L 3200 2624 
L 3200 2144 
z
" transform="scale(0.015625)"/>
     <path id="STHeitiTC-Medium-55" d="M 3661 2253 
Q 3661 1542 3517 1161 
Q 3373 781 3005 525 
Q 2637 269 2144 269 
Q 1754 269 1440 393 
Q 1126 518 918 745 
Q 710 973 620 1251 
Q 531 1530 531 2253 
L 531 5069 
L 1082 5069 
L 1082 2253 
Q 1082 1798 1107 1596 
Q 1133 1395 1254 1206 
Q 1376 1018 1603 906 
Q 1830 794 2118 794 
Q 2464 794 2717 995 
Q 2970 1197 3043 1462 
Q 3117 1728 3117 2253 
L 3117 5069 
L 3661 5069 
L 3661 2253 
z
" transform="scale(0.015625)"/>
    </defs>
    <use xlink:href="#STHeitiTC-Medium-41"/>
    <use xlink:href="#STHeitiTC-Medium-73" x="73.999985"/>
    <use xlink:href="#STHeitiTC-Medium-73" x="112.799973"/>
    <use xlink:href="#STHeitiTC-Medium-65" x="151.59996"/>
    <use xlink:href="#STHeitiTC-Medium-6d" x="216.599945"/>
    <use xlink:href="#STHeitiTC-Medium-62" x="310.399933"/>
    <use xlink:href="#STHeitiTC-Medium-6c" x="378.599915"/>
    <use xlink:href="#STHeitiTC-Medium-79" x="398.599899"/>
    <use xlink:href="#STHeitiTC-Medium-20" x="452.19989"/>
    <use xlink:href="#STHeitiTC-Medium-73" x="477.199875"/>
    <use xlink:href="#STHeitiTC-Medium-70" x="515.999863"/>
    <use xlink:href="#STHeitiTC-Medium-65" x="584.199844"/>
    <use xlink:href="#STHeitiTC-Medium-65" x="649.199829"/>
    <use xlink:href="#STHeitiTC-Medium-64" x="714.199814"/>
    <use xlink:href="#STHeitiTC-Medium-75" x="782.699799"/>
    <use xlink:href="#STHeitiTC-Medium-70" x="843.499786"/>
    <use xlink:href="#STHeitiTC-Medium-20" x="911.699768"/>
    <use xlink:href="#STHeitiTC-Medium-61" x="936.699753"/>
    <use xlink:href="#STHeitiTC-Medium-6e" x="1004.999741"/>
    <use xlink:href="#STHeitiTC-Medium-64" x="1065.999725"/>
    <use xlink:href="#STHeitiTC-Medium-20" x="1134.49971"/>
    <use xlink:href="#STHeitiTC-Medium-70" x="1159.499695"/>
    <use xlink:href="#STHeitiTC-Medium-61" x="1227.699677"/>
    <use xlink:href="#STHeitiTC-Medium-72" x="1295.999664"/>
    <use xlink:href="#STHeitiTC-Medium-61" x="1326.099655"/>
    <use xlink:href="#STHeitiTC-Medium-6c" x="1394.399643"/>
    <use xlink:href="#STHeitiTC-Medium-6c" x="1414.399628"/>
    <use xlink:href="#STHeitiTC-Medium-65" x="1434.399612"/>
    <use xlink:href="#STHeitiTC-Medium-6c" x="1499.399597"/>
    <use xlink:href="#STHeitiTC-Medium-20" x="1519.399582"/>
    <use xlink:href="#STHeitiTC-Medium-65" x="1544.399567"/>
    <use xlink:href="#STHeitiTC-Medium-66" x="1609.399551"/>
    <use xlink:href="#STHeitiTC-Medium-66" x="1640.799545"/>
    <use xlink:href="#STHeitiTC-Medium-69" x="1672.199539"/>
    <use xlink:href="#STHeitiTC-Medium-63" x="1692.199524"/>
    <use xlink:href="#STHeitiTC-Medium-69" x="1756.899521"/>
    <use xlink:href="#STHeitiTC-Medium-65" x="1776.899506"/>
    <use xlink:href="#STHeitiTC-Medium-6e" x="1841.89949"/>
    <use xlink:href="#STHeitiTC-Medium-63" x="1902.899475"/>
    <use xlink:href="#STHeitiTC-Medium-79" x="1967.599472"/>
    <use xlink:href="#STHeitiTC-Medium-20" x="2021.199463"/>
    <use xlink:href="#STHeitiTC-Medium-6f" x="2046.199448"/>
    <use xlink:href="#STHeitiTC-Medium-76" x="2111.699432"/>
    <use xlink:href="#STHeitiTC-Medium-65" x="2167.099426"/>
    <use xlink:href="#STHeitiTC-Medium-72" x="2232.099411"/>
    <use xlink:href="#STHeitiTC-Medium-20" x="2262.199402"/>
    <use xlink:href="#STHeitiTC-Medium-31" x="2287.199387"/>
    <use xlink:href="#STHeitiTC-Medium-2013" x="2342.59938"/>
    <use xlink:href="#STHeitiTC-Medium-31" x="2392.599365"/>
    <use xlink:href="#STHeitiTC-Medium-34" x="2447.999359"/>
    <use xlink:href="#STHeitiTC-Medium-20" x="2503.399353"/>
    <use xlink:href="#STHeitiTC-Medium-43" x="2528.399338"/>
    <use xlink:href="#STHeitiTC-Medium-50" x="2609.699326"/>
    <use xlink:href="#STHeitiTC-Medium-55" x="2668.899323"/>
    <use xlink:href="#STHeitiTC-Medium-20" x="2734.399307"/>
    <use xlink:href="#STHeitiTC-Medium-74" x="2759.399292"/>
    <use xlink:href="#STHeitiTC-Medium-68" x="2793.299286"/>
    <use xlink:href="#STHeitiTC-Medium-72" x="2854.299271"/>
    <use xlink:href="#STHeitiTC-Medium-65" x="2884.399261"/>
    <use xlink:href="#STHeitiTC-Medium-61" x="2949.399246"/>
    <use xlink:href="#STHeitiTC-Medium-64" x="3017.699234"/>
    <use xlink:href="#STHeitiTC-Medium-73" x="3086.199219"/>
   </g>
  </g>
  <g id="text_39">
   <!-- Conclusion: Row Owner is fastest; Private CSR is competitive; COO Sort-Reduce is a slow research baseline. -->
   <g style="fill: #475569" transform="translate(86.4 592.92) scale(0.16 -0.16)">
    <defs>
     <path id="STHeitiTC-Medium-3a" d="M 966 4282 
Q 1146 4282 1270 4157 
Q 1395 4032 1395 3849 
Q 1395 3667 1273 3542 
Q 1152 3418 969 3418 
Q 787 3418 662 3542 
Q 538 3667 538 3846 
Q 538 4026 666 4154 
Q 794 4282 966 4282 
z
M 966 1478 
Q 1146 1478 1270 1353 
Q 1395 1229 1395 1046 
Q 1395 864 1270 739 
Q 1146 614 970 614 
Q 794 614 666 742 
Q 538 870 538 1049 
Q 538 1229 666 1353 
Q 794 1478 966 1478 
z
" transform="scale(0.015625)"/>
     <path id="STHeitiTC-Medium-52" d="M 3622 384 
L 2931 384 
L 1280 2522 
L 1088 2522 
L 1088 384 
L 538 384 
L 538 5069 
L 1498 5069 
Q 2266 5069 2554 5001 
Q 2842 4934 3053 4774 
Q 3264 4614 3385 4361 
Q 3507 4109 3507 3802 
Q 3507 3219 3110 2870 
Q 2714 2522 1965 2522 
L 3622 384 
z
M 1088 3059 
L 1837 3059 
Q 2400 3053 2669 3229 
Q 2938 3405 2938 3792 
Q 2938 4179 2675 4355 
Q 2413 4531 1856 4531 
L 1088 4531 
L 1088 3059 
z
" transform="scale(0.015625)"/>
     <path id="STHeitiTC-Medium-77" d="M 5299 3872 
L 3808 269 
L 3674 269 
L 2650 2752 
L 1619 269 
L 1485 269 
L 19 3872 
L 563 3872 
L 1549 1363 
L 2586 3872 
L 2714 3872 
L 3744 1357 
L 4749 3872 
L 5299 3872 
z
" transform="scale(0.015625)"/>
     <path id="STHeitiTC-Medium-4f" d="M 2752 5184 
Q 3437 5184 4013 4861 
Q 4589 4538 4918 3968 
Q 5248 3398 5248 2729 
Q 5248 2061 4921 1491 
Q 4595 922 4025 595 
Q 3456 269 2787 269 
Q 2118 269 1542 592 
Q 966 915 640 1481 
Q 314 2048 314 2717 
Q 314 3386 640 3958 
Q 966 4531 1532 4857 
Q 2099 5184 2752 5184 
z
M 2771 806 
Q 3571 806 4124 1350 
Q 4678 1894 4678 2713 
Q 4678 3533 4118 4089 
Q 3558 4646 2771 4646 
Q 1965 4646 1424 4086 
Q 883 3526 883 2723 
Q 883 1920 1440 1363 
Q 1997 806 2771 806 
z
" transform="scale(0.015625)"/>
     <path id="STHeitiTC-Medium-3b" d="M 966 4282 
Q 1146 4282 1270 4157 
Q 1395 4032 1395 3849 
Q 1395 3667 1273 3542 
Q 1152 3418 969 3418 
Q 787 3418 662 3542 
Q 538 3667 538 3846 
Q 538 4026 666 4154 
Q 794 4282 966 4282 
z
M 1408 1414 
L 736 154 
L 346 320 
L 902 1658 
L 1408 1414 
z
" transform="scale(0.015625)"/>
     <path id="STHeitiTC-Medium-2d" d="M 1965 2067 
L 160 2067 
L 160 2541 
L 1965 2541 
L 1965 2067 
z
" transform="scale(0.015625)"/>
    </defs>
    <use xlink:href="#STHeitiTC-Medium-43"/>
    <use xlink:href="#STHeitiTC-Medium-6f" x="81.299988"/>
    <use xlink:href="#STHeitiTC-Medium-6e" x="146.799973"/>
    <use xlink:href="#STHeitiTC-Medium-63" x="207.799957"/>
    <use xlink:href="#STHeitiTC-Medium-6c" x="272.499954"/>
    <use xlink:href="#STHeitiTC-Medium-75" x="292.499939"/>
    <use xlink:href="#STHeitiTC-Medium-73" x="353.299927"/>
    <use xlink:href="#STHeitiTC-Medium-69" x="392.099915"/>
    <use xlink:href="#STHeitiTC-Medium-6f" x="412.099899"/>
    <use xlink:href="#STHeitiTC-Medium-6e" x="477.599884"/>
    <use xlink:href="#STHeitiTC-Medium-3a" x="538.599869"/>
    <use xlink:href="#STHeitiTC-Medium-20" x="566.299866"/>
    <use xlink:href="#STHeitiTC-Medium-52" x="591.29985"/>
    <use xlink:href="#STHeitiTC-Medium-6f" x="651.999847"/>
    <use xlink:href="#STHeitiTC-Medium-77" x="717.499832"/>
    <use xlink:href="#STHeitiTC-Medium-20" x="800.599823"/>
    <use xlink:href="#STHeitiTC-Medium-4f" x="825.599808"/>
    <use xlink:href="#STHeitiTC-Medium-77" x="912.499802"/>
    <use xlink:href="#STHeitiTC-Medium-6e" x="995.599792"/>
    <use xlink:href="#STHeitiTC-Medium-65" x="1056.599777"/>
    <use xlink:href="#STHeitiTC-Medium-72" x="1121.599762"/>
    <use xlink:href="#STHeitiTC-Medium-20" x="1151.699753"/>
    <use xlink:href="#STHeitiTC-Medium-69" x="1176.699738"/>
    <use xlink:href="#STHeitiTC-Medium-73" x="1196.699722"/>
    <use xlink:href="#STHeitiTC-Medium-20" x="1235.49971"/>
    <use xlink:href="#STHeitiTC-Medium-66" x="1260.499695"/>
    <use xlink:href="#STHeitiTC-Medium-61" x="1291.899689"/>
    <use xlink:href="#STHeitiTC-Medium-73" x="1360.199677"/>
    <use xlink:href="#STHeitiTC-Medium-74" x="1398.999664"/>
    <use xlink:href="#STHeitiTC-Medium-65" x="1432.899658"/>
    <use xlink:href="#STHeitiTC-Medium-73" x="1497.899643"/>
    <use xlink:href="#STHeitiTC-Medium-74" x="1536.699631"/>
    <use xlink:href="#STHeitiTC-Medium-3b" x="1570.599625"/>
    <use xlink:href="#STHeitiTC-Medium-20" x="1598.299622"/>
    <use xlink:href="#STHeitiTC-Medium-50" x="1623.299606"/>
    <use xlink:href="#STHeitiTC-Medium-72" x="1682.499603"/>
    <use xlink:href="#STHeitiTC-Medium-69" x="1712.599594"/>
    <use xlink:href="#STHeitiTC-Medium-76" x="1732.599579"/>
    <use xlink:href="#STHeitiTC-Medium-61" x="1787.999573"/>
    <use xlink:href="#STHeitiTC-Medium-74" x="1856.299561"/>
    <use xlink:href="#STHeitiTC-Medium-65" x="1890.199554"/>
    <use xlink:href="#STHeitiTC-Medium-20" x="1955.199539"/>
    <use xlink:href="#STHeitiTC-Medium-43" x="1980.199524"/>
    <use xlink:href="#STHeitiTC-Medium-53" x="2061.499512"/>
    <use xlink:href="#STHeitiTC-Medium-52" x="2111.2995"/>
    <use xlink:href="#STHeitiTC-Medium-20" x="2171.999496"/>
    <use xlink:href="#STHeitiTC-Medium-69" x="2196.999481"/>
    <use xlink:href="#STHeitiTC-Medium-73" x="2216.999466"/>
    <use xlink:href="#STHeitiTC-Medium-20" x="2255.799454"/>
    <use xlink:href="#STHeitiTC-Medium-63" x="2280.799438"/>
    <use xlink:href="#STHeitiTC-Medium-6f" x="2345.499435"/>
    <use xlink:href="#STHeitiTC-Medium-6d" x="2410.99942"/>
    <use xlink:href="#STHeitiTC-Medium-70" x="2504.799408"/>
    <use xlink:href="#STHeitiTC-Medium-65" x="2572.99939"/>
    <use xlink:href="#STHeitiTC-Medium-74" x="2637.999374"/>
    <use xlink:href="#STHeitiTC-Medium-69" x="2671.899368"/>
    <use xlink:href="#STHeitiTC-Medium-74" x="2691.899353"/>
    <use xlink:href="#STHeitiTC-Medium-69" x="2725.799347"/>
    <use xlink:href="#STHeitiTC-Medium-76" x="2745.799332"/>
    <use xlink:href="#STHeitiTC-Medium-65" x="2801.199326"/>
    <use xlink:href="#STHeitiTC-Medium-3b" x="2866.19931"/>
    <use xlink:href="#STHeitiTC-Medium-20" x="2893.899307"/>
    <use xlink:href="#STHeitiTC-Medium-43" x="2918.899292"/>
    <use xlink:href="#STHeitiTC-Medium-4f" x="3000.19928"/>
    <use xlink:href="#STHeitiTC-Medium-4f" x="3087.099274"/>
    <use xlink:href="#STHeitiTC-Medium-20" x="3173.999268"/>
    <use xlink:href="#STHeitiTC-Medium-53" x="3198.999252"/>
    <use xlink:href="#STHeitiTC-Medium-6f" x="3248.79924"/>
    <use xlink:href="#STHeitiTC-Medium-72" x="3314.299225"/>
    <use xlink:href="#STHeitiTC-Medium-74" x="3344.399216"/>
    <use xlink:href="#STHeitiTC-Medium-2d" x="3378.29921"/>
    <use xlink:href="#STHeitiTC-Medium-52" x="3411.499207"/>
    <use xlink:href="#STHeitiTC-Medium-65" x="3472.199203"/>
    <use xlink:href="#STHeitiTC-Medium-64" x="3537.199188"/>
    <use xlink:href="#STHeitiTC-Medium-75" x="3605.699173"/>
    <use xlink:href="#STHeitiTC-Medium-63" x="3666.499161"/>
    <use xlink:href="#STHeitiTC-Medium-65" x="3731.199158"/>
    <use xlink:href="#STHeitiTC-Medium-20" x="3796.199142"/>
    <use xlink:href="#STHeitiTC-Medium-69" x="3821.199127"/>
    <use xlink:href="#STHeitiTC-Medium-73" x="3841.199112"/>
    <use xlink:href="#STHeitiTC-Medium-20" x="3879.9991"/>
    <use xlink:href="#STHeitiTC-Medium-61" x="3904.999084"/>
    <use xlink:href="#STHeitiTC-Medium-20" x="3973.299072"/>
    <use xlink:href="#STHeitiTC-Medium-73" x="3998.299057"/>
    <use xlink:href="#STHeitiTC-Medium-6c" x="4037.099045"/>
    <use xlink:href="#STHeitiTC-Medium-6f" x="4057.09903"/>
    <use xlink:href="#STHeitiTC-Medium-77" x="4122.599014"/>
    <use xlink:href="#STHeitiTC-Medium-20" x="4205.699005"/>
    <use xlink:href="#STHeitiTC-Medium-72" x="4230.69899"/>
    <use xlink:href="#STHeitiTC-Medium-65" x="4260.798981"/>
    <use xlink:href="#STHeitiTC-Medium-73" x="4325.798965"/>
    <use xlink:href="#STHeitiTC-Medium-65" x="4364.598953"/>
    <use xlink:href="#STHeitiTC-Medium-61" x="4429.598938"/>
    <use xlink:href="#STHeitiTC-Medium-72" x="4497.898926"/>
    <use xlink:href="#STHeitiTC-Medium-63" x="4527.998917"/>
    <use xlink:href="#STHeitiTC-Medium-68" x="4592.698914"/>
    <use xlink:href="#STHeitiTC-Medium-20" x="4653.698898"/>
    <use xlink:href="#STHeitiTC-Medium-62" x="4678.698883"/>
    <use xlink:href="#STHeitiTC-Medium-61" x="4746.898865"/>
    <use xlink:href="#STHeitiTC-Medium-73" x="4815.198853"/>
    <use xlink:href="#STHeitiTC-Medium-65" x="4853.99884"/>
    <use xlink:href="#STHeitiTC-Medium-6c" x="4918.998825"/>
    <use xlink:href="#STHeitiTC-Medium-69" x="4938.99881"/>
    <use xlink:href="#STHeitiTC-Medium-6e" x="4958.998795"/>
    <use xlink:href="#STHeitiTC-Medium-65" x="5019.998779"/>
    <use xlink:href="#STHeitiTC-Medium-2e" x="5084.998764"/>
   </g>
  </g>
  <g id="legend_1">
   <g id="patch_12">
    <path d="M 170.075 132.39 
L 981.925 132.39 
Q 984.485 132.39 984.485 129.83 
L 984.485 112.64 
Q 984.485 110.08 981.925 110.08 
L 170.075 110.08 
Q 167.515 110.08 167.515 112.64 
L 167.515 129.83 
Q 167.515 132.39 170.075 132.39 
z
" style="fill: #ffffff; opacity: 0.8; stroke: #cbd5e1; stroke-linejoin: miter"/>
   </g>
   <g id="line2d_72">
    <path d="M 172.635 121.088 
L 185.435 121.088 
L 198.235 121.088 
" style="fill: none; stroke-dasharray: 7.4,3.2; stroke-dashoffset: 0; stroke: #94a3b8; stroke-width: 2"/>
   </g>
   <g id="text_40">
    <!-- Ideal linear -->
    <g transform="translate(208.475 125.568) scale(0.128 -0.128)">
     <defs>
      <path id="STHeitiTC-Medium-49" d="M 998 384 
L 448 384 
L 448 5069 
L 998 5069 
L 998 384 
z
" transform="scale(0.015625)"/>
     </defs>
     <use xlink:href="#STHeitiTC-Medium-49"/>
     <use xlink:href="#STHeitiTC-Medium-64" x="22.599991"/>
     <use xlink:href="#STHeitiTC-Medium-65" x="91.099976"/>
     <use xlink:href="#STHeitiTC-Medium-61" x="156.09996"/>
     <use xlink:href="#STHeitiTC-Medium-6c" x="224.399948"/>
     <use xlink:href="#STHeitiTC-Medium-20" x="244.399933"/>
     <use xlink:href="#STHeitiTC-Medium-6c" x="269.399918"/>
     <use xlink:href="#STHeitiTC-Medium-69" x="289.399902"/>
     <use xlink:href="#STHeitiTC-Medium-6e" x="309.399887"/>
     <use xlink:href="#STHeitiTC-Medium-65" x="370.399872"/>
     <use xlink:href="#STHeitiTC-Medium-61" x="435.399857"/>
     <use xlink:href="#STHeitiTC-Medium-72" x="503.699844"/>
    </g>
   </g>
   <g id="line2d_73">
    <path d="M 302.399 121.088 
L 315.199 121.088 
L 327.999 121.088 
" style="fill: none; stroke: #2563eb; stroke-width: 2.8; stroke-linecap: square"/>
    <g>
     <use xlink:href="#me41e61e6ef" x="315.199" y="121.088" style="fill: #2563eb; stroke: #2563eb"/>
    </g>
   </g>
   <g id="text_41">
    <!-- Atomic -->
    <g transform="translate(338.239 125.568) scale(0.128 -0.128)">
     <use xlink:href="#STHeitiTC-Medium-41"/>
     <use xlink:href="#STHeitiTC-Medium-74" x="73.999985"/>
     <use xlink:href="#STHeitiTC-Medium-6f" x="107.899979"/>
     <use xlink:href="#STHeitiTC-Medium-6d" x="173.399963"/>
     <use xlink:href="#STHeitiTC-Medium-69" x="267.199951"/>
     <use xlink:href="#STHeitiTC-Medium-63" x="287.199936"/>
    </g>
   </g>
   <g id="line2d_74">
    <path d="M 408.883 121.088 
L 421.683 121.088 
L 434.483 121.088 
" style="fill: none; stroke: #16a34a; stroke-width: 2.8; stroke-linecap: square"/>
    <g>
     <use xlink:href="#m674348a8a8" x="421.683" y="121.088" style="fill: #16a34a; stroke: #16a34a"/>
    </g>
   </g>
   <g id="text_42">
    <!-- Private CSR -->
    <g transform="translate(444.723 125.568) scale(0.128 -0.128)">
     <use xlink:href="#STHeitiTC-Medium-50"/>
     <use xlink:href="#STHeitiTC-Medium-72" x="59.199997"/>
     <use xlink:href="#STHeitiTC-Medium-69" x="89.299988"/>
     <use xlink:href="#STHeitiTC-Medium-76" x="109.299973"/>
     <use xlink:href="#STHeitiTC-Medium-61" x="164.699966"/>
     <use xlink:href="#STHeitiTC-Medium-74" x="232.999954"/>
     <use xlink:href="#STHeitiTC-Medium-65" x="266.899948"/>
     <use xlink:href="#STHeitiTC-Medium-20" x="331.899933"/>
     <use xlink:href="#STHeitiTC-Medium-43" x="356.899918"/>
     <use xlink:href="#STHeitiTC-Medium-53" x="438.199905"/>
     <use xlink:href="#STHeitiTC-Medium-52" x="487.999893"/>
    </g>
   </g>
   <g id="line2d_75">
    <path d="M 540.557 121.088 
L 553.357 121.088 
L 566.157 121.088 
" style="fill: none; stroke: #f97316; stroke-width: 2.8; stroke-linecap: square"/>
    <g>
     <use xlink:href="#md7b1cb1574" x="553.357" y="121.088" style="fill: #f97316; stroke: #f97316"/>
    </g>
   </g>
   <g id="text_43">
    <!-- COO Sort-Reduce -->
    <g transform="translate(576.397 125.568) scale(0.128 -0.128)">
     <use xlink:href="#STHeitiTC-Medium-43"/>
     <use xlink:href="#STHeitiTC-Medium-4f" x="81.299988"/>
     <use xlink:href="#STHeitiTC-Medium-4f" x="168.199982"/>
     <use xlink:href="#STHeitiTC-Medium-20" x="255.099976"/>
     <use xlink:href="#STHeitiTC-Medium-53" x="280.09996"/>
     <use xlink:href="#STHeitiTC-Medium-6f" x="329.899948"/>
     <use xlink:href="#STHeitiTC-Medium-72" x="395.399933"/>
     <use xlink:href="#STHeitiTC-Medium-74" x="425.499924"/>
     <use xlink:href="#STHeitiTC-Medium-2d" x="459.399918"/>
     <use xlink:href="#STHeitiTC-Medium-52" x="492.599915"/>
     <use xlink:href="#STHeitiTC-Medium-65" x="553.299911"/>
     <use xlink:href="#STHeitiTC-Medium-64" x="618.299896"/>
     <use xlink:href="#STHeitiTC-Medium-75" x="686.799881"/>
     <use xlink:href="#STHeitiTC-Medium-63" x="747.599869"/>
     <use xlink:href="#STHeitiTC-Medium-65" x="812.299866"/>
    </g>
   </g>
   <g id="line2d_76">
    <path d="M 714.293 121.088 
L 727.093 121.088 
L 739.893 121.088 
" style="fill: none; stroke: #8b5cf6; stroke-width: 2.8; stroke-linecap: square"/>
    <g>
     <use xlink:href="#mba4897208b" x="727.093" y="121.088" style="fill: #8b5cf6; stroke: #8b5cf6"/>
    </g>
   </g>
   <g id="text_44">
    <!-- Graph Coloring -->
    <g transform="translate(750.133 125.568) scale(0.128 -0.128)">
     <defs>
      <path id="STHeitiTC-Medium-47" d="M 5325 2675 
Q 5306 1536 4662 902 
Q 4019 269 2970 269 
Q 1766 269 1049 1008 
Q 333 1747 333 2739 
Q 333 3731 1049 4457 
Q 1766 5184 2899 5184 
Q 3514 5184 4042 4957 
Q 4570 4730 5075 4262 
L 4653 3859 
Q 4262 4237 3808 4438 
Q 3354 4640 2874 4640 
Q 2394 4640 1920 4384 
Q 1446 4128 1177 3693 
Q 909 3258 909 2752 
Q 909 1965 1501 1379 
Q 2093 794 2982 794 
Q 3642 794 4122 1155 
Q 4602 1517 4710 2144 
L 3251 2144 
L 3251 2675 
L 5325 2675 
z
" transform="scale(0.015625)"/>
      <path id="STHeitiTC-Medium-67" d="M 3930 1203 
Q 3930 512 3811 179 
Q 3693 -154 3453 -384 
Q 3213 -614 2877 -732 
Q 2541 -851 2138 -851 
Q 774 -851 320 301 
L 883 301 
Q 1254 -365 2118 -365 
Q 2515 -365 2828 -211 
Q 3142 -58 3270 198 
Q 3398 454 3398 986 
L 3398 1018 
Q 3149 736 2797 589 
Q 2445 442 2067 442 
Q 1312 442 803 960 
Q 294 1478 301 2182 
Q 294 2918 832 3440 
Q 1370 3962 2109 3962 
Q 2848 3962 3398 3360 
L 3398 3872 
L 3930 3872 
L 3930 1203 
z
M 3418 2182 
Q 3418 2733 3050 3091 
Q 2682 3450 2150 3450 
Q 1587 3450 1206 3062 
Q 826 2675 826 2163 
Q 826 1651 1190 1296 
Q 1555 941 2124 941 
Q 2694 941 3056 1289 
Q 3418 1638 3418 2182 
z
" transform="scale(0.015625)"/>
     </defs>
     <use xlink:href="#STHeitiTC-Medium-47"/>
     <use xlink:href="#STHeitiTC-Medium-72" x="87.199982"/>
     <use xlink:href="#STHeitiTC-Medium-61" x="117.299973"/>
     <use xlink:href="#STHeitiTC-Medium-70" x="185.59996"/>
     <use xlink:href="#STHeitiTC-Medium-68" x="253.799942"/>
     <use xlink:href="#STHeitiTC-Medium-20" x="314.799927"/>
     <use xlink:href="#STHeitiTC-Medium-43" x="339.799911"/>
     <use xlink:href="#STHeitiTC-Medium-6f" x="421.099899"/>
     <use xlink:href="#STHeitiTC-Medium-6c" x="486.599884"/>
     <use xlink:href="#STHeitiTC-Medium-6f" x="506.599869"/>
     <use xlink:href="#STHeitiTC-Medium-72" x="572.099854"/>
     <use xlink:href="#STHeitiTC-Medium-69" x="602.199844"/>
     <use xlink:href="#STHeitiTC-Medium-6e" x="622.199829"/>
     <use xlink:href="#STHeitiTC-Medium-67" x="683.199814"/>
    </g>
   </g>
   <g id="line2d_77">
    <path d="M 871.795 121.088 
L 884.595 121.088 
L 897.395 121.088 
" style="fill: none; stroke: #e11d48; stroke-width: 2.8; stroke-linecap: square"/>
    <g>
     <use xlink:href="#meb12e080e8" x="884.595" y="121.088" style="fill: #e11d48; stroke: #e11d48"/>
    </g>
   </g>
   <g id="text_45">
    <!-- Row Owner -->
    <g transform="translate(907.635 125.568) scale(0.128 -0.128)">
     <use xlink:href="#STHeitiTC-Medium-52"/>
     <use xlink:href="#STHeitiTC-Medium-6f" x="60.699997"/>
     <use xlink:href="#STHeitiTC-Medium-77" x="126.199982"/>
     <use xlink:href="#STHeitiTC-Medium-20" x="209.299973"/>
     <use xlink:href="#STHeitiTC-Medium-4f" x="234.299957"/>
     <use xlink:href="#STHeitiTC-Medium-77" x="321.199951"/>
     <use xlink:href="#STHeitiTC-Medium-6e" x="404.299942"/>
     <use xlink:href="#STHeitiTC-Medium-65" x="465.299927"/>
     <use xlink:href="#STHeitiTC-Medium-72" x="530.299911"/>
    </g>
   </g>
  </g>
 </g>
 <defs>
  <clipPath id="p5a87c437d5">
   <rect x="86.4" y="168.48" width="460.8" height="362.88"/>
  </clipPath>
  <clipPath id="p8c36e3ee2c">
   <rect x="639.36" y="168.48" width="437.76" height="362.88"/>
  </clipPath>
 </defs>
</svg>
