<?xml version="1.0" encoding="utf-8" standalone="no"?>
<!DOCTYPE svg PUBLIC "-//W3C//DTD SVG 1.1//EN"
  "http://www.w3.org/Graphics/SVG/1.1/DTD/svg11.dtd">
<svg xmlns:xlink="http://www.w3.org/1999/xlink" width="1152pt" height="648pt" viewBox="0 0 1152 648" xmlns="http://www.w3.org/2000/svg" version="1.1">
 <metadata>
  <rdf:RDF xmlns:dc="http://purl.org/dc/elements/1.1/" xmlns:cc="http://creativecommons.org/ns#" xmlns:rdf="http://www.w3.org/1999/02/22-rdf-syntax-ns#">
   <cc:Work>
    <dc:type rdf:resource="http://purl.org/dc/dcmitype/StillImage"/>
    <dc:date>2026-04-27T20:59:58.957741</dc:date>
    <dc:format>image/svg+xml</dc:format>
    <dc:creator>
     <cc:Agent>
      <dc:title>Matplotlib v3.9.4, https://matplotlib.org/</dc:title>
     </cc:Agent>
    </dc:creator>
   </cc:Work>
  </rdf:RDF>
 </metadata>
 <defs>
  <style type="text/css">*{stroke-linejoin: round; stroke-linecap: butt}</style>
 </defs>
 <g id="figure_1">
  <g id="patch_1">
   <path d="M 0 648 
L 1152 648 
L 1152 0 
L 0 0 
z
" style="fill: #f8fafc"/>
  </g>
  <g id="axes_1">
   <g id="patch_2">
    <path d="M 103.68 531.36 
L 1071.36 531.36 
L 1071.36 129.6 
L 103.68 129.6 
z
" style="fill: #ffffff"/>
   </g>
   <g id="matplotlib.axis_1">
    <g id="xtick_1">
     <g id="line2d_1">
      <path d="M 211.575944 531.36 
L 211.575944 129.6 
" clip-path="url(#pe7f7488e6b)" style="fill: none; stroke: #e2e8f0; stroke-linecap: square"/>
     </g>
     <g id="line2d_2">
      <defs>
       <path id="m7c4e00dd44" d="M 0 0 
L 0 3.5 
" style="stroke: #334155; stroke-width: 0.8"/>
      </defs>
      <g>
       <use xlink:href="#m7c4e00dd44" x="211.575944" y="531.36" style="fill: #334155; stroke: #334155; stroke-width: 0.8"/>
      </g>
     </g>
     <g id="text_1">
      <!-- Atomic -->
      <g style="fill: #334155" transform="translate(188.702038 548.89) scale(0.13 -0.13)">
       <defs>
        <path id="STHeitiTC-Medium-41" d="M 4646 384 
L 4064 384 
L 3341 1952 
L 1408 1952 
L 691 384 
L 83 384 
L 2298 5254 
L 2464 5254 
L 4646 384 
z
M 3091 2509 
L 2381 4090 
L 1664 2509 
L 3091 2509 
z
" transform="scale(0.015625)"/>
        <path id="STHeitiTC-Medium-74" d="M 2048 3411 
L 1357 3411 
L 1357 966 
Q 1357 832 1395 803 
Q 1434 774 1587 774 
L 1894 774 
L 1894 320 
Q 1587 269 1427 269 
Q 1120 269 973 419 
Q 826 570 826 896 
L 826 3411 
L 224 3411 
L 224 3872 
L 826 3872 
L 826 5184 
L 1357 5184 
L 1357 3872 
L 2048 3872 
L 2048 3411 
z
" transform="scale(0.015625)"/>
        <path id="STHeitiTC-Medium-6f" d="M 2099 3962 
Q 2854 3962 3382 3418 
Q 3910 2874 3910 2112 
Q 3910 1350 3388 809 
Q 2867 269 2099 269 
Q 1331 269 806 809 
Q 282 1350 282 2112 
Q 282 2874 810 3418 
Q 1338 3962 2099 3962 
z
M 2099 774 
Q 2630 774 3004 1161 
Q 3379 1549 3379 2096 
Q 3379 2643 2998 3043 
Q 2618 3443 2096 3443 
Q 1574 3443 1196 3043 
Q 819 2643 819 2092 
Q 819 1542 1184 1158 
Q 1549 774 2099 774 
z
" transform="scale(0.015625)"/>
        <path id="STHeitiTC-Medium-6d" d="M 5613 384 
L 5075 384 
L 5075 2285 
Q 5075 2739 5020 2950 
Q 4966 3162 4784 3306 
Q 4602 3450 4304 3450 
Q 4006 3450 3744 3258 
Q 3482 3066 3379 2736 
Q 3277 2406 3277 1760 
L 3277 384 
L 2758 384 
L 2758 2170 
Q 2758 2694 2704 2924 
Q 2650 3155 2464 3302 
Q 2278 3450 1996 3450 
Q 1715 3450 1462 3274 
Q 1210 3098 1088 2813 
Q 966 2528 966 1869 
L 966 384 
L 442 384 
L 442 3872 
L 966 3872 
L 966 3379 
Q 1414 3962 2086 3962 
Q 2451 3962 2748 3766 
Q 3046 3571 3174 3213 
Q 3392 3578 3718 3770 
Q 4045 3962 4410 3962 
Q 4909 3962 5261 3610 
Q 5613 3258 5613 2285 
L 5613 384 
z
" transform="scale(0.015625)"/>
        <path id="STHeitiTC-Medium-69" d="M 640 5184 
Q 813 5184 931 5065 
Q 1050 4947 1050 4777 
Q 1050 4608 931 4489 
Q 813 4371 643 4371 
Q 474 4371 355 4492 
Q 237 4614 237 4777 
Q 237 4941 355 5062 
Q 474 5184 640 5184 
z
M 909 384 
L 378 384 
L 378 3872 
L 909 3872 
L 909 384 
z
" transform="scale(0.015625)"/>
        <path id="STHeitiTC-Medium-63" d="M 3853 1094 
Q 3578 691 3133 480 
Q 2688 269 2170 269 
Q 1363 269 822 800 
Q 282 1331 282 2099 
Q 282 2867 826 3414 
Q 1370 3962 2234 3962 
Q 2746 3962 3178 3738 
Q 3610 3514 3853 3110 
L 3437 2848 
Q 2970 3456 2214 3456 
Q 1619 3456 1216 3075 
Q 813 2694 813 2131 
Q 813 1568 1209 1165 
Q 1606 762 2214 762 
Q 2944 762 3443 1376 
L 3853 1094 
z
" transform="scale(0.015625)"/>
       </defs>
       <use xlink:href="#STHeitiTC-Medium-41"/>
       <use xlink:href="#STHeitiTC-Medium-74" x="73.999985"/>
       <use xlink:href="#STHeitiTC-Medium-6f" x="107.899979"/>
       <use xlink:href="#STHeitiTC-Medium-6d" x="173.399963"/>
       <use xlink:href="#STHeitiTC-Medium-69" x="267.199951"/>
       <use xlink:href="#STHeitiTC-Medium-63" x="287.199936"/>
      </g>
     </g>
    </g>
    <g id="xtick_2">
     <g id="line2d_3">
      <path d="M 399.547972 531.36 
L 399.547972 129.6 
" clip-path="url(#pe7f7488e6b)" style="fill: none; stroke: #e2e8f0; stroke-linecap: square"/>
     </g>
     <g id="line2d_4">
      <g>
       <use xlink:href="#m7c4e00dd44" x="399.547972" y="531.36" style="fill: #334155; stroke: #334155; stroke-width: 0.8"/>
      </g>
     </g>
     <g id="text_2">
      <!-- Private CSR -->
      <g style="fill: #334155" transform="translate(363.882269 548.89) scale(0.13 -0.13)">
       <defs>
        <path id="STHeitiTC-Medium-50" d="M 512 5069 
L 1472 5069 
Q 2291 5069 2547 5005 
Q 2803 4941 3017 4774 
Q 3232 4608 3353 4358 
Q 3475 4109 3475 3795 
Q 3475 3482 3356 3232 
Q 3238 2982 3017 2819 
Q 2797 2656 2477 2589 
Q 2157 2522 1344 2522 
L 1062 2522 
L 1062 384 
L 512 384 
L 512 5069 
z
M 1062 3053 
L 1792 3053 
Q 2438 3040 2672 3257 
Q 2906 3475 2906 3802 
Q 2906 4531 1830 4531 
L 1062 4531 
L 1062 3053 
z
" transform="scale(0.015625)"/>
        <path id="STHeitiTC-Medium-72" d="M 1914 3821 
L 1638 3373 
Q 1530 3430 1427 3430 
Q 1229 3430 1069 3235 
Q 909 3040 829 2723 
Q 749 2406 749 1581 
L 749 384 
L 211 384 
L 211 3872 
L 749 3872 
L 749 3494 
Q 909 3731 1072 3846 
Q 1235 3962 1443 3962 
Q 1651 3962 1914 3821 
z
" transform="scale(0.015625)"/>
        <path id="STHeitiTC-Medium-76" d="M 3430 3872 
L 1837 269 
L 1709 269 
L 102 3872 
L 659 3872 
L 1766 1350 
L 2874 3872 
L 3430 3872 
z
" transform="scale(0.015625)"/>
        <path id="STHeitiTC-Medium-61" d="M 3917 384 
L 3398 384 
L 3398 896 
Q 2829 269 2086 269 
Q 1344 269 816 816 
Q 288 1363 288 2121 
Q 288 2880 819 3421 
Q 1350 3962 2115 3962 
Q 2880 3962 3398 3341 
L 3398 3872 
L 3917 3872 
L 3917 384 
z
M 2125 762 
Q 2656 762 3040 1146 
Q 3424 1530 3424 2102 
Q 3424 2675 3046 3062 
Q 2669 3450 2121 3450 
Q 1574 3450 1196 3050 
Q 819 2650 819 2106 
Q 819 1562 1203 1162 
Q 1587 762 2125 762 
z
" transform="scale(0.015625)"/>
        <path id="STHeitiTC-Medium-65" d="M 3878 2035 
L 819 2035 
Q 851 1459 1206 1110 
Q 1562 762 2054 762 
Q 2893 762 3334 1587 
L 3782 1357 
Q 3482 800 3072 534 
Q 2662 269 2093 269 
Q 1306 269 794 809 
Q 282 1350 282 2112 
Q 282 2874 797 3418 
Q 1312 3962 2073 3962 
Q 2835 3962 3347 3446 
Q 3859 2931 3878 2035 
z
M 3290 2502 
Q 3194 2950 2854 3200 
Q 2515 3450 2074 3450 
Q 1178 3450 883 2502 
L 3290 2502 
z
" transform="scale(0.015625)"/>
        <path id="STHeitiTC-Medium-20" transform="scale(0.015625)"/>
        <path id="STHeitiTC-Medium-43" d="M 4909 1242 
Q 4154 269 2835 269 
Q 1722 269 1011 973 
Q 301 1677 301 2752 
Q 301 3418 630 3981 
Q 960 4544 1542 4864 
Q 2125 5184 2800 5184 
Q 3475 5184 4009 4925 
Q 4544 4666 4902 4166 
L 4480 3840 
Q 3814 4646 2835 4646 
Q 2035 4646 1456 4083 
Q 877 3520 877 2704 
Q 877 1888 1443 1341 
Q 2010 794 2912 794 
Q 3814 794 4480 1568 
L 4909 1242 
z
" transform="scale(0.015625)"/>
        <path id="STHeitiTC-Medium-53" d="M 2317 4038 
Q 2061 4384 1881 4502 
Q 1702 4621 1462 4621 
Q 1222 4621 1059 4467 
Q 896 4314 896 4074 
Q 896 3834 1049 3654 
Q 1203 3475 1756 3068 
Q 2310 2662 2566 2304 
Q 2822 1946 2822 1549 
Q 2822 1030 2422 649 
Q 2022 269 1491 269 
Q 557 269 26 1312 
L 493 1581 
Q 909 806 1427 806 
Q 1760 806 1997 1017 
Q 2234 1229 2234 1510 
Q 2234 1792 2035 2045 
Q 1837 2298 1350 2666 
Q 864 3034 681 3226 
Q 499 3418 416 3635 
Q 333 3853 333 4070 
Q 333 4538 656 4861 
Q 979 5184 1491 5184 
Q 1888 5184 2182 4982 
Q 2477 4781 2758 4384 
L 2317 4038 
z
" transform="scale(0.015625)"/>
        <path id="STHeitiTC-Medium-52" d="M 3622 384 
L 2931 384 
L 1280 2522 
L 1088 2522 
L 1088 384 
L 538 384 
L 538 5069 
L 1498 5069 
Q 2266 5069 2554 5001 
Q 2842 4934 3053 4774 
Q 3264 4614 3385 4361 
Q 3507 4109 3507 3802 
Q 3507 3219 3110 2870 
Q 2714 2522 1965 2522 
L 3622 384 
z
M 1088 3059 
L 1837 3059 
Q 2400 3053 2669 3229 
Q 2938 3405 2938 3792 
Q 2938 4179 2675 4355 
Q 2413 4531 1856 4531 
L 1088 4531 
L 1088 3059 
z
" transform="scale(0.015625)"/>
       </defs>
       <use xlink:href="#STHeitiTC-Medium-50"/>
       <use xlink:href="#STHeitiTC-Medium-72" x="59.199997"/>
       <use xlink:href="#STHeitiTC-Medium-69" x="89.299988"/>
       <use xlink:href="#STHeitiTC-Medium-76" x="109.299973"/>
       <use xlink:href="#STHeitiTC-Medium-61" x="164.699966"/>
       <use xlink:href="#STHeitiTC-Medium-74" x="232.999954"/>
       <use xlink:href="#STHeitiTC-Medium-65" x="266.899948"/>
       <use xlink:href="#STHeitiTC-Medium-20" x="331.899933"/>
       <use xlink:href="#STHeitiTC-Medium-43" x="356.899918"/>
       <use xlink:href="#STHeitiTC-Medium-53" x="438.199905"/>
       <use xlink:href="#STHeitiTC-Medium-52" x="487.999893"/>
      </g>
     </g>
    </g>
    <g id="xtick_3">
     <g id="line2d_5">
      <path d="M 587.52 531.36 
L 587.52 129.6 
" clip-path="url(#pe7f7488e6b)" style="fill: none; stroke: #e2e8f0; stroke-linecap: square"/>
     </g>
     <g id="line2d_6">
      <g>
       <use xlink:href="#m7c4e00dd44" x="587.52" y="531.36" style="fill: #334155; stroke: #334155; stroke-width: 0.8"/>
      </g>
     </g>
     <g id="text_3">
      <!-- COO -->
      <g style="fill: #334155" transform="translate(570.937891 548.89) scale(0.13 -0.13)">
       <defs>
        <path id="STHeitiTC-Medium-4f" d="M 2752 5184 
Q 3437 5184 4013 4861 
Q 4589 4538 4918 3968 
Q 5248 3398 5248 2729 
Q 5248 2061 4921 1491 
Q 4595 922 4025 595 
Q 3456 269 2787 269 
Q 2118 269 1542 592 
Q 966 915 640 1481 
Q 314 2048 314 2717 
Q 314 3386 640 3958 
Q 966 4531 1532 4857 
Q 2099 5184 2752 5184 
z
M 2771 806 
Q 3571 806 4124 1350 
Q 4678 1894 4678 2713 
Q 4678 3533 4118 4089 
Q 3558 4646 2771 4646 
Q 1965 4646 1424 4086 
Q 883 3526 883 2723 
Q 883 1920 1440 1363 
Q 1997 806 2771 806 
z
" transform="scale(0.015625)"/>
       </defs>
       <use xlink:href="#STHeitiTC-Medium-43"/>
       <use xlink:href="#STHeitiTC-Medium-4f" x="81.299988"/>
       <use xlink:href="#STHeitiTC-Medium-4f" x="168.199982"/>
      </g>
      <!-- Sort-Reduce -->
      <g style="fill: #334155" transform="translate(548.701797 563.254594) scale(0.13 -0.13)">
       <defs>
        <path id="STHeitiTC-Medium-2d" d="M 1965 2067 
L 160 2067 
L 160 2541 
L 1965 2541 
L 1965 2067 
z
" transform="scale(0.015625)"/>
        <path id="STHeitiTC-Medium-64" d="M 3923 384 
L 3405 384 
L 3405 896 
Q 2835 269 2089 269 
Q 1344 269 819 813 
Q 294 1357 294 2118 
Q 294 2880 825 3421 
Q 1357 3962 2121 3962 
Q 2886 3962 3405 3341 
L 3405 5184 
L 3923 5184 
L 3923 384 
z
M 2131 762 
Q 2637 762 3033 1139 
Q 3430 1517 3430 2096 
Q 3430 2675 3062 3062 
Q 2694 3450 2134 3450 
Q 1574 3450 1200 3050 
Q 826 2650 826 2109 
Q 826 1568 1210 1165 
Q 1594 762 2131 762 
z
" transform="scale(0.015625)"/>
        <path id="STHeitiTC-Medium-75" d="M 3450 384 
L 2918 384 
L 2918 909 
Q 2400 294 1690 294 
Q 1312 294 1005 489 
Q 698 685 544 1027 
Q 390 1370 390 2080 
L 390 3872 
L 915 3872 
L 915 2208 
Q 915 1632 969 1424 
Q 1024 1216 1129 1072 
Q 1235 928 1398 857 
Q 1562 787 1795 787 
Q 2029 787 2253 902 
Q 2477 1018 2637 1222 
Q 2797 1427 2857 1657 
Q 2918 1888 2918 2579 
L 2918 3872 
L 3450 3872 
L 3450 384 
z
" transform="scale(0.015625)"/>
       </defs>
       <use xlink:href="#STHeitiTC-Medium-53"/>
       <use xlink:href="#STHeitiTC-Medium-6f" x="49.799988"/>
       <use xlink:href="#STHeitiTC-Medium-72" x="115.299973"/>
       <use xlink:href="#STHeitiTC-Medium-74" x="145.399963"/>
       <use xlink:href="#STHeitiTC-Medium-2d" x="179.299957"/>
       <use xlink:href="#STHeitiTC-Medium-52" x="212.499954"/>
       <use xlink:href="#STHeitiTC-Medium-65" x="273.199951"/>
       <use xlink:href="#STHeitiTC-Medium-64" x="338.199936"/>
       <use xlink:href="#STHeitiTC-Medium-75" x="406.699921"/>
       <use xlink:href="#STHeitiTC-Medium-63" x="467.499908"/>
       <use xlink:href="#STHeitiTC-Medium-65" x="532.199905"/>
      </g>
     </g>
    </g>
    <g id="xtick_4">
     <g id="line2d_7">
      <path d="M 775.492028 531.36 
L 775.492028 129.6 
" clip-path="url(#pe7f7488e6b)" style="fill: none; stroke: #e2e8f0; stroke-linecap: square"/>
     </g>
     <g id="line2d_8">
      <g>
       <use xlink:href="#m7c4e00dd44" x="775.492028" y="531.36" style="fill: #334155; stroke: #334155; stroke-width: 0.8"/>
      </g>
     </g>
     <g id="text_4">
      <!-- Graph -->
      <g style="fill: #334155" transform="translate(755.030231 548.89) scale(0.13 -0.13)">
       <defs>
        <path id="STHeitiTC-Medium-47" d="M 5325 2675 
Q 5306 1536 4662 902 
Q 4019 269 2970 269 
Q 1766 269 1049 1008 
Q 333 1747 333 2739 
Q 333 3731 1049 4457 
Q 1766 5184 2899 5184 
Q 3514 5184 4042 4957 
Q 4570 4730 5075 4262 
L 4653 3859 
Q 4262 4237 3808 4438 
Q 3354 4640 2874 4640 
Q 2394 4640 1920 4384 
Q 1446 4128 1177 3693 
Q 909 3258 909 2752 
Q 909 1965 1501 1379 
Q 2093 794 2982 794 
Q 3642 794 4122 1155 
Q 4602 1517 4710 2144 
L 3251 2144 
L 3251 2675 
L 5325 2675 
z
" transform="scale(0.015625)"/>
        <path id="STHeitiTC-Medium-70" d="M 973 3341 
Q 1491 3962 2252 3962 
Q 3014 3962 3545 3421 
Q 4077 2880 4077 2118 
Q 4077 1357 3552 813 
Q 3027 269 2284 269 
Q 1542 269 973 896 
L 973 -851 
L 448 -851 
L 448 3872 
L 973 3872 
L 973 3341 
z
M 2253 762 
Q 2778 762 3165 1155 
Q 3552 1549 3552 2105 
Q 3552 2662 3171 3056 
Q 2790 3450 2240 3450 
Q 1690 3450 1315 3062 
Q 941 2675 941 2105 
Q 941 1536 1325 1149 
Q 1709 762 2253 762 
z
" transform="scale(0.015625)"/>
        <path id="STHeitiTC-Medium-68" d="M 3501 384 
L 2970 384 
L 2970 2048 
Q 2970 2534 2941 2732 
Q 2912 2931 2809 3107 
Q 2707 3283 2531 3376 
Q 2355 3469 2108 3469 
Q 1862 3469 1638 3353 
Q 1414 3238 1254 3033 
Q 1094 2829 1033 2598 
Q 973 2368 973 1677 
L 973 384 
L 442 384 
L 442 5184 
L 973 5184 
L 973 3347 
Q 1491 3962 2202 3962 
Q 2579 3962 2886 3766 
Q 3194 3571 3347 3228 
Q 3501 2886 3501 2176 
L 3501 384 
z
" transform="scale(0.015625)"/>
       </defs>
       <use xlink:href="#STHeitiTC-Medium-47"/>
       <use xlink:href="#STHeitiTC-Medium-72" x="87.199982"/>
       <use xlink:href="#STHeitiTC-Medium-61" x="117.299973"/>
       <use xlink:href="#STHeitiTC-Medium-70" x="185.59996"/>
       <use xlink:href="#STHeitiTC-Medium-68" x="253.799942"/>
      </g>
      <!-- Coloring -->
      <g style="fill: #334155" transform="translate(748.79734 563.254594) scale(0.13 -0.13)">
       <defs>
        <path id="STHeitiTC-Medium-6c" d="M 902 384 
L 378 384 
L 378 5184 
L 902 5184 
L 902 384 
z
" transform="scale(0.015625)"/>
        <path id="STHeitiTC-Medium-6e" d="M 3501 384 
L 2976 384 
L 2976 2048 
Q 2976 2624 2921 2832 
Q 2867 3040 2761 3184 
Q 2656 3328 2493 3398 
Q 2330 3469 2096 3469 
Q 1862 3469 1638 3353 
Q 1414 3238 1254 3033 
Q 1094 2829 1033 2598 
Q 973 2368 973 1677 
L 973 384 
L 442 384 
L 442 3872 
L 973 3872 
L 973 3347 
Q 1491 3962 2202 3962 
Q 2579 3962 2886 3766 
Q 3194 3571 3347 3228 
Q 3501 2886 3501 2176 
L 3501 384 
z
" transform="scale(0.015625)"/>
        <path id="STHeitiTC-Medium-67" d="M 3930 1203 
Q 3930 512 3811 179 
Q 3693 -154 3453 -384 
Q 3213 -614 2877 -732 
Q 2541 -851 2138 -851 
Q 774 -851 320 301 
L 883 301 
Q 1254 -365 2118 -365 
Q 2515 -365 2828 -211 
Q 3142 -58 3270 198 
Q 3398 454 3398 986 
L 3398 1018 
Q 3149 736 2797 589 
Q 2445 442 2067 442 
Q 1312 442 803 960 
Q 294 1478 301 2182 
Q 294 2918 832 3440 
Q 1370 3962 2109 3962 
Q 2848 3962 3398 3360 
L 3398 3872 
L 3930 3872 
L 3930 1203 
z
M 3418 2182 
Q 3418 2733 3050 3091 
Q 2682 3450 2150 3450 
Q 1587 3450 1206 3062 
Q 826 2675 826 2163 
Q 826 1651 1190 1296 
Q 1555 941 2124 941 
Q 2694 941 3056 1289 
Q 3418 1638 3418 2182 
z
" transform="scale(0.015625)"/>
       </defs>
       <use xlink:href="#STHeitiTC-Medium-43"/>
       <use xlink:href="#STHeitiTC-Medium-6f" x="81.299988"/>
       <use xlink:href="#STHeitiTC-Medium-6c" x="146.799973"/>
       <use xlink:href="#STHeitiTC-Medium-6f" x="166.799957"/>
       <use xlink:href="#STHeitiTC-Medium-72" x="232.299942"/>
       <use xlink:href="#STHeitiTC-Medium-69" x="262.399933"/>
       <use xlink:href="#STHeitiTC-Medium-6e" x="282.399918"/>
       <use xlink:href="#STHeitiTC-Medium-67" x="343.399902"/>
      </g>
     </g>
    </g>
    <g id="xtick_5">
     <g id="line2d_9">
      <path d="M 963.464056 531.36 
L 963.464056 129.6 
" clip-path="url(#pe7f7488e6b)" style="fill: none; stroke: #e2e8f0; stroke-linecap: square"/>
     </g>
     <g id="line2d_10">
      <g>
       <use xlink:href="#m7c4e00dd44" x="963.464056" y="531.36" style="fill: #334155; stroke: #334155; stroke-width: 0.8"/>
      </g>
     </g>
     <g id="text_5">
      <!-- Row Owner -->
      <g style="fill: #334155" transform="translate(927.038665 548.89) scale(0.13 -0.13)">
       <defs>
        <path id="STHeitiTC-Medium-77" d="M 5299 3872 
L 3808 269 
L 3674 269 
L 2650 2752 
L 1619 269 
L 1485 269 
L 19 3872 
L 563 3872 
L 1549 1363 
L 2586 3872 
L 2714 3872 
L 3744 1357 
L 4749 3872 
L 5299 3872 
z
" transform="scale(0.015625)"/>
       </defs>
       <use xlink:href="#STHeitiTC-Medium-52"/>
       <use xlink:href="#STHeitiTC-Medium-6f" x="60.699997"/>
       <use xlink:href="#STHeitiTC-Medium-77" x="126.199982"/>
       <use xlink:href="#STHeitiTC-Medium-20" x="209.299973"/>
       <use xlink:href="#STHeitiTC-Medium-4f" x="234.299957"/>
       <use xlink:href="#STHeitiTC-Medium-77" x="321.199951"/>
       <use xlink:href="#STHeitiTC-Medium-6e" x="404.299942"/>
       <use xlink:href="#STHeitiTC-Medium-65" x="465.299927"/>
       <use xlink:href="#STHeitiTC-Medium-72" x="530.299911"/>
      </g>
     </g>
    </g>
   </g>
   <g id="matplotlib.axis_2">
    <g id="ytick_1">
     <g id="line2d_11">
      <path d="M 103.68 531.36 
L 1071.36 531.36 
" clip-path="url(#pe7f7488e6b)" style="fill: none; stroke: #e2e8f0; stroke-linecap: square"/>
     </g>
     <g id="line2d_12">
      <defs>
       <path id="ma3b4b2807e" d="M 0 0 
L -3.5 0 
" style="stroke: #334155; stroke-width: 0.8"/>
      </defs>
      <g>
       <use xlink:href="#ma3b4b2807e" x="103.68" y="531.36" style="fill: #334155; stroke: #334155; stroke-width: 0.8"/>
      </g>
     </g>
     <g id="text_6">
      <!-- 0 -->
      <g style="fill: #334155" transform="translate(89.477187 536.625) scale(0.13 -0.13)">
       <defs>
        <path id="STHeitiTC-Medium-30" d="M 1747 5184 
Q 2502 5184 2944 4547 
Q 3386 3910 3386 2723 
Q 3386 1536 2938 902 
Q 2490 269 1738 269 
Q 986 269 573 893 
Q 160 1517 160 2729 
Q 160 3942 573 4563 
Q 986 5184 1747 5184 
z
M 1760 774 
Q 2285 774 2576 1283 
Q 2867 1792 2867 2726 
Q 2867 3661 2566 4160 
Q 2266 4659 1757 4659 
Q 1248 4659 966 4160 
Q 685 3661 685 2714 
Q 685 774 1760 774 
z
" transform="scale(0.015625)"/>
       </defs>
       <use xlink:href="#STHeitiTC-Medium-30"/>
      </g>
     </g>
    </g>
    <g id="ytick_2">
     <g id="line2d_13">
      <path d="M 103.68 446.405279 
L 1071.36 446.405279 
" clip-path="url(#pe7f7488e6b)" style="fill: none; stroke: #e2e8f0; stroke-linecap: square"/>
     </g>
     <g id="line2d_14">
      <g>
       <use xlink:href="#ma3b4b2807e" x="103.68" y="446.405279" style="fill: #334155; stroke: #334155; stroke-width: 0.8"/>
      </g>
     </g>
     <g id="text_7">
      <!-- 1 -->
      <g style="fill: #334155" transform="translate(89.477187 451.670279) scale(0.13 -0.13)">
       <defs>
        <path id="STHeitiTC-Medium-31" d="M 2131 384 
L 1587 384 
L 1587 4531 
L 826 4531 
L 1158 5069 
L 2131 5069 
L 2131 384 
z
" transform="scale(0.015625)"/>
       </defs>
       <use xlink:href="#STHeitiTC-Medium-31"/>
      </g>
     </g>
    </g>
    <g id="ytick_3">
     <g id="line2d_15">
      <path d="M 103.68 361.450558 
L 1071.36 361.450558 
" clip-path="url(#pe7f7488e6b)" style="fill: none; stroke: #e2e8f0; stroke-linecap: square"/>
     </g>
     <g id="line2d_16">
      <g>
       <use xlink:href="#ma3b4b2807e" x="103.68" y="361.450558" style="fill: #334155; stroke: #334155; stroke-width: 0.8"/>
      </g>
     </g>
     <g id="text_8">
      <!-- 2 -->
      <g style="fill: #334155" transform="translate(89.477187 366.715558) scale(0.13 -0.13)">
       <defs>
        <path id="STHeitiTC-Medium-32" d="M 3360 384 
L 90 384 
L 1914 2355 
Q 2374 2842 2566 3123 
Q 2758 3405 2758 3763 
Q 2758 4122 2480 4390 
Q 2202 4659 1789 4659 
Q 1376 4659 1101 4368 
Q 826 4077 787 3539 
L 256 3539 
Q 288 4294 736 4739 
Q 1184 5184 1821 5184 
Q 2458 5184 2877 4771 
Q 3296 4358 3296 3763 
Q 3296 3328 3065 2950 
Q 2835 2573 2368 2074 
L 1293 915 
L 3360 915 
L 3360 384 
z
" transform="scale(0.015625)"/>
       </defs>
       <use xlink:href="#STHeitiTC-Medium-32"/>
      </g>
     </g>
    </g>
    <g id="ytick_4">
     <g id="line2d_17">
      <path d="M 103.68 276.495837 
L 1071.36 276.495837 
" clip-path="url(#pe7f7488e6b)" style="fill: none; stroke: #e2e8f0; stroke-linecap: square"/>
     </g>
     <g id="line2d_18">
      <g>
       <use xlink:href="#ma3b4b2807e" x="103.68" y="276.495837" style="fill: #334155; stroke: #334155; stroke-width: 0.8"/>
      </g>
     </g>
     <g id="text_9">
      <!-- 3 -->
      <g style="fill: #334155" transform="translate(89.477187 281.760837) scale(0.13 -0.13)">
       <defs>
        <path id="STHeitiTC-Medium-33" d="M 2554 3021 
Q 2931 2835 3139 2508 
Q 3347 2182 3347 1798 
Q 3347 1171 2889 720 
Q 2432 269 1734 269 
Q 1107 269 707 630 
Q 307 992 166 1702 
L 710 1702 
Q 832 1248 1072 1027 
Q 1312 806 1757 806 
Q 2202 806 2502 1084 
Q 2803 1363 2803 1785 
Q 2803 2208 2460 2457 
Q 2118 2707 1453 2720 
L 1453 3232 
Q 1933 3232 2227 3437 
Q 2522 3642 2522 3946 
Q 2522 4250 2294 4451 
Q 2067 4653 1744 4653 
Q 1421 4653 1219 4470 
Q 1018 4288 877 3917 
L 320 3917 
Q 461 4531 832 4857 
Q 1203 5184 1747 5184 
Q 2291 5184 2691 4825 
Q 3091 4467 3091 3955 
Q 3091 3366 2554 3021 
z
" transform="scale(0.015625)"/>
       </defs>
       <use xlink:href="#STHeitiTC-Medium-33"/>
      </g>
     </g>
    </g>
    <g id="ytick_5">
     <g id="line2d_19">
      <path d="M 103.68 191.541115 
L 1071.36 191.541115 
" clip-path="url(#pe7f7488e6b)" style="fill: none; stroke: #e2e8f0; stroke-linecap: square"/>
     </g>
     <g id="line2d_20">
      <g>
       <use xlink:href="#ma3b4b2807e" x="103.68" y="191.541115" style="fill: #334155; stroke: #334155; stroke-width: 0.8"/>
      </g>
     </g>
     <g id="text_10">
      <!-- 4 -->
      <g style="fill: #334155" transform="translate(89.477187 196.806115) scale(0.13 -0.13)">
       <defs>
        <path id="STHeitiTC-Medium-34" d="M 3418 1453 
L 2861 1453 
L 2861 384 
L 2317 384 
L 2317 1453 
L 70 1453 
L 2701 5184 
L 2861 5184 
L 2861 1984 
L 3418 1984 
L 3418 1453 
z
M 2317 1984 
L 2317 3712 
L 1094 1984 
L 2317 1984 
z
" transform="scale(0.015625)"/>
       </defs>
       <use xlink:href="#STHeitiTC-Medium-34"/>
      </g>
     </g>
    </g>
    <g id="text_11">
     <!-- Speedup × -->
     <g transform="translate(83.349687 373.9525) rotate(-90) scale(0.16 -0.16)">
      <defs>
       <path id="STHeitiTC-Medium-d7" d="M 4288 4550 
L 2624 2886 
L 4282 1229 
L 3962 909 
L 2304 2566 
L 646 909 
L 320 1229 
L 1984 2886 
L 320 4550 
L 640 4870 
L 2304 3206 
L 3968 4870 
L 4288 4550 
z
" transform="scale(0.015625)"/>
      </defs>
      <use xlink:href="#STHeitiTC-Medium-53"/>
      <use xlink:href="#STHeitiTC-Medium-70" x="49.799988"/>
      <use xlink:href="#STHeitiTC-Medium-65" x="117.999969"/>
      <use xlink:href="#STHeitiTC-Medium-65" x="182.999954"/>
      <use xlink:href="#STHeitiTC-Medium-64" x="247.999939"/>
      <use xlink:href="#STHeitiTC-Medium-75" x="316.499924"/>
      <use xlink:href="#STHeitiTC-Medium-70" x="377.299911"/>
      <use xlink:href="#STHeitiTC-Medium-20" x="445.499893"/>
      <use xlink:href="#STHeitiTC-Medium-d7" x="470.499878"/>
     </g>
    </g>
   </g>
   <g id="patch_3">
    <path d="M 147.665455 531.36 
L 275.486434 531.36 
L 275.486434 316.521854 
L 147.665455 316.521854 
z
" clip-path="url(#pe7f7488e6b)" style="fill: #2563eb"/>
   </g>
   <g id="patch_4">
    <path d="M 335.637483 531.36 
L 463.458462 531.36 
L 463.458462 288.316356 
L 335.637483 288.316356 
z
" clip-path="url(#pe7f7488e6b)" style="fill: #16a34a"/>
   </g>
   <g id="patch_5">
    <path d="M 523.60951 531.36 
L 651.43049 531.36 
L 651.43049 527.208596 
L 523.60951 527.208596 
z
" clip-path="url(#pe7f7488e6b)" style="fill: #f97316"/>
   </g>
   <g id="patch_6">
    <path d="M 711.581538 531.36 
L 839.402517 531.36 
L 839.402517 362.768163 
L 711.581538 362.768163 
z
" clip-path="url(#pe7f7488e6b)" style="fill: #8b5cf6"/>
   </g>
   <g id="patch_7">
    <path d="M 899.553566 531.36 
L 1027.374545 531.36 
L 1027.374545 217.485 
L 899.553566 217.485 
z
" clip-path="url(#pe7f7488e6b)" style="fill: #e11d48"/>
   </g>
   <g id="patch_8">
    <path d="M 103.68 531.36 
L 103.68 129.6 
" style="fill: none; stroke: #cbd5e1; stroke-width: 0.8; stroke-linejoin: miter; stroke-linecap: square"/>
   </g>
   <g id="patch_9">
    <path d="M 1071.36 531.36 
L 1071.36 129.6 
" style="fill: none; stroke: #cbd5e1; stroke-width: 0.8; stroke-linejoin: miter; stroke-linecap: square"/>
   </g>
   <g id="patch_10">
    <path d="M 103.68 531.36 
L 1071.36 531.36 
" style="fill: none; stroke: #cbd5e1; stroke-width: 0.8; stroke-linejoin: miter; stroke-linecap: square"/>
   </g>
   <g id="patch_11">
    <path d="M 103.68 129.6 
L 1071.36 129.6 
" style="fill: none; stroke: #cbd5e1; stroke-width: 0.8; stroke-linejoin: miter; stroke-linecap: square"/>
   </g>
   <g id="text_12">
    <!-- 2.53× -->
    <g style="fill: #0f172a" transform="translate(192.897975 290.695257) scale(0.14 -0.14)">
     <defs>
      <path id="STHeitiTC-Medium-2e" d="M 966 1478 
Q 1146 1478 1270 1353 
Q 1395 1229 1395 1046 
Q 1395 864 1270 739 
Q 1146 614 970 614 
Q 794 614 666 742 
Q 538 870 538 1049 
Q 538 1229 666 1353 
Q 794 1478 966 1478 
z
" transform="scale(0.015625)"/>
      <path id="STHeitiTC-Medium-35" d="M 3194 4544 
L 1549 4544 
L 1338 3398 
Q 1613 3469 1856 3469 
Q 2477 3469 2893 3030 
Q 3309 2592 3309 1913 
Q 3309 1235 2861 752 
Q 2413 269 1664 269 
Q 1088 269 691 621 
Q 294 973 211 1587 
L 768 1587 
Q 851 1203 1107 998 
Q 1363 794 1690 794 
Q 2125 794 2438 1123 
Q 2752 1453 2752 1939 
Q 2752 2374 2480 2656 
Q 2208 2938 1747 2938 
Q 1286 2938 672 2675 
L 1120 5069 
L 3194 5069 
L 3194 4544 
z
" transform="scale(0.015625)"/>
     </defs>
     <use xlink:href="#STHeitiTC-Medium-32"/>
     <use xlink:href="#STHeitiTC-Medium-2e" x="55.399994"/>
     <use xlink:href="#STHeitiTC-Medium-35" x="83.099991"/>
     <use xlink:href="#STHeitiTC-Medium-33" x="138.499985"/>
     <use xlink:href="#STHeitiTC-Medium-d7" x="193.899979"/>
    </g>
    <!-- @10T -->
    <g style="fill: #0f172a" transform="translate(194.768288 306.164819) scale(0.14 -0.14)">
     <defs>
      <path id="STHeitiTC-Medium-40" d="M 4877 1702 
Q 4461 1146 3984 867 
Q 3507 589 2819 589 
Q 2131 589 1529 944 
Q 928 1299 627 1865 
Q 326 2432 329 3081 
Q 333 3731 653 4316 
Q 973 4902 1549 5238 
Q 2125 5574 2777 5574 
Q 3430 5574 3961 5292 
Q 4493 5011 4800 4531 
Q 5107 4051 5107 3520 
Q 5107 2989 4864 2557 
Q 4621 2125 4214 1875 
Q 3808 1626 3453 1626 
Q 3098 1626 3046 1914 
Q 2765 1658 2381 1658 
Q 1933 1658 1625 1987 
Q 1318 2317 1318 2829 
Q 1318 3226 1513 3610 
Q 1709 3994 2029 4170 
Q 2349 4346 2688 4346 
Q 3213 4346 3494 3962 
L 3558 4314 
L 3987 4314 
L 3616 2221 
Q 3603 2163 3603 2118 
Q 3603 1990 3712 1990 
Q 4051 1990 4412 2416 
Q 4774 2842 4774 3456 
Q 4774 4205 4208 4707 
Q 3642 5210 2803 5210 
Q 2195 5210 1696 4925 
Q 1197 4640 928 4144 
Q 659 3648 659 3088 
Q 659 2528 924 2041 
Q 1190 1555 1705 1254 
Q 2221 954 2842 954 
Q 3328 954 3693 1139 
Q 4058 1325 4435 1702 
L 4877 1702 
z
M 2541 2099 
Q 2906 2099 3117 2438 
Q 3328 2778 3328 3258 
Q 3328 3552 3161 3737 
Q 2995 3923 2739 3923 
Q 2374 3923 2118 3619 
Q 1862 3315 1862 2921 
Q 1862 2528 2054 2313 
Q 2246 2099 2541 2099 
z
" transform="scale(0.015625)"/>
      <path id="STHeitiTC-Medium-54" d="M 2669 4531 
L 1645 4531 
L 1645 384 
L 1088 384 
L 1088 4531 
L 58 4531 
L 58 5069 
L 2669 5069 
L 2669 4531 
z
" transform="scale(0.015625)"/>
     </defs>
     <use xlink:href="#STHeitiTC-Medium-40"/>
     <use xlink:href="#STHeitiTC-Medium-31" x="86.699982"/>
     <use xlink:href="#STHeitiTC-Medium-30" x="142.099976"/>
     <use xlink:href="#STHeitiTC-Medium-54" x="197.499969"/>
    </g>
   </g>
   <g id="text_13">
    <!-- 2.86× -->
    <g style="fill: #0f172a" transform="translate(380.870003 262.489759) scale(0.14 -0.14)">
     <defs>
      <path id="STHeitiTC-Medium-38" d="M 2547 2950 
Q 3373 2522 3373 1747 
Q 3373 1114 2928 691 
Q 2483 269 1763 269 
Q 1043 269 608 691 
Q 173 1114 173 1709 
Q 173 2515 1018 2950 
Q 390 3315 390 3942 
Q 390 4435 800 4809 
Q 1210 5184 1782 5184 
Q 2355 5184 2758 4819 
Q 3162 4454 3162 3930 
Q 3162 3322 2547 2950 
z
M 1792 3181 
Q 2118 3181 2364 3411 
Q 2611 3642 2611 3939 
Q 2611 4237 2380 4445 
Q 2150 4653 1785 4653 
Q 1421 4653 1184 4445 
Q 947 4237 947 3939 
Q 947 3642 1203 3411 
Q 1459 3181 1792 3181 
z
M 1773 794 
Q 2234 794 2528 1069 
Q 2822 1344 2822 1728 
Q 2822 2112 2518 2393 
Q 2214 2675 1782 2675 
Q 1350 2675 1036 2384 
Q 723 2093 723 1699 
Q 723 1306 1014 1050 
Q 1306 794 1773 794 
z
" transform="scale(0.015625)"/>
      <path id="STHeitiTC-Medium-36" d="M 1594 3098 
Q 1798 3155 1984 3155 
Q 2515 3155 2912 2732 
Q 3309 2310 3309 1708 
Q 3309 1107 2880 688 
Q 2451 269 1830 269 
Q 1210 269 797 691 
Q 384 1114 384 1722 
Q 384 2016 499 2326 
Q 614 2637 915 3085 
L 2336 5203 
L 2797 4915 
L 1594 3098 
z
M 1843 806 
Q 2221 806 2493 1075 
Q 2765 1344 2765 1728 
Q 2765 2112 2496 2381 
Q 2227 2650 1843 2650 
Q 1459 2650 1190 2381 
Q 922 2112 922 1728 
Q 922 1344 1194 1075 
Q 1466 806 1843 806 
z
" transform="scale(0.015625)"/>
     </defs>
     <use xlink:href="#STHeitiTC-Medium-32"/>
     <use xlink:href="#STHeitiTC-Medium-2e" x="55.399994"/>
     <use xlink:href="#STHeitiTC-Medium-38" x="83.099991"/>
     <use xlink:href="#STHeitiTC-Medium-36" x="138.499985"/>
     <use xlink:href="#STHeitiTC-Medium-d7" x="193.899979"/>
    </g>
    <!-- @8T -->
    <g style="fill: #0f172a" transform="translate(386.618753 277.959321) scale(0.14 -0.14)">
     <use xlink:href="#STHeitiTC-Medium-40"/>
     <use xlink:href="#STHeitiTC-Medium-38" x="86.699982"/>
     <use xlink:href="#STHeitiTC-Medium-54" x="142.099976"/>
    </g>
   </g>
   <g id="text_14">
    <!-- 0.05× -->
    <g style="fill: #0f172a" transform="translate(568.842031 498.737025) scale(0.14 -0.14)">
     <use xlink:href="#STHeitiTC-Medium-30"/>
     <use xlink:href="#STHeitiTC-Medium-2e" x="55.399994"/>
     <use xlink:href="#STHeitiTC-Medium-30" x="83.099991"/>
     <use xlink:href="#STHeitiTC-Medium-35" x="138.499985"/>
     <use xlink:href="#STHeitiTC-Medium-d7" x="193.899979"/>
    </g>
    <!-- @12T -->
    <g style="fill: #0f172a" transform="translate(570.712344 514.206588) scale(0.14 -0.14)">
     <use xlink:href="#STHeitiTC-Medium-40"/>
     <use xlink:href="#STHeitiTC-Medium-31" x="86.699982"/>
     <use xlink:href="#STHeitiTC-Medium-32" x="142.099976"/>
     <use xlink:href="#STHeitiTC-Medium-54" x="197.499969"/>
    </g>
   </g>
   <g id="text_15">
    <!-- 1.98× -->
    <g style="fill: #0f172a" transform="translate(756.814059 336.941566) scale(0.14 -0.14)">
     <defs>
      <path id="STHeitiTC-Medium-39" d="M 1984 2355 
Q 1798 2310 1613 2310 
Q 1043 2310 656 2716 
Q 269 3123 269 3737 
Q 269 4352 697 4768 
Q 1126 5184 1747 5184 
Q 2368 5184 2777 4758 
Q 3187 4333 3187 3738 
Q 3187 3411 3052 3081 
Q 2918 2752 2662 2368 
L 1248 250 
L 787 544 
L 1984 2355 
z
M 1728 2803 
Q 2112 2803 2381 3075 
Q 2650 3347 2650 3724 
Q 2650 4102 2381 4374 
Q 2112 4646 1728 4646 
Q 1344 4646 1075 4377 
Q 806 4109 806 3725 
Q 806 3341 1075 3072 
Q 1344 2803 1728 2803 
z
" transform="scale(0.015625)"/>
     </defs>
     <use xlink:href="#STHeitiTC-Medium-31"/>
     <use xlink:href="#STHeitiTC-Medium-2e" x="55.399994"/>
     <use xlink:href="#STHeitiTC-Medium-39" x="83.099991"/>
     <use xlink:href="#STHeitiTC-Medium-38" x="138.499985"/>
     <use xlink:href="#STHeitiTC-Medium-d7" x="193.899979"/>
    </g>
    <!-- @14T -->
    <g style="fill: #0f172a" transform="translate(758.684372 352.411129) scale(0.14 -0.14)">
     <use xlink:href="#STHeitiTC-Medium-40"/>
     <use xlink:href="#STHeitiTC-Medium-31" x="86.699982"/>
     <use xlink:href="#STHeitiTC-Medium-34" x="142.099976"/>
     <use xlink:href="#STHeitiTC-Medium-54" x="197.499969"/>
    </g>
   </g>
   <g id="text_16">
    <!-- 3.69× -->
    <g style="fill: #0f172a" transform="translate(944.786087 191.658403) scale(0.14 -0.14)">
     <use xlink:href="#STHeitiTC-Medium-33"/>
     <use xlink:href="#STHeitiTC-Medium-2e" x="55.399994"/>
     <use xlink:href="#STHeitiTC-Medium-36" x="83.099991"/>
     <use xlink:href="#STHeitiTC-Medium-39" x="138.499985"/>
     <use xlink:href="#STHeitiTC-Medium-d7" x="193.899979"/>
    </g>
    <!-- @14T -->
    <g style="fill: #0f172a" transform="translate(946.6564 207.127965) scale(0.14 -0.14)">
     <use xlink:href="#STHeitiTC-Medium-40"/>
     <use xlink:href="#STHeitiTC-Medium-31" x="86.699982"/>
     <use xlink:href="#STHeitiTC-Medium-34" x="142.099976"/>
     <use xlink:href="#STHeitiTC-Medium-54" x="197.499969"/>
    </g>
   </g>
   <g id="text_17">
    <!-- Efficiency: best observed speedup -->
    <g transform="translate(421.018438 115.6) scale(0.2 -0.2)">
     <defs>
      <path id="STHeitiTC-Medium-45" d="M 3245 4525 
L 1069 4525 
L 1069 3181 
L 3226 3181 
L 3226 2643 
L 1069 2643 
L 1069 928 
L 3226 928 
L 3226 384 
L 518 384 
L 518 5069 
L 3245 5069 
L 3245 4525 
z
" transform="scale(0.015625)"/>
      <path id="STHeitiTC-Medium-66" d="M 1933 4557 
Q 1626 4685 1453 4685 
Q 1280 4685 1229 4573 
Q 1178 4461 1178 4198 
L 1178 3872 
L 1888 3872 
L 1888 3411 
L 1178 3411 
L 1178 384 
L 646 384 
L 646 3411 
L 205 3411 
L 205 3872 
L 646 3872 
L 646 4269 
Q 646 4742 822 4963 
Q 998 5184 1376 5184 
Q 1581 5184 1933 5088 
L 1933 4557 
z
" transform="scale(0.015625)"/>
      <path id="STHeitiTC-Medium-79" d="M 3418 3872 
L 1350 -851 
L 800 -851 
L 1472 685 
L 58 3872 
L 608 3872 
L 1754 1318 
L 2861 3872 
L 3418 3872 
z
" transform="scale(0.015625)"/>
      <path id="STHeitiTC-Medium-3a" d="M 966 4282 
Q 1146 4282 1270 4157 
Q 1395 4032 1395 3849 
Q 1395 3667 1273 3542 
Q 1152 3418 969 3418 
Q 787 3418 662 3542 
Q 538 3667 538 3846 
Q 538 4026 666 4154 
Q 794 4282 966 4282 
z
M 966 1478 
Q 1146 1478 1270 1353 
Q 1395 1229 1395 1046 
Q 1395 864 1270 739 
Q 1146 614 970 614 
Q 794 614 666 742 
Q 538 870 538 1049 
Q 538 1229 666 1353 
Q 794 1478 966 1478 
z
" transform="scale(0.015625)"/>
      <path id="STHeitiTC-Medium-62" d="M 992 3360 
Q 1536 3962 2297 3962 
Q 3059 3962 3580 3421 
Q 4102 2880 4102 2118 
Q 4102 1357 3571 813 
Q 3040 269 2288 269 
Q 1536 269 992 922 
L 992 384 
L 474 384 
L 474 5184 
L 992 5184 
L 992 3360 
z
M 2266 781 
Q 2810 781 3190 1184 
Q 3571 1587 3571 2128 
Q 3571 2669 3200 3072 
Q 2829 3475 2272 3475 
Q 1715 3475 1340 3097 
Q 966 2720 966 2147 
Q 966 1574 1344 1177 
Q 1722 781 2266 781 
z
" transform="scale(0.015625)"/>
      <path id="STHeitiTC-Medium-73" d="M 2259 3462 
L 1920 3110 
Q 1542 3462 1229 3462 
Q 1030 3462 896 3337 
Q 762 3213 762 3030 
Q 762 2848 912 2710 
Q 1062 2573 1446 2371 
Q 1830 2170 2038 1926 
Q 2246 1683 2246 1331 
Q 2246 883 1936 576 
Q 1626 269 1171 269 
Q 538 269 115 806 
L 448 1178 
Q 794 774 1152 774 
Q 1395 774 1568 934 
Q 1741 1094 1741 1308 
Q 1741 1523 1584 1667 
Q 1427 1811 1046 2003 
Q 666 2195 470 2428 
Q 275 2662 275 3043 
Q 275 3424 553 3693 
Q 832 3962 1289 3962 
Q 1747 3962 2259 3462 
z
" transform="scale(0.015625)"/>
     </defs>
     <use xlink:href="#STHeitiTC-Medium-45"/>
     <use xlink:href="#STHeitiTC-Medium-66" x="53.599991"/>
     <use xlink:href="#STHeitiTC-Medium-66" x="84.999985"/>
     <use xlink:href="#STHeitiTC-Medium-69" x="116.399979"/>
     <use xlink:href="#STHeitiTC-Medium-63" x="136.399963"/>
     <use xlink:href="#STHeitiTC-Medium-69" x="201.09996"/>
     <use xlink:href="#STHeitiTC-Medium-65" x="221.099945"/>
     <use xlink:href="#STHeitiTC-Medium-6e" x="286.09993"/>
     <use xlink:href="#STHeitiTC-Medium-63" x="347.099915"/>
     <use xlink:href="#STHeitiTC-Medium-79" x="411.799911"/>
     <use xlink:href="#STHeitiTC-Medium-3a" x="465.399902"/>
     <use xlink:href="#STHeitiTC-Medium-20" x="493.099899"/>
     <use xlink:href="#STHeitiTC-Medium-62" x="518.099884"/>
     <use xlink:href="#STHeitiTC-Medium-65" x="586.299866"/>
     <use xlink:href="#STHeitiTC-Medium-73" x="651.29985"/>
     <use xlink:href="#STHeitiTC-Medium-74" x="690.099838"/>
     <use xlink:href="#STHeitiTC-Medium-20" x="723.999832"/>
     <use xlink:href="#STHeitiTC-Medium-6f" x="748.999817"/>
     <use xlink:href="#STHeitiTC-Medium-62" x="814.499802"/>
     <use xlink:href="#STHeitiTC-Medium-73" x="882.699783"/>
     <use xlink:href="#STHeitiTC-Medium-65" x="921.499771"/>
     <use xlink:href="#STHeitiTC-Medium-72" x="986.499756"/>
     <use xlink:href="#STHeitiTC-Medium-76" x="1016.599747"/>
     <use xlink:href="#STHeitiTC-Medium-65" x="1071.999741"/>
     <use xlink:href="#STHeitiTC-Medium-64" x="1136.999725"/>
     <use xlink:href="#STHeitiTC-Medium-20" x="1205.49971"/>
     <use xlink:href="#STHeitiTC-Medium-73" x="1230.499695"/>
     <use xlink:href="#STHeitiTC-Medium-70" x="1269.299683"/>
     <use xlink:href="#STHeitiTC-Medium-65" x="1337.499664"/>
     <use xlink:href="#STHeitiTC-Medium-65" x="1402.499649"/>
     <use xlink:href="#STHeitiTC-Medium-64" x="1467.499634"/>
     <use xlink:href="#STHeitiTC-Medium-75" x="1535.999619"/>
     <use xlink:href="#STHeitiTC-Medium-70" x="1596.799606"/>
    </g>
   </g>
  </g>
  <g id="text_18">
   <!-- Efficiency / 效率简洁版 -->
   <g style="fill: #0f172a" transform="translate(63.36 38.88) scale(0.3 -0.3)">
    <defs>
     <path id="STHeitiTC-Medium-2f" d="M 2675 5504 
L 736 77 
L 160 77 
L 2099 5504 
L 2675 5504 
z
" transform="scale(0.015625)"/>
     <path id="STHeitiTC-Medium-6548" d="M 1741 3187 
Q 1869 3155 1722 3066 
Q 1690 3046 1626 2982 
Q 1562 2918 1446 2784 
Q 1331 2650 1148 2426 
Q 966 2202 698 1862 
Q 506 2074 269 2234 
Q 621 2502 880 2822 
Q 1139 3142 1267 3469 
Q 1389 3379 1529 3292 
Q 1670 3206 1741 3187 
z
M 3002 2214 
Q 2912 2336 2787 2477 
Q 2662 2618 2528 2752 
Q 2394 2886 2266 2995 
Q 2138 3104 2042 3162 
L 2451 3469 
Q 2662 3245 2896 3033 
Q 3130 2822 3386 2618 
L 3002 2214 
z
M 3296 3629 
Q 2957 3661 2605 3670 
Q 2253 3680 1869 3680 
Q 1376 3680 1033 3661 
Q 691 3642 454 3622 
L 454 4218 
Q 691 4186 1017 4170 
Q 1344 4154 1882 4154 
Q 2291 4154 2640 4170 
Q 2989 4186 3296 4218 
L 3296 3629 
z
M 1824 4320 
Q 1792 4480 1728 4672 
Q 1664 4864 1574 5088 
L 2176 5242 
Q 2234 5075 2317 4860 
Q 2400 4646 2477 4480 
L 1824 4320 
z
M 1984 1523 
Q 2093 1734 2173 1964 
Q 2253 2195 2291 2387 
Q 2426 2291 2573 2195 
Q 2720 2099 2778 2086 
Q 2829 2074 2822 2045 
Q 2816 2016 2758 1984 
Q 2746 1978 2723 1946 
Q 2701 1914 2662 1843 
Q 2624 1773 2563 1657 
Q 2502 1542 2419 1370 
Q 2400 1331 2377 1289 
Q 2355 1248 2330 1203 
Q 2560 979 2755 774 
Q 2950 570 3078 422 
L 2656 58 
Q 2534 243 2380 428 
Q 2227 614 2061 800 
Q 1459 -45 768 -550 
Q 698 -429 573 -320 
Q 448 -211 288 -141 
Q 474 -51 646 57 
Q 819 166 992 316 
Q 1165 467 1347 665 
Q 1530 864 1728 1133 
Q 1498 1357 1280 1533 
Q 1062 1709 896 1805 
L 1254 2150 
Q 1421 2022 1609 1862 
Q 1798 1702 1984 1523 
z
M 4070 3533 
Q 3974 3328 3888 3158 
Q 3802 2989 3693 2810 
Q 3571 2880 3452 2925 
Q 3334 2970 3206 3002 
Q 3571 3520 3795 4086 
Q 4019 4653 4102 5210 
Q 4250 5158 4432 5110 
Q 4614 5062 4736 5050 
Q 4890 5030 4736 4922 
Q 4704 4902 4675 4864 
Q 4646 4826 4598 4733 
Q 4550 4640 4476 4470 
Q 4403 4301 4282 4026 
Q 4698 4026 4986 4032 
Q 5274 4038 5472 4048 
Q 5670 4058 5792 4067 
Q 5914 4077 6003 4096 
L 6003 3494 
Q 5869 3514 5728 3520 
Q 5587 3526 5414 3533 
Q 5382 2976 5334 2560 
Q 5286 2144 5209 1824 
Q 5133 1504 5030 1254 
Q 4928 1005 4787 787 
Q 5094 499 5456 304 
Q 5818 109 6131 32 
Q 5997 -96 5869 -285 
Q 5741 -474 5690 -621 
Q 5587 -570 5436 -464 
Q 5286 -358 5116 -220 
Q 4947 -83 4784 70 
Q 4621 224 4486 371 
Q 4198 51 3782 -246 
Q 3366 -544 2899 -749 
Q 2822 -634 2716 -518 
Q 2611 -403 2483 -307 
Q 2963 -154 3401 121 
Q 3840 397 4186 781 
Q 3955 1178 3804 1645 
Q 3654 2112 3584 2528 
L 4077 2682 
Q 4083 2547 4121 2352 
Q 4160 2157 4214 1945 
Q 4269 1734 4336 1532 
Q 4403 1331 4480 1178 
Q 4666 1542 4762 2112 
Q 4858 2682 4883 3533 
L 4070 3533 
z
" transform="scale(0.015625)"/>
     <path id="STHeitiTC-Medium-7387" d="M 2138 3002 
Q 2221 3117 2297 3225 
Q 2374 3334 2451 3456 
Q 2528 3578 2611 3725 
Q 2694 3872 2790 4064 
Q 2918 3981 3030 3923 
Q 3142 3866 3226 3840 
Q 3341 3808 3331 3760 
Q 3322 3712 3194 3693 
Q 3130 3680 3046 3606 
Q 2963 3533 2886 3430 
Q 2810 3328 2717 3222 
Q 2624 3117 2534 3027 
L 3322 3078 
Q 3469 3245 3597 3411 
Q 3725 3578 3808 3706 
Q 3923 3584 4044 3501 
Q 4166 3418 4256 3379 
Q 4346 3341 4336 3289 
Q 4326 3238 4198 3226 
Q 4166 3226 4086 3178 
Q 4006 3130 3900 3056 
Q 3795 2982 3680 2883 
Q 3565 2784 3462 2682 
Q 3283 2496 3062 2297 
Q 2842 2099 2611 1914 
L 3757 1971 
Q 3686 2080 3622 2179 
Q 3558 2278 3501 2349 
L 3885 2586 
Q 4032 2342 4198 2076 
Q 4365 1811 4544 1536 
L 4090 1325 
Q 4058 1395 4022 1468 
Q 3987 1542 3949 1619 
L 3405 1587 
L 3405 954 
Q 4179 954 4848 966 
Q 5517 979 5939 1011 
L 5939 454 
Q 5728 467 5453 480 
Q 5178 493 4851 499 
Q 4525 506 4157 509 
Q 3789 512 3405 512 
Q 3405 378 3411 208 
Q 3418 38 3427 -134 
Q 3437 -307 3446 -470 
Q 3456 -634 3469 -755 
L 2835 -755 
Q 2848 -634 2857 -474 
Q 2867 -314 2876 -141 
Q 2886 32 2889 205 
Q 2893 378 2893 512 
Q 2150 512 1507 496 
Q 864 480 454 454 
L 454 1011 
Q 659 998 960 988 
Q 1261 979 1597 969 
Q 1933 960 2272 957 
Q 2611 954 2899 954 
L 2899 1549 
Q 2630 1530 2400 1498 
Q 2170 1466 2016 1427 
Q 1978 1664 1862 1875 
L 2138 1888 
Q 2285 2022 2486 2217 
Q 2688 2413 2995 2726 
Q 2739 2694 2579 2672 
Q 2419 2650 2320 2634 
Q 2221 2618 2163 2605 
Q 2106 2592 2054 2573 
Q 2042 2662 2010 2787 
Q 1978 2912 1939 2989 
L 2138 3002 
z
M 3014 4557 
Q 2970 4704 2922 4835 
Q 2874 4966 2816 5088 
L 3475 5190 
Q 3488 5030 3507 4873 
Q 3526 4717 3565 4557 
Q 4256 4557 4797 4573 
Q 5338 4589 5786 4621 
L 5786 4051 
Q 5536 4070 5273 4080 
Q 5011 4090 4707 4099 
Q 4403 4109 4035 4112 
Q 3667 4115 3206 4115 
Q 2746 4115 2384 4112 
Q 2022 4109 1718 4099 
Q 1414 4090 1152 4080 
Q 890 4070 627 4051 
L 627 4621 
Q 877 4602 1123 4592 
Q 1370 4582 1651 4572 
Q 1933 4563 2265 4560 
Q 2598 4557 3014 4557 
z
M 5658 3411 
Q 5715 3379 5696 3334 
Q 5677 3290 5574 3296 
Q 5517 3302 5443 3280 
Q 5370 3258 5270 3197 
Q 5171 3136 5033 3024 
Q 4896 2912 4704 2739 
Q 4544 2938 4333 3053 
Q 4582 3219 4822 3433 
Q 5062 3648 5197 3834 
Q 5299 3699 5417 3590 
Q 5536 3482 5658 3411 
z
M 1536 2784 
Q 1350 2995 1187 3145 
Q 1024 3296 826 3443 
L 1171 3795 
Q 1363 3603 1523 3468 
Q 1683 3334 1907 3174 
L 1536 2784 
z
M 5363 1421 
Q 5158 1651 4905 1859 
Q 4653 2067 4410 2227 
L 4774 2611 
Q 4986 2426 5248 2230 
Q 5510 2035 5760 1869 
L 5363 1421 
z
M 1952 2106 
Q 1901 2080 1827 2029 
Q 1754 1978 1642 1885 
Q 1530 1792 1366 1645 
Q 1203 1498 973 1286 
Q 838 1581 653 1824 
Q 800 1882 928 1952 
Q 1056 2022 1181 2112 
Q 1306 2202 1443 2320 
Q 1581 2438 1747 2598 
Q 1766 2464 1814 2349 
Q 1862 2234 1952 2106 
z
" transform="scale(0.015625)"/>
     <path id="STHeitiTC-Medium-7b80" d="M 3949 941 
L 2643 941 
L 2643 435 
L 3949 435 
L 3949 941 
z
M 4410 13 
Q 4326 19 4240 25 
Q 4154 32 4032 38 
Q 3910 45 3734 45 
Q 3558 45 3302 45 
Q 3046 45 2873 45 
Q 2701 45 2576 38 
Q 2451 32 2361 25 
Q 2272 19 2189 13 
Q 2202 77 2208 214 
Q 2214 352 2214 480 
L 2214 1760 
Q 2214 1888 2208 2025 
Q 2202 2163 2189 2221 
Q 2272 2208 2361 2205 
Q 2451 2202 2576 2195 
Q 2701 2189 2873 2189 
Q 3046 2189 3302 2189 
Q 3558 2189 3734 2189 
Q 3910 2189 4032 2195 
Q 4154 2202 4240 2205 
Q 4326 2208 4410 2221 
Q 4397 2163 4390 2025 
Q 4384 1888 4384 1760 
L 4384 480 
Q 4384 352 4390 214 
Q 4397 77 4410 13 
z
M 3949 1805 
L 2643 1805 
L 2643 1306 
L 3949 1306 
L 3949 1805 
z
M 1491 2272 
Q 1472 2240 1462 2198 
Q 1453 2157 1453 2080 
L 1453 -730 
L 890 -730 
Q 922 -448 938 -214 
Q 954 19 954 205 
L 954 1709 
Q 954 1946 947 2138 
Q 941 2330 928 2509 
Q 1062 2477 1193 2461 
Q 1325 2445 1402 2451 
Q 1530 2464 1549 2425 
Q 1568 2387 1491 2272 
z
M 5632 3206 
Q 5619 3142 5616 3078 
Q 5613 3014 5609 2931 
Q 5606 2848 5606 2733 
Q 5606 2618 5606 2458 
L 5606 -90 
Q 5606 -275 5584 -390 
Q 5562 -506 5466 -573 
Q 5370 -640 5178 -678 
Q 4986 -717 4653 -742 
Q 4621 -582 4557 -457 
Q 4493 -333 4365 -160 
Q 4627 -179 4774 -179 
Q 4922 -179 4995 -144 
Q 5069 -109 5085 -38 
Q 5101 32 5101 147 
L 5101 2752 
L 3456 2752 
Q 3245 2752 3037 2736 
Q 2829 2720 2637 2694 
L 2637 3206 
Q 3034 3181 3379 3174 
Q 3725 3168 4134 3168 
Q 4544 3168 4915 3174 
Q 5286 3181 5632 3206 
z
M 1856 2374 
Q 1773 2579 1673 2761 
Q 1574 2944 1421 3149 
L 1843 3373 
Q 1984 3168 2093 2985 
Q 2202 2803 2298 2586 
L 1856 2374 
z
M 1568 4109 
Q 1382 3846 1203 3625 
Q 1024 3405 896 3270 
Q 819 3373 697 3449 
Q 576 3526 416 3558 
Q 595 3680 768 3865 
Q 941 4051 1094 4268 
Q 1248 4486 1369 4720 
Q 1491 4954 1562 5165 
Q 1709 5094 1862 5043 
Q 2016 4992 2150 4960 
Q 2221 4947 2224 4924 
Q 2227 4902 2157 4870 
Q 2106 4845 2042 4765 
Q 1978 4685 1830 4480 
L 2400 4480 
Q 2528 4480 2662 4480 
Q 2797 4480 2918 4486 
Q 3040 4493 3136 4502 
Q 3232 4512 3290 4525 
L 3290 4064 
Q 3181 4096 2982 4102 
Q 2784 4109 2451 4109 
Q 2522 3930 2586 3763 
Q 2650 3597 2701 3482 
L 2240 3347 
Q 2221 3488 2166 3702 
Q 2112 3917 2029 4109 
L 1568 4109 
z
M 4186 4141 
Q 4038 3853 3916 3657 
Q 3795 3462 3686 3315 
Q 3565 3411 3456 3449 
Q 3347 3488 3187 3501 
Q 3366 3680 3523 3926 
Q 3680 4173 3798 4422 
Q 3917 4672 3984 4893 
Q 4051 5114 4064 5242 
Q 4198 5171 4358 5126 
Q 4518 5082 4653 5056 
Q 4800 5024 4659 4960 
Q 4608 4934 4384 4518 
L 4890 4518 
Q 5165 4518 5347 4521 
Q 5530 4525 5651 4528 
Q 5773 4531 5846 4537 
Q 5920 4544 5978 4557 
L 5978 4102 
Q 5920 4109 5849 4118 
Q 5779 4128 5657 4131 
Q 5536 4134 5357 4137 
Q 5178 4141 4909 4141 
Q 5011 3898 5056 3757 
Q 5101 3616 5133 3488 
L 4685 3411 
Q 4672 3552 4621 3753 
Q 4570 3955 4493 4141 
L 4186 4141 
z
" transform="scale(0.015625)"/>
     <path id="STHeitiTC-Medium-6d01" d="M 1792 1338 
Q 1754 1254 1715 1171 
Q 1677 1088 1635 985 
Q 1594 883 1546 752 
Q 1498 621 1434 448 
Q 1331 173 1235 -99 
Q 1139 -371 1043 -640 
Q 870 -512 729 -435 
Q 589 -358 422 -288 
Q 557 -70 704 195 
Q 851 461 979 762 
Q 1094 1005 1177 1225 
Q 1261 1446 1325 1709 
Q 1395 1594 1523 1494 
Q 1651 1395 1792 1338 
z
M 1306 2093 
Q 1216 2189 1104 2294 
Q 992 2400 870 2502 
Q 749 2605 624 2697 
Q 499 2790 390 2861 
L 755 3290 
Q 858 3219 986 3129 
Q 1114 3040 1242 2944 
Q 1370 2848 1488 2752 
Q 1606 2656 1696 2579 
L 1306 2093 
z
M 1549 3699 
Q 1466 3795 1360 3904 
Q 1254 4013 1139 4115 
Q 1024 4218 909 4314 
Q 794 4410 691 4486 
L 1075 4915 
Q 1299 4742 1532 4544 
Q 1766 4346 1952 4179 
L 1549 3699 
z
M 2970 -32 
L 2970 -634 
L 2374 -634 
Q 2394 -518 2403 -384 
Q 2413 -250 2422 -112 
Q 2432 26 2435 150 
Q 2438 275 2438 371 
L 2438 1158 
Q 2438 1318 2428 1523 
Q 2419 1728 2394 1856 
Q 2624 1830 3017 1820 
Q 3411 1811 4064 1811 
Q 4384 1811 4621 1814 
Q 4858 1818 5034 1821 
Q 5210 1824 5341 1833 
Q 5472 1843 5581 1856 
Q 5555 1683 5545 1510 
Q 5536 1338 5536 1158 
L 5536 474 
Q 5536 269 5552 -3 
Q 5568 -275 5587 -518 
L 5005 -518 
L 5005 -32 
L 2970 -32 
z
M 5005 397 
L 5005 1370 
L 2970 1370 
L 2970 397 
L 5005 397 
z
M 4256 2925 
Q 4710 2931 5107 2944 
Q 5504 2957 5747 2989 
L 5747 2432 
Q 5606 2445 5411 2457 
Q 5216 2470 4982 2476 
Q 4749 2483 4489 2486 
Q 4230 2490 3968 2490 
Q 3430 2490 2963 2477 
Q 2496 2464 2208 2432 
L 2208 2989 
Q 2464 2957 2864 2944 
Q 3264 2931 3725 2925 
L 3725 3744 
Q 3488 3744 3254 3737 
Q 3021 3731 2813 3724 
Q 2605 3718 2429 3708 
Q 2253 3699 2131 3686 
L 2131 4256 
Q 2394 4224 2819 4211 
Q 3245 4198 3725 4192 
Q 3718 4550 3708 4761 
Q 3699 4973 3674 5094 
Q 3744 5075 3833 5065 
Q 3923 5056 4009 5049 
Q 4096 5043 4166 5040 
Q 4237 5037 4269 5043 
Q 4378 5056 4384 5017 
Q 4390 4979 4301 4928 
Q 4275 4915 4265 4886 
Q 4256 4858 4256 4787 
L 4256 4192 
Q 4512 4192 4768 4198 
Q 5024 4205 5254 4211 
Q 5485 4218 5680 4230 
Q 5875 4243 6010 4256 
L 6010 3686 
Q 5875 3699 5680 3708 
Q 5485 3718 5254 3724 
Q 5024 3731 4768 3737 
Q 4512 3744 4256 3744 
L 4256 2925 
z
" transform="scale(0.015625)"/>
     <path id="STHeitiTC-Medium-7248" d="M 1126 2816 
Q 1126 2611 1126 2432 
Q 1126 2253 1120 2086 
L 1850 2086 
Q 1997 2086 2102 2092 
Q 2208 2099 2317 2112 
Q 2304 2048 2297 1936 
Q 2291 1824 2291 1696 
L 2291 774 
Q 2291 544 2297 381 
Q 2304 218 2317 26 
L 1786 26 
Q 1811 218 1817 378 
Q 1824 538 1824 774 
L 1824 1715 
L 1107 1715 
Q 1094 1299 1062 985 
Q 1030 672 979 403 
Q 928 134 851 -112 
Q 774 -358 666 -646 
Q 506 -448 262 -294 
Q 346 -70 406 122 
Q 467 314 508 515 
Q 550 717 579 947 
Q 608 1178 624 1478 
Q 640 1779 646 2169 
Q 653 2560 659 3078 
Q 659 3366 659 3596 
Q 659 3827 656 4016 
Q 653 4205 646 4361 
Q 640 4518 634 4666 
Q 781 4640 902 4633 
Q 1024 4627 1139 4640 
Q 1216 4646 1225 4624 
Q 1235 4602 1197 4550 
Q 1178 4525 1165 4441 
Q 1152 4358 1142 4204 
Q 1133 4051 1129 3814 
Q 1126 3578 1126 3245 
L 1734 3245 
L 1734 4314 
Q 1734 4582 1731 4752 
Q 1728 4922 1715 5050 
Q 2022 4992 2278 4992 
Q 2355 4992 2368 4953 
Q 2381 4915 2323 4883 
Q 2202 4813 2202 4659 
L 2202 3245 
Q 2368 3245 2480 3254 
Q 2592 3264 2682 3277 
L 2682 2784 
Q 2611 2797 2444 2806 
Q 2278 2816 2054 2816 
L 1126 2816 
z
M 4032 2989 
Q 4051 2739 4096 2467 
Q 4141 2195 4211 1929 
Q 4282 1664 4368 1424 
Q 4454 1184 4557 1011 
Q 4928 1664 5088 2989 
L 4032 2989 
z
M 3386 2989 
Q 3373 2221 3337 1699 
Q 3302 1178 3216 787 
Q 3130 397 2979 73 
Q 2829 -250 2592 -621 
Q 2483 -531 2384 -483 
Q 2285 -435 2099 -390 
Q 2336 -115 2486 176 
Q 2637 467 2723 835 
Q 2810 1203 2848 1683 
Q 2886 2163 2906 2816 
Q 2925 3514 2909 3971 
Q 2893 4429 2861 4634 
Q 3270 4627 3667 4652 
Q 4064 4678 4409 4723 
Q 4755 4768 5040 4832 
Q 5325 4896 5517 4966 
Q 5536 4890 5571 4806 
Q 5606 4723 5644 4646 
Q 5683 4570 5724 4509 
Q 5766 4448 5798 4416 
Q 5869 4346 5856 4317 
Q 5843 4288 5754 4307 
Q 5645 4333 5405 4326 
Q 5165 4320 4941 4288 
Q 4762 4262 4547 4243 
Q 4333 4224 4121 4211 
Q 3910 4198 3718 4192 
Q 3526 4186 3386 4186 
L 3386 3398 
L 4666 3398 
Q 5030 3398 5264 3411 
Q 5498 3424 5677 3456 
Q 5594 2899 5507 2464 
Q 5421 2029 5321 1689 
Q 5222 1350 5110 1097 
Q 4998 845 4877 653 
Q 5197 358 5488 208 
Q 5779 58 6131 -6 
Q 6003 -154 5929 -298 
Q 5856 -442 5811 -608 
Q 5606 -506 5436 -410 
Q 5267 -314 5123 -208 
Q 4979 -102 4848 13 
Q 4717 128 4582 275 
Q 4346 19 4080 -208 
Q 3814 -435 3526 -640 
Q 3418 -435 3110 -237 
Q 3437 -83 3715 118 
Q 3994 320 4275 634 
Q 4160 845 4048 1110 
Q 3936 1376 3846 1680 
Q 3757 1984 3683 2317 
Q 3610 2650 3571 2989 
L 3386 2989 
z
" transform="scale(0.015625)"/>
    </defs>
    <use xlink:href="#STHeitiTC-Medium-45"/>
    <use xlink:href="#STHeitiTC-Medium-66" x="53.599991"/>
    <use xlink:href="#STHeitiTC-Medium-66" x="84.999985"/>
    <use xlink:href="#STHeitiTC-Medium-69" x="116.399979"/>
    <use xlink:href="#STHeitiTC-Medium-63" x="136.399963"/>
    <use xlink:href="#STHeitiTC-Medium-69" x="201.09996"/>
    <use xlink:href="#STHeitiTC-Medium-65" x="221.099945"/>
    <use xlink:href="#STHeitiTC-Medium-6e" x="286.09993"/>
    <use xlink:href="#STHeitiTC-Medium-63" x="347.099915"/>
    <use xlink:href="#STHeitiTC-Medium-79" x="411.799911"/>
    <use xlink:href="#STHeitiTC-Medium-20" x="465.399902"/>
    <use xlink:href="#STHeitiTC-Medium-2f" x="490.399887"/>
    <use xlink:href="#STHeitiTC-Medium-20" x="534.099884"/>
    <use xlink:href="#STHeitiTC-Medium-6548" x="559.099869"/>
    <use xlink:href="#STHeitiTC-Medium-7387" x="659.099854"/>
    <use xlink:href="#STHeitiTC-Medium-7b80" x="759.099838"/>
    <use xlink:href="#STHeitiTC-Medium-6d01" x="859.099823"/>
    <use xlink:href="#STHeitiTC-Medium-7248" x="959.099808"/>
   </g>
  </g>
  <g id="text_19">
   <!-- Five CPU parallel algorithms · actual WindTurbineHub simplified benchmark -->
   <g style="fill: #475569" transform="translate(63.36 66.096) scale(0.15 -0.15)">
    <defs>
     <path id="STHeitiTC-Medium-46" d="M 2906 2637 
L 1062 2637 
L 1062 384 
L 512 384 
L 512 5069 
L 2906 5069 
L 2906 4525 
L 1062 4525 
L 1062 3181 
L 2906 3181 
L 2906 2637 
z
" transform="scale(0.015625)"/>
     <path id="STHeitiTC-Medium-55" d="M 3661 2253 
Q 3661 1542 3517 1161 
Q 3373 781 3005 525 
Q 2637 269 2144 269 
Q 1754 269 1440 393 
Q 1126 518 918 745 
Q 710 973 620 1251 
Q 531 1530 531 2253 
L 531 5069 
L 1082 5069 
L 1082 2253 
Q 1082 1798 1107 1596 
Q 1133 1395 1254 1206 
Q 1376 1018 1603 906 
Q 1830 794 2118 794 
Q 2464 794 2717 995 
Q 2970 1197 3043 1462 
Q 3117 1728 3117 2253 
L 3117 5069 
L 3661 5069 
L 3661 2253 
z
" transform="scale(0.015625)"/>
     <path id="STHeitiTC-Medium-b7" d="M 1734 1741 
L 928 1741 
L 928 2560 
L 1734 2560 
L 1734 1741 
z
" transform="scale(0.015625)"/>
     <path id="STHeitiTC-Medium-57" d="M 5907 5069 
L 4563 269 
L 4403 269 
L 3072 3770 
L 1715 269 
L 1562 269 
L 243 5069 
L 813 5069 
L 1715 1754 
L 2995 5069 
L 3149 5069 
L 4416 1747 
L 5338 5069 
L 5907 5069 
z
" transform="scale(0.015625)"/>
     <path id="STHeitiTC-Medium-48" d="M 3859 384 
L 3309 384 
L 3309 2605 
L 1062 2605 
L 1062 384 
L 506 384 
L 506 5069 
L 1062 5069 
L 1062 3142 
L 3309 3142 
L 3309 5069 
L 3859 5069 
L 3859 384 
z
" transform="scale(0.015625)"/>
     <path id="STHeitiTC-Medium-6b" d="M 3181 384 
L 2419 384 
L 781 1856 
L 781 384 
L 250 384 
L 250 5184 
L 781 5184 
L 781 2554 
L 2285 3866 
L 3072 3872 
L 1152 2208 
L 3181 384 
z
" transform="scale(0.015625)"/>
    </defs>
    <use xlink:href="#STHeitiTC-Medium-46"/>
    <use xlink:href="#STHeitiTC-Medium-69" x="48.499985"/>
    <use xlink:href="#STHeitiTC-Medium-76" x="68.499969"/>
    <use xlink:href="#STHeitiTC-Medium-65" x="123.899963"/>
    <use xlink:href="#STHeitiTC-Medium-20" x="188.899948"/>
    <use xlink:href="#STHeitiTC-Medium-43" x="213.899933"/>
    <use xlink:href="#STHeitiTC-Medium-50" x="295.199921"/>
    <use xlink:href="#STHeitiTC-Medium-55" x="354.399918"/>
    <use xlink:href="#STHeitiTC-Medium-20" x="419.899902"/>
    <use xlink:href="#STHeitiTC-Medium-70" x="444.899887"/>
    <use xlink:href="#STHeitiTC-Medium-61" x="513.099869"/>
    <use xlink:href="#STHeitiTC-Medium-72" x="581.399857"/>
    <use xlink:href="#STHeitiTC-Medium-61" x="611.499847"/>
    <use xlink:href="#STHeitiTC-Medium-6c" x="679.799835"/>
    <use xlink:href="#STHeitiTC-Medium-6c" x="699.79982"/>
    <use xlink:href="#STHeitiTC-Medium-65" x="719.799805"/>
    <use xlink:href="#STHeitiTC-Medium-6c" x="784.799789"/>
    <use xlink:href="#STHeitiTC-Medium-20" x="804.799774"/>
    <use xlink:href="#STHeitiTC-Medium-61" x="829.799759"/>
    <use xlink:href="#STHeitiTC-Medium-6c" x="898.099747"/>
    <use xlink:href="#STHeitiTC-Medium-67" x="918.099731"/>
    <use xlink:href="#STHeitiTC-Medium-6f" x="985.399719"/>
    <use xlink:href="#STHeitiTC-Medium-72" x="1050.899704"/>
    <use xlink:href="#STHeitiTC-Medium-69" x="1080.999695"/>
    <use xlink:href="#STHeitiTC-Medium-74" x="1100.99968"/>
    <use xlink:href="#STHeitiTC-Medium-68" x="1134.899673"/>
    <use xlink:href="#STHeitiTC-Medium-6d" x="1195.899658"/>
    <use xlink:href="#STHeitiTC-Medium-73" x="1289.699646"/>
    <use xlink:href="#STHeitiTC-Medium-20" x="1328.499634"/>
    <use xlink:href="#STHeitiTC-Medium-b7" x="1353.499619"/>
    <use xlink:href="#STHeitiTC-Medium-20" x="1453.499603"/>
    <use xlink:href="#STHeitiTC-Medium-61" x="1478.499588"/>
    <use xlink:href="#STHeitiTC-Medium-63" x="1546.799576"/>
    <use xlink:href="#STHeitiTC-Medium-74" x="1611.499573"/>
    <use xlink:href="#STHeitiTC-Medium-75" x="1645.399567"/>
    <use xlink:href="#STHeitiTC-Medium-61" x="1706.199554"/>
    <use xlink:href="#STHeitiTC-Medium-6c" x="1774.499542"/>
    <use xlink:href="#STHeitiTC-Medium-20" x="1794.499527"/>
    <use xlink:href="#STHeitiTC-Medium-57" x="1819.499512"/>
    <use xlink:href="#STHeitiTC-Medium-69" x="1915.499496"/>
    <use xlink:href="#STHeitiTC-Medium-6e" x="1935.499481"/>
    <use xlink:href="#STHeitiTC-Medium-64" x="1996.499466"/>
    <use xlink:href="#STHeitiTC-Medium-54" x="2064.999451"/>
    <use xlink:href="#STHeitiTC-Medium-75" x="2107.599442"/>
    <use xlink:href="#STHeitiTC-Medium-72" x="2168.399429"/>
    <use xlink:href="#STHeitiTC-Medium-62" x="2198.49942"/>
    <use xlink:href="#STHeitiTC-Medium-69" x="2266.699402"/>
    <use xlink:href="#STHeitiTC-Medium-6e" x="2286.699387"/>
    <use xlink:href="#STHeitiTC-Medium-65" x="2347.699371"/>
    <use xlink:href="#STHeitiTC-Medium-48" x="2412.699356"/>
    <use xlink:href="#STHeitiTC-Medium-75" x="2480.999344"/>
    <use xlink:href="#STHeitiTC-Medium-62" x="2541.799332"/>
    <use xlink:href="#STHeitiTC-Medium-20" x="2609.999313"/>
    <use xlink:href="#STHeitiTC-Medium-73" x="2634.999298"/>
    <use xlink:href="#STHeitiTC-Medium-69" x="2673.799286"/>
    <use xlink:href="#STHeitiTC-Medium-6d" x="2693.799271"/>
    <use xlink:href="#STHeitiTC-Medium-70" x="2787.599258"/>
    <use xlink:href="#STHeitiTC-Medium-6c" x="2855.79924"/>
    <use xlink:href="#STHeitiTC-Medium-69" x="2875.799225"/>
    <use xlink:href="#STHeitiTC-Medium-66" x="2895.79921"/>
    <use xlink:href="#STHeitiTC-Medium-69" x="2927.199203"/>
    <use xlink:href="#STHeitiTC-Medium-65" x="2947.199188"/>
    <use xlink:href="#STHeitiTC-Medium-64" x="3012.199173"/>
    <use xlink:href="#STHeitiTC-Medium-20" x="3080.699158"/>
    <use xlink:href="#STHeitiTC-Medium-62" x="3105.699142"/>
    <use xlink:href="#STHeitiTC-Medium-65" x="3173.899124"/>
    <use xlink:href="#STHeitiTC-Medium-6e" x="3238.899109"/>
    <use xlink:href="#STHeitiTC-Medium-63" x="3299.899094"/>
    <use xlink:href="#STHeitiTC-Medium-68" x="3364.599091"/>
    <use xlink:href="#STHeitiTC-Medium-6d" x="3425.599075"/>
    <use xlink:href="#STHeitiTC-Medium-61" x="3519.399063"/>
    <use xlink:href="#STHeitiTC-Medium-72" x="3587.699051"/>
    <use xlink:href="#STHeitiTC-Medium-6b" x="3617.799042"/>
   </g>
  </g>
 </g>
 <defs>
  <clipPath id="pe7f7488e6b">
   <rect x="103.68" y="129.6" width="967.68" height="401.76"/>
  </clipPath>
 </defs>
</svg>
